<?xml version="1.0" encoding="UTF-8" standalone="no"?>
<!DOCTYPE svg PUBLIC "-//W3C//DTD SVG 1.1//EN"
 "http://www.w3.org/Graphics/SVG/1.1/DTD/svg11.dtd">
<!-- Generated by graphviz version 2.43.0 (0)
 -->
<!-- Title: Tree Pages: 1 -->
<svg width="1001pt" height="671pt"
 viewBox="0.00 0.00 1001.00 671.00" xmlns="http://www.w3.org/2000/svg" xmlns:xlink="http://www.w3.org/1999/xlink">
<g id="graph0" class="graph" transform="scale(1 1) rotate(0) translate(4 667)">
<title>Tree</title>
<polygon fill="white" stroke="transparent" points="-4,4 -4,-667 997,-667 997,4 -4,4"/>
<!-- 0 -->
<g id="node1" class="node">
<title>0</title>
<polygon fill="none" stroke="black" points="609.5,-663 424.5,-663 424.5,-580 609.5,-580 609.5,-663"/>
<text text-anchor="middle" x="517" y="-647.8" font-family="Helvetica,sans-Serif" font-size="14.00">petal width (cm) &lt;= 0.8</text>
<text text-anchor="middle" x="517" y="-632.8" font-family="Helvetica,sans-Serif" font-size="14.00">gini = 0.667</text>
<text text-anchor="middle" x="517" y="-617.8" font-family="Helvetica,sans-Serif" font-size="14.00">samples = 150</text>
<text text-anchor="middle" x="517" y="-602.8" font-family="Helvetica,sans-Serif" font-size="14.00">value = [50, 50, 50]</text>
<text text-anchor="middle" x="517" y="-587.8" font-family="Helvetica,sans-Serif" font-size="14.00">class = setosa</text>
</g>
<!-- 1 -->
<g id="node2" class="node">
<title>1</title>
<polygon fill="none" stroke="black" points="495,-536.5 355,-536.5 355,-468.5 495,-468.5 495,-536.5"/>
<text text-anchor="middle" x="425" y="-521.3" font-family="Helvetica,sans-Serif" font-size="14.00">gini = 0.0</text>
<text text-anchor="middle" x="425" y="-506.3" font-family="Helvetica,sans-Serif" font-size="14.00">samples = 50</text>
<text text-anchor="middle" x="425" y="-491.3" font-family="Helvetica,sans-Serif" font-size="14.00">value = [50, 0, 0]</text>
<text text-anchor="middle" x="425" y="-476.3" font-family="Helvetica,sans-Serif" font-size="14.00">class = setosa</text>
</g>
<!-- 0&#45;&gt;1 -->
<g id="edge1" class="edge">
<title>0&#45;&gt;1</title>
<path fill="none" stroke="black" d="M485.08,-579.91C476.14,-568.54 466.42,-556.18 457.45,-544.77"/>
<polygon fill="black" stroke="black" points="460.01,-542.36 451.08,-536.67 454.51,-546.69 460.01,-542.36"/>
<text text-anchor="middle" x="448.11" y="-557.79" font-family="Helvetica,sans-Serif" font-size="14.00">True</text>
</g>
<!-- 2 -->
<g id="node3" class="node">
<title>2</title>
<polygon fill="none" stroke="black" points="707,-544 513,-544 513,-461 707,-461 707,-544"/>
<text text-anchor="middle" x="610" y="-528.8" font-family="Helvetica,sans-Serif" font-size="14.00">petal width (cm) &lt;= 1.75</text>
<text text-anchor="middle" x="610" y="-513.8" font-family="Helvetica,sans-Serif" font-size="14.00">gini = 0.5</text>
<text text-anchor="middle" x="610" y="-498.8" font-family="Helvetica,sans-Serif" font-size="14.00">samples = 100</text>
<text text-anchor="middle" x="610" y="-483.8" font-family="Helvetica,sans-Serif" font-size="14.00">value = [0, 50, 50]</text>
<text text-anchor="middle" x="610" y="-468.8" font-family="Helvetica,sans-Serif" font-size="14.00">class = versicolor</text>
</g>
<!-- 0&#45;&gt;2 -->
<g id="edge2" class="edge">
<title>0&#45;&gt;2</title>
<path fill="none" stroke="black" d="M549.27,-579.91C556.41,-570.92 564.04,-561.32 571.41,-552.05"/>
<polygon fill="black" stroke="black" points="574.31,-554.03 577.79,-544.02 568.83,-549.67 574.31,-554.03"/>
<text text-anchor="middle" x="580.63" y="-565.16" font-family="Helvetica,sans-Serif" font-size="14.00">False</text>
</g>
<!-- 3 -->
<g id="node4" class="node">
<title>3</title>
<polygon fill="none" stroke="black" points="579,-425 379,-425 379,-342 579,-342 579,-425"/>
<text text-anchor="middle" x="479" y="-409.8" font-family="Helvetica,sans-Serif" font-size="14.00">petal length (cm) &lt;= 4.95</text>
<text text-anchor="middle" x="479" y="-394.8" font-family="Helvetica,sans-Serif" font-size="14.00">gini = 0.168</text>
<text text-anchor="middle" x="479" y="-379.8" font-family="Helvetica,sans-Serif" font-size="14.00">samples = 54</text>
<text text-anchor="middle" x="479" y="-364.8" font-family="Helvetica,sans-Serif" font-size="14.00">value = [0, 49, 5]</text>
<text text-anchor="middle" x="479" y="-349.8" font-family="Helvetica,sans-Serif" font-size="14.00">class = versicolor</text>
</g>
<!-- 2&#45;&gt;3 -->
<g id="edge3" class="edge">
<title>2&#45;&gt;3</title>
<path fill="none" stroke="black" d="M564.55,-460.91C554.08,-451.56 542.86,-441.54 532.1,-431.93"/>
<polygon fill="black" stroke="black" points="534.16,-429.07 524.37,-425.02 529.5,-434.29 534.16,-429.07"/>
</g>
<!-- 12 -->
<g id="node13" class="node">
<title>12</title>
<polygon fill="none" stroke="black" points="841,-425 641,-425 641,-342 841,-342 841,-425"/>
<text text-anchor="middle" x="741" y="-409.8" font-family="Helvetica,sans-Serif" font-size="14.00">petal length (cm) &lt;= 4.85</text>
<text text-anchor="middle" x="741" y="-394.8" font-family="Helvetica,sans-Serif" font-size="14.00">gini = 0.043</text>
<text text-anchor="middle" x="741" y="-379.8" font-family="Helvetica,sans-Serif" font-size="14.00">samples = 46</text>
<text text-anchor="middle" x="741" y="-364.8" font-family="Helvetica,sans-Serif" font-size="14.00">value = [0, 1, 45]</text>
<text text-anchor="middle" x="741" y="-349.8" font-family="Helvetica,sans-Serif" font-size="14.00">class = virginica</text>
</g>
<!-- 2&#45;&gt;12 -->
<g id="edge12" class="edge">
<title>2&#45;&gt;12</title>
<path fill="none" stroke="black" d="M655.45,-460.91C665.92,-451.56 677.14,-441.54 687.9,-431.93"/>
<polygon fill="black" stroke="black" points="690.5,-434.29 695.63,-425.02 685.84,-429.07 690.5,-434.29"/>
</g>
<!-- 4 -->
<g id="node5" class="node">
<title>4</title>
<polygon fill="none" stroke="black" points="321,-306 127,-306 127,-223 321,-223 321,-306"/>
<text text-anchor="middle" x="224" y="-290.8" font-family="Helvetica,sans-Serif" font-size="14.00">petal width (cm) &lt;= 1.65</text>
<text text-anchor="middle" x="224" y="-275.8" font-family="Helvetica,sans-Serif" font-size="14.00">gini = 0.041</text>
<text text-anchor="middle" x="224" y="-260.8" font-family="Helvetica,sans-Serif" font-size="14.00">samples = 48</text>
<text text-anchor="middle" x="224" y="-245.8" font-family="Helvetica,sans-Serif" font-size="14.00">value = [0, 47, 1]</text>
<text text-anchor="middle" x="224" y="-230.8" font-family="Helvetica,sans-Serif" font-size="14.00">class = versicolor</text>
</g>
<!-- 3&#45;&gt;4 -->
<g id="edge4" class="edge">
<title>3&#45;&gt;4</title>
<path fill="none" stroke="black" d="M390.53,-341.91C368.28,-331.7 344.27,-320.68 321.6,-310.28"/>
<polygon fill="black" stroke="black" points="322.86,-307.01 312.31,-306.02 319.94,-313.37 322.86,-307.01"/>
</g>
<!-- 7 -->
<g id="node8" class="node">
<title>7</title>
<polygon fill="none" stroke="black" points="576,-306 382,-306 382,-223 576,-223 576,-306"/>
<text text-anchor="middle" x="479" y="-290.8" font-family="Helvetica,sans-Serif" font-size="14.00">petal width (cm) &lt;= 1.55</text>
<text text-anchor="middle" x="479" y="-275.8" font-family="Helvetica,sans-Serif" font-size="14.00">gini = 0.444</text>
<text text-anchor="middle" x="479" y="-260.8" font-family="Helvetica,sans-Serif" font-size="14.00">samples = 6</text>
<text text-anchor="middle" x="479" y="-245.8" font-family="Helvetica,sans-Serif" font-size="14.00">value = [0, 2, 4]</text>
<text text-anchor="middle" x="479" y="-230.8" font-family="Helvetica,sans-Serif" font-size="14.00">class = virginica</text>
</g>
<!-- 3&#45;&gt;7 -->
<g id="edge7" class="edge">
<title>3&#45;&gt;7</title>
<path fill="none" stroke="black" d="M479,-341.91C479,-333.65 479,-324.86 479,-316.3"/>
<polygon fill="black" stroke="black" points="482.5,-316.02 479,-306.02 475.5,-316.02 482.5,-316.02"/>
</g>
<!-- 5 -->
<g id="node6" class="node">
<title>5</title>
<polygon fill="none" stroke="black" points="140,-179.5 0,-179.5 0,-111.5 140,-111.5 140,-179.5"/>
<text text-anchor="middle" x="70" y="-164.3" font-family="Helvetica,sans-Serif" font-size="14.00">gini = 0.0</text>
<text text-anchor="middle" x="70" y="-149.3" font-family="Helvetica,sans-Serif" font-size="14.00">samples = 47</text>
<text text-anchor="middle" x="70" y="-134.3" font-family="Helvetica,sans-Serif" font-size="14.00">value = [0, 47, 0]</text>
<text text-anchor="middle" x="70" y="-119.3" font-family="Helvetica,sans-Serif" font-size="14.00">class = versicolor</text>
</g>
<!-- 4&#45;&gt;5 -->
<g id="edge5" class="edge">
<title>4&#45;&gt;5</title>
<path fill="none" stroke="black" d="M170.57,-222.91C154.74,-210.88 137.44,-197.73 121.72,-185.79"/>
<polygon fill="black" stroke="black" points="123.74,-182.93 113.66,-179.67 119.5,-188.5 123.74,-182.93"/>
</g>
<!-- 6 -->
<g id="node7" class="node">
<title>6</title>
<polygon fill="none" stroke="black" points="289.5,-179.5 158.5,-179.5 158.5,-111.5 289.5,-111.5 289.5,-179.5"/>
<text text-anchor="middle" x="224" y="-164.3" font-family="Helvetica,sans-Serif" font-size="14.00">gini = 0.0</text>
<text text-anchor="middle" x="224" y="-149.3" font-family="Helvetica,sans-Serif" font-size="14.00">samples = 1</text>
<text text-anchor="middle" x="224" y="-134.3" font-family="Helvetica,sans-Serif" font-size="14.00">value = [0, 0, 1]</text>
<text text-anchor="middle" x="224" y="-119.3" font-family="Helvetica,sans-Serif" font-size="14.00">class = virginica</text>
</g>
<!-- 4&#45;&gt;6 -->
<g id="edge6" class="edge">
<title>4&#45;&gt;6</title>
<path fill="none" stroke="black" d="M224,-222.91C224,-212.2 224,-200.62 224,-189.78"/>
<polygon fill="black" stroke="black" points="227.5,-189.67 224,-179.67 220.5,-189.67 227.5,-189.67"/>
</g>
<!-- 8 -->
<g id="node9" class="node">
<title>8</title>
<polygon fill="none" stroke="black" points="438.5,-179.5 307.5,-179.5 307.5,-111.5 438.5,-111.5 438.5,-179.5"/>
<text text-anchor="middle" x="373" y="-164.3" font-family="Helvetica,sans-Serif" font-size="14.00">gini = 0.0</text>
<text text-anchor="middle" x="373" y="-149.3" font-family="Helvetica,sans-Serif" font-size="14.00">samples = 3</text>
<text text-anchor="middle" x="373" y="-134.3" font-family="Helvetica,sans-Serif" font-size="14.00">value = [0, 0, 3]</text>
<text text-anchor="middle" x="373" y="-119.3" font-family="Helvetica,sans-Serif" font-size="14.00">class = virginica</text>
</g>
<!-- 7&#45;&gt;8 -->
<g id="edge8" class="edge">
<title>7&#45;&gt;8</title>
<path fill="none" stroke="black" d="M442.22,-222.91C431.73,-211.32 420.29,-198.7 409.79,-187.11"/>
<polygon fill="black" stroke="black" points="412.36,-184.73 403.05,-179.67 407.17,-189.43 412.36,-184.73"/>
</g>
<!-- 9 -->
<g id="node10" class="node">
<title>9</title>
<polygon fill="none" stroke="black" points="657,-187 457,-187 457,-104 657,-104 657,-187"/>
<text text-anchor="middle" x="557" y="-171.8" font-family="Helvetica,sans-Serif" font-size="14.00">petal length (cm) &lt;= 5.45</text>
<text text-anchor="middle" x="557" y="-156.8" font-family="Helvetica,sans-Serif" font-size="14.00">gini = 0.444</text>
<text text-anchor="middle" x="557" y="-141.8" font-family="Helvetica,sans-Serif" font-size="14.00">samples = 3</text>
<text text-anchor="middle" x="557" y="-126.8" font-family="Helvetica,sans-Serif" font-size="14.00">value = [0, 2, 1]</text>
<text text-anchor="middle" x="557" y="-111.8" font-family="Helvetica,sans-Serif" font-size="14.00">class = versicolor</text>
</g>
<!-- 7&#45;&gt;9 -->
<g id="edge9" class="edge">
<title>7&#45;&gt;9</title>
<path fill="none" stroke="black" d="M506.06,-222.91C511.93,-214.1 518.2,-204.7 524.26,-195.61"/>
<polygon fill="black" stroke="black" points="527.35,-197.28 529.99,-187.02 521.53,-193.4 527.35,-197.28"/>
</g>
<!-- 10 -->
<g id="node11" class="node">
<title>10</title>
<polygon fill="none" stroke="black" points="550,-68 410,-68 410,0 550,0 550,-68"/>
<text text-anchor="middle" x="480" y="-52.8" font-family="Helvetica,sans-Serif" font-size="14.00">gini = 0.0</text>
<text text-anchor="middle" x="480" y="-37.8" font-family="Helvetica,sans-Serif" font-size="14.00">samples = 2</text>
<text text-anchor="middle" x="480" y="-22.8" font-family="Helvetica,sans-Serif" font-size="14.00">value = [0, 2, 0]</text>
<text text-anchor="middle" x="480" y="-7.8" font-family="Helvetica,sans-Serif" font-size="14.00">class = versicolor</text>
</g>
<!-- 9&#45;&gt;10 -->
<g id="edge10" class="edge">
<title>9&#45;&gt;10</title>
<path fill="none" stroke="black" d="M528.33,-103.73C522.11,-94.88 515.52,-85.51 509.27,-76.63"/>
<polygon fill="black" stroke="black" points="512.03,-74.47 503.42,-68.3 506.31,-78.49 512.03,-74.47"/>
</g>
<!-- 11 -->
<g id="node12" class="node">
<title>11</title>
<polygon fill="none" stroke="black" points="699.5,-68 568.5,-68 568.5,0 699.5,0 699.5,-68"/>
<text text-anchor="middle" x="634" y="-52.8" font-family="Helvetica,sans-Serif" font-size="14.00">gini = 0.0</text>
<text text-anchor="middle" x="634" y="-37.8" font-family="Helvetica,sans-Serif" font-size="14.00">samples = 1</text>
<text text-anchor="middle" x="634" y="-22.8" font-family="Helvetica,sans-Serif" font-size="14.00">value = [0, 0, 1]</text>
<text text-anchor="middle" x="634" y="-7.8" font-family="Helvetica,sans-Serif" font-size="14.00">class = virginica</text>
</g>
<!-- 9&#45;&gt;11 -->
<g id="edge11" class="edge">
<title>9&#45;&gt;11</title>
<path fill="none" stroke="black" d="M585.67,-103.73C591.89,-94.88 598.48,-85.51 604.73,-76.63"/>
<polygon fill="black" stroke="black" points="607.69,-78.49 610.58,-68.3 601.97,-74.47 607.69,-78.49"/>
</g>
<!-- 13 -->
<g id="node14" class="node">
<title>13</title>
<polygon fill="none" stroke="black" points="835,-306 647,-306 647,-223 835,-223 835,-306"/>
<text text-anchor="middle" x="741" y="-290.8" font-family="Helvetica,sans-Serif" font-size="14.00">sepal width (cm) &lt;= 3.1</text>
<text text-anchor="middle" x="741" y="-275.8" font-family="Helvetica,sans-Serif" font-size="14.00">gini = 0.444</text>
<text text-anchor="middle" x="741" y="-260.8" font-family="Helvetica,sans-Serif" font-size="14.00">samples = 3</text>
<text text-anchor="middle" x="741" y="-245.8" font-family="Helvetica,sans-Serif" font-size="14.00">value = [0, 1, 2]</text>
<text text-anchor="middle" x="741" y="-230.8" font-family="Helvetica,sans-Serif" font-size="14.00">class = virginica</text>
</g>
<!-- 12&#45;&gt;13 -->
<g id="edge13" class="edge">
<title>12&#45;&gt;13</title>
<path fill="none" stroke="black" d="M741,-341.91C741,-333.65 741,-324.86 741,-316.3"/>
<polygon fill="black" stroke="black" points="744.5,-316.02 741,-306.02 737.5,-316.02 744.5,-316.02"/>
</g>
<!-- 16 -->
<g id="node17" class="node">
<title>16</title>
<polygon fill="none" stroke="black" points="993,-298.5 853,-298.5 853,-230.5 993,-230.5 993,-298.5"/>
<text text-anchor="middle" x="923" y="-283.3" font-family="Helvetica,sans-Serif" font-size="14.00">gini = 0.0</text>
<text text-anchor="middle" x="923" y="-268.3" font-family="Helvetica,sans-Serif" font-size="14.00">samples = 43</text>
<text text-anchor="middle" x="923" y="-253.3" font-family="Helvetica,sans-Serif" font-size="14.00">value = [0, 0, 43]</text>
<text text-anchor="middle" x="923" y="-238.3" font-family="Helvetica,sans-Serif" font-size="14.00">class = virginica</text>
</g>
<!-- 12&#45;&gt;16 -->
<g id="edge16" class="edge">
<title>12&#45;&gt;16</title>
<path fill="none" stroke="black" d="M804.14,-341.91C823.2,-329.66 844.05,-316.25 862.9,-304.13"/>
<polygon fill="black" stroke="black" points="864.89,-307.02 871.41,-298.67 861.1,-301.13 864.89,-307.02"/>
</g>
<!-- 14 -->
<g id="node15" class="node">
<title>14</title>
<polygon fill="none" stroke="black" points="806.5,-179.5 675.5,-179.5 675.5,-111.5 806.5,-111.5 806.5,-179.5"/>
<text text-anchor="middle" x="741" y="-164.3" font-family="Helvetica,sans-Serif" font-size="14.00">gini = 0.0</text>
<text text-anchor="middle" x="741" y="-149.3" font-family="Helvetica,sans-Serif" font-size="14.00">samples = 2</text>
<text text-anchor="middle" x="741" y="-134.3" font-family="Helvetica,sans-Serif" font-size="14.00">value = [0, 0, 2]</text>
<text text-anchor="middle" x="741" y="-119.3" font-family="Helvetica,sans-Serif" font-size="14.00">class = virginica</text>
</g>
<!-- 13&#45;&gt;14 -->
<g id="edge14" class="edge">
<title>13&#45;&gt;14</title>
<path fill="none" stroke="black" d="M741,-222.91C741,-212.2 741,-200.62 741,-189.78"/>
<polygon fill="black" stroke="black" points="744.5,-189.67 741,-179.67 737.5,-189.67 744.5,-189.67"/>
</g>
<!-- 15 -->
<g id="node16" class="node">
<title>15</title>
<polygon fill="none" stroke="black" points="965,-179.5 825,-179.5 825,-111.5 965,-111.5 965,-179.5"/>
<text text-anchor="middle" x="895" y="-164.3" font-family="Helvetica,sans-Serif" font-size="14.00">gini = 0.0</text>
<text text-anchor="middle" x="895" y="-149.3" font-family="Helvetica,sans-Serif" font-size="14.00">samples = 1</text>
<text text-anchor="middle" x="895" y="-134.3" font-family="Helvetica,sans-Serif" font-size="14.00">value = [0, 1, 0]</text>
<text text-anchor="middle" x="895" y="-119.3" font-family="Helvetica,sans-Serif" font-size="14.00">class = versicolor</text>
</g>
<!-- 13&#45;&gt;15 -->
<g id="edge15" class="edge">
<title>13&#45;&gt;15</title>
<path fill="none" stroke="black" d="M794.43,-222.91C810.26,-210.88 827.56,-197.73 843.28,-185.79"/>
<polygon fill="black" stroke="black" points="845.5,-188.5 851.34,-179.67 841.26,-182.93 845.5,-188.5"/>
</g>
<!-- \n -->
<!--<g id="node18" class="node">-->
<!--<title>\n</title>-->
<!--<polygon fill="none" stroke="black" points="682,-639.5 628,-639.5 628,-603.5 682,-603.5 682,-639.5"/>-->
<!--</g>-->
</g>
</svg>
