<?xml version="1.0" encoding="utf-8" standalone="no"?>
<!DOCTYPE svg PUBLIC "-//W3C//DTD SVG 1.1//EN"
  "http://www.w3.org/Graphics/SVG/1.1/DTD/svg11.dtd">
<svg xmlns:xlink="http://www.w3.org/1999/xlink" width="460.8pt" height="345.6pt" viewBox="0 0 460.8 345.6" xmlns="http://www.w3.org/2000/svg" version="1.1">
 <metadata>
  <rdf:RDF xmlns:dc="http://purl.org/dc/elements/1.1/" xmlns:cc="http://creativecommons.org/ns#" xmlns:rdf="http://www.w3.org/1999/02/22-rdf-syntax-ns#">
   <cc:Work>
    <dc:type rdf:resource="http://purl.org/dc/dcmitype/StillImage"/>
    <dc:date>2024-06-27T21:59:50.529817</dc:date>
    <dc:format>image/svg+xml</dc:format>
    <dc:creator>
     <cc:Agent>
      <dc:title>Matplotlib v3.8.3, https://matplotlib.org/</dc:title>
     </cc:Agent>
    </dc:creator>
   </cc:Work>
  </rdf:RDF>
 </metadata>
 <defs>
  <style type="text/css">*{stroke-linejoin: round; stroke-linecap: butt}</style>
 </defs>
 <g id="figure_1">
  <g id="patch_1">
   <path d="M 0 345.6 
L 460.8 345.6 
L 460.8 0 
L 0 0 
z
" style="fill: #ffffff"/>
  </g>
  <g id="axes_1">
   <g id="patch_2">
    <path d="M 57.6 307.584 
L 414.72 307.584 
L 414.72 41.472 
L 57.6 41.472 
z
" style="fill: #ffffff"/>
   </g>
   <g id="matplotlib.axis_1">
    <g id="xtick_1">
     <g id="line2d_1">
      <defs>
       <path id="m678a9c43ec" d="M 0 0 
L 0 3.5 
" style="stroke: #000000; stroke-width: 0.8"/>
      </defs>
      <g>
       <use xlink:href="#m678a9c43ec" x="57.6" y="307.584" style="stroke: #000000; stroke-width: 0.8"/>
      </g>
     </g>
     <g id="text_1">
      <!-- 0 -->
      <g transform="translate(54.41875 322.182437) scale(0.1 -0.1)">
       <defs>
        <path id="DejaVuSans-30" d="M 2034 4250 
Q 1547 4250 1301 3770 
Q 1056 3291 1056 2328 
Q 1056 1369 1301 889 
Q 1547 409 2034 409 
Q 2525 409 2770 889 
Q 3016 1369 3016 2328 
Q 3016 3291 2770 3770 
Q 2525 4250 2034 4250 
z
M 2034 4750 
Q 2819 4750 3233 4129 
Q 3647 3509 3647 2328 
Q 3647 1150 3233 529 
Q 2819 -91 2034 -91 
Q 1250 -91 836 529 
Q 422 1150 422 2328 
Q 422 3509 836 4129 
Q 1250 4750 2034 4750 
z
" transform="scale(0.015625)"/>
       </defs>
       <use xlink:href="#DejaVuSans-30"/>
      </g>
     </g>
    </g>
    <g id="xtick_2">
     <g id="line2d_2">
      <g>
       <use xlink:href="#m678a9c43ec" x="127.35" y="307.584" style="stroke: #000000; stroke-width: 0.8"/>
      </g>
     </g>
     <g id="text_2">
      <!-- 50 -->
      <g transform="translate(120.9875 322.182437) scale(0.1 -0.1)">
       <defs>
        <path id="DejaVuSans-35" d="M 691 4666 
L 3169 4666 
L 3169 4134 
L 1269 4134 
L 1269 2991 
Q 1406 3038 1543 3061 
Q 1681 3084 1819 3084 
Q 2600 3084 3056 2656 
Q 3513 2228 3513 1497 
Q 3513 744 3044 326 
Q 2575 -91 1722 -91 
Q 1428 -91 1123 -41 
Q 819 9 494 109 
L 494 744 
Q 775 591 1075 516 
Q 1375 441 1709 441 
Q 2250 441 2565 725 
Q 2881 1009 2881 1497 
Q 2881 1984 2565 2268 
Q 2250 2553 1709 2553 
Q 1456 2553 1204 2497 
Q 953 2441 691 2322 
L 691 4666 
z
" transform="scale(0.015625)"/>
       </defs>
       <use xlink:href="#DejaVuSans-35"/>
       <use xlink:href="#DejaVuSans-30" x="63.623047"/>
      </g>
     </g>
    </g>
    <g id="xtick_3">
     <g id="line2d_3">
      <g>
       <use xlink:href="#m678a9c43ec" x="197.1" y="307.584" style="stroke: #000000; stroke-width: 0.8"/>
      </g>
     </g>
     <g id="text_3">
      <!-- 100 -->
      <g transform="translate(187.55625 322.182437) scale(0.1 -0.1)">
       <defs>
        <path id="DejaVuSans-31" d="M 794 531 
L 1825 531 
L 1825 4091 
L 703 3866 
L 703 4441 
L 1819 4666 
L 2450 4666 
L 2450 531 
L 3481 531 
L 3481 0 
L 794 0 
L 794 531 
z
" transform="scale(0.015625)"/>
       </defs>
       <use xlink:href="#DejaVuSans-31"/>
       <use xlink:href="#DejaVuSans-30" x="63.623047"/>
       <use xlink:href="#DejaVuSans-30" x="127.246094"/>
      </g>
     </g>
    </g>
    <g id="xtick_4">
     <g id="line2d_4">
      <g>
       <use xlink:href="#m678a9c43ec" x="266.85" y="307.584" style="stroke: #000000; stroke-width: 0.8"/>
      </g>
     </g>
     <g id="text_4">
      <!-- 150 -->
      <g transform="translate(257.30625 322.182437) scale(0.1 -0.1)">
       <use xlink:href="#DejaVuSans-31"/>
       <use xlink:href="#DejaVuSans-35" x="63.623047"/>
       <use xlink:href="#DejaVuSans-30" x="127.246094"/>
      </g>
     </g>
    </g>
    <g id="xtick_5">
     <g id="line2d_5">
      <g>
       <use xlink:href="#m678a9c43ec" x="336.6" y="307.584" style="stroke: #000000; stroke-width: 0.8"/>
      </g>
     </g>
     <g id="text_5">
      <!-- 200 -->
      <g transform="translate(327.05625 322.182437) scale(0.1 -0.1)">
       <defs>
        <path id="DejaVuSans-32" d="M 1228 531 
L 3431 531 
L 3431 0 
L 469 0 
L 469 531 
Q 828 903 1448 1529 
Q 2069 2156 2228 2338 
Q 2531 2678 2651 2914 
Q 2772 3150 2772 3378 
Q 2772 3750 2511 3984 
Q 2250 4219 1831 4219 
Q 1534 4219 1204 4116 
Q 875 4013 500 3803 
L 500 4441 
Q 881 4594 1212 4672 
Q 1544 4750 1819 4750 
Q 2544 4750 2975 4387 
Q 3406 4025 3406 3419 
Q 3406 3131 3298 2873 
Q 3191 2616 2906 2266 
Q 2828 2175 2409 1742 
Q 1991 1309 1228 531 
z
" transform="scale(0.015625)"/>
       </defs>
       <use xlink:href="#DejaVuSans-32"/>
       <use xlink:href="#DejaVuSans-30" x="63.623047"/>
       <use xlink:href="#DejaVuSans-30" x="127.246094"/>
      </g>
     </g>
    </g>
    <g id="xtick_6">
     <g id="line2d_6">
      <g>
       <use xlink:href="#m678a9c43ec" x="406.35" y="307.584" style="stroke: #000000; stroke-width: 0.8"/>
      </g>
     </g>
     <g id="text_6">
      <!-- 250 -->
      <g transform="translate(396.80625 322.182437) scale(0.1 -0.1)">
       <use xlink:href="#DejaVuSans-32"/>
       <use xlink:href="#DejaVuSans-35" x="63.623047"/>
       <use xlink:href="#DejaVuSans-30" x="127.246094"/>
      </g>
     </g>
    </g>
   </g>
   <g id="matplotlib.axis_2">
    <g id="ytick_1">
     <g id="line2d_7">
      <defs>
       <path id="m95414b3786" d="M 0 0 
L -3.5 0 
" style="stroke: #000000; stroke-width: 0.8"/>
      </defs>
      <g>
       <use xlink:href="#m95414b3786" x="57.6" y="295.488" style="stroke: #000000; stroke-width: 0.8"/>
      </g>
     </g>
     <g id="text_7">
      <!-- 0 -->
      <g transform="translate(44.2375 299.287219) scale(0.1 -0.1)">
       <use xlink:href="#DejaVuSans-30"/>
      </g>
     </g>
    </g>
    <g id="ytick_2">
     <g id="line2d_8">
      <g>
       <use xlink:href="#m95414b3786" x="57.6" y="261.953207" style="stroke: #000000; stroke-width: 0.8"/>
      </g>
     </g>
     <g id="text_8">
      <!-- 1000 -->
      <g transform="translate(25.15 265.752425) scale(0.1 -0.1)">
       <use xlink:href="#DejaVuSans-31"/>
       <use xlink:href="#DejaVuSans-30" x="63.623047"/>
       <use xlink:href="#DejaVuSans-30" x="127.246094"/>
       <use xlink:href="#DejaVuSans-30" x="190.869141"/>
      </g>
     </g>
    </g>
    <g id="ytick_3">
     <g id="line2d_9">
      <g>
       <use xlink:href="#m95414b3786" x="57.6" y="228.418413" style="stroke: #000000; stroke-width: 0.8"/>
      </g>
     </g>
     <g id="text_9">
      <!-- 2000 -->
      <g transform="translate(25.15 232.217632) scale(0.1 -0.1)">
       <use xlink:href="#DejaVuSans-32"/>
       <use xlink:href="#DejaVuSans-30" x="63.623047"/>
       <use xlink:href="#DejaVuSans-30" x="127.246094"/>
       <use xlink:href="#DejaVuSans-30" x="190.869141"/>
      </g>
     </g>
    </g>
    <g id="ytick_4">
     <g id="line2d_10">
      <g>
       <use xlink:href="#m95414b3786" x="57.6" y="194.88362" style="stroke: #000000; stroke-width: 0.8"/>
      </g>
     </g>
     <g id="text_10">
      <!-- 3000 -->
      <g transform="translate(25.15 198.682838) scale(0.1 -0.1)">
       <defs>
        <path id="DejaVuSans-33" d="M 2597 2516 
Q 3050 2419 3304 2112 
Q 3559 1806 3559 1356 
Q 3559 666 3084 287 
Q 2609 -91 1734 -91 
Q 1441 -91 1130 -33 
Q 819 25 488 141 
L 488 750 
Q 750 597 1062 519 
Q 1375 441 1716 441 
Q 2309 441 2620 675 
Q 2931 909 2931 1356 
Q 2931 1769 2642 2001 
Q 2353 2234 1838 2234 
L 1294 2234 
L 1294 2753 
L 1863 2753 
Q 2328 2753 2575 2939 
Q 2822 3125 2822 3475 
Q 2822 3834 2567 4026 
Q 2313 4219 1838 4219 
Q 1578 4219 1281 4162 
Q 984 4106 628 3988 
L 628 4550 
Q 988 4650 1302 4700 
Q 1616 4750 1894 4750 
Q 2613 4750 3031 4423 
Q 3450 4097 3450 3541 
Q 3450 3153 3228 2886 
Q 3006 2619 2597 2516 
z
" transform="scale(0.015625)"/>
       </defs>
       <use xlink:href="#DejaVuSans-33"/>
       <use xlink:href="#DejaVuSans-30" x="63.623047"/>
       <use xlink:href="#DejaVuSans-30" x="127.246094"/>
       <use xlink:href="#DejaVuSans-30" x="190.869141"/>
      </g>
     </g>
    </g>
    <g id="ytick_5">
     <g id="line2d_11">
      <g>
       <use xlink:href="#m95414b3786" x="57.6" y="161.348826" style="stroke: #000000; stroke-width: 0.8"/>
      </g>
     </g>
     <g id="text_11">
      <!-- 4000 -->
      <g transform="translate(25.15 165.148045) scale(0.1 -0.1)">
       <defs>
        <path id="DejaVuSans-34" d="M 2419 4116 
L 825 1625 
L 2419 1625 
L 2419 4116 
z
M 2253 4666 
L 3047 4666 
L 3047 1625 
L 3713 1625 
L 3713 1100 
L 3047 1100 
L 3047 0 
L 2419 0 
L 2419 1100 
L 313 1100 
L 313 1709 
L 2253 4666 
z
" transform="scale(0.015625)"/>
       </defs>
       <use xlink:href="#DejaVuSans-34"/>
       <use xlink:href="#DejaVuSans-30" x="63.623047"/>
       <use xlink:href="#DejaVuSans-30" x="127.246094"/>
       <use xlink:href="#DejaVuSans-30" x="190.869141"/>
      </g>
     </g>
    </g>
    <g id="ytick_6">
     <g id="line2d_12">
      <g>
       <use xlink:href="#m95414b3786" x="57.6" y="127.814033" style="stroke: #000000; stroke-width: 0.8"/>
      </g>
     </g>
     <g id="text_12">
      <!-- 5000 -->
      <g transform="translate(25.15 131.613251) scale(0.1 -0.1)">
       <use xlink:href="#DejaVuSans-35"/>
       <use xlink:href="#DejaVuSans-30" x="63.623047"/>
       <use xlink:href="#DejaVuSans-30" x="127.246094"/>
       <use xlink:href="#DejaVuSans-30" x="190.869141"/>
      </g>
     </g>
    </g>
    <g id="ytick_7">
     <g id="line2d_13">
      <g>
       <use xlink:href="#m95414b3786" x="57.6" y="94.279239" style="stroke: #000000; stroke-width: 0.8"/>
      </g>
     </g>
     <g id="text_13">
      <!-- 6000 -->
      <g transform="translate(25.15 98.078458) scale(0.1 -0.1)">
       <defs>
        <path id="DejaVuSans-36" d="M 2113 2584 
Q 1688 2584 1439 2293 
Q 1191 2003 1191 1497 
Q 1191 994 1439 701 
Q 1688 409 2113 409 
Q 2538 409 2786 701 
Q 3034 994 3034 1497 
Q 3034 2003 2786 2293 
Q 2538 2584 2113 2584 
z
M 3366 4563 
L 3366 3988 
Q 3128 4100 2886 4159 
Q 2644 4219 2406 4219 
Q 1781 4219 1451 3797 
Q 1122 3375 1075 2522 
Q 1259 2794 1537 2939 
Q 1816 3084 2150 3084 
Q 2853 3084 3261 2657 
Q 3669 2231 3669 1497 
Q 3669 778 3244 343 
Q 2819 -91 2113 -91 
Q 1303 -91 875 529 
Q 447 1150 447 2328 
Q 447 3434 972 4092 
Q 1497 4750 2381 4750 
Q 2619 4750 2861 4703 
Q 3103 4656 3366 4563 
z
" transform="scale(0.015625)"/>
       </defs>
       <use xlink:href="#DejaVuSans-36"/>
       <use xlink:href="#DejaVuSans-30" x="63.623047"/>
       <use xlink:href="#DejaVuSans-30" x="127.246094"/>
       <use xlink:href="#DejaVuSans-30" x="190.869141"/>
      </g>
     </g>
    </g>
    <g id="ytick_8">
     <g id="line2d_14">
      <g>
       <use xlink:href="#m95414b3786" x="57.6" y="60.744446" style="stroke: #000000; stroke-width: 0.8"/>
      </g>
     </g>
     <g id="text_14">
      <!-- 7000 -->
      <g transform="translate(25.15 64.543665) scale(0.1 -0.1)">
       <defs>
        <path id="DejaVuSans-37" d="M 525 4666 
L 3525 4666 
L 3525 4397 
L 1831 0 
L 1172 0 
L 2766 4134 
L 525 4134 
L 525 4666 
z
" transform="scale(0.015625)"/>
       </defs>
       <use xlink:href="#DejaVuSans-37"/>
       <use xlink:href="#DejaVuSans-30" x="63.623047"/>
       <use xlink:href="#DejaVuSans-30" x="127.246094"/>
       <use xlink:href="#DejaVuSans-30" x="190.869141"/>
      </g>
     </g>
    </g>
   </g>
   <g id="line2d_15">
    <path d="M 57.6 261.047767 
L 58.995 288.21095 
L 61.785 290.59192 
L 63.18 290.59192 
L 65.97 291.027872 
L 67.365 290.893733 
L 68.76 291.094942 
L 70.155 291.162012 
L 71.55 290.793129 
L 72.945 290.826664 
L 74.34 290.155968 
L 75.735 289.317598 
L 77.13 288.043276 
L 78.525 287.37258 
L 79.92 286.567745 
L 82.71 283.013057 
L 84.105 282.4765 
L 85.5 281.671665 
L 86.895 282.275291 
L 88.29 281.571061 
L 91.08 283.080126 
L 92.475 285.226353 
L 93.87 285.796445 
L 95.265 285.863514 
L 96.66 286.265932 
L 98.055 286.970162 
L 99.45 286.701884 
L 102.24 288.378624 
L 103.635 288.479228 
L 105.03 289.82062 
L 106.425 290.927268 
L 107.82 290.65899 
L 110.61 291.765638 
L 112.005 291.262616 
L 113.4 292.20159 
L 114.795 292.067451 
L 116.19 292.469869 
L 118.98 292.134521 
L 120.375 292.26866 
L 121.77 293.241169 
L 123.165 293.844795 
L 125.955 293.777726 
L 127.35 293.677121 
L 128.745 293.341773 
L 130.14 294.079539 
L 131.535 293.274704 
L 132.93 293.87833 
L 134.325 293.475912 
L 135.72 293.87833 
L 137.115 294.079539 
L 138.51 294.616095 
L 139.905 293.911865 
L 141.3 294.280747 
L 142.695 294.481956 
L 144.09 294.414887 
L 145.485 294.213678 
L 146.88 294.64963 
L 148.275 294.180143 
L 149.67 294.414887 
L 151.065 294.280747 
L 152.46 294.347817 
L 153.855 294.012469 
L 155.25 294.012469 
L 156.645 293.677121 
L 158.04 293.10703 
L 159.435 292.402799 
L 160.83 290.625455 
L 162.225 282.241757 
L 163.62 276.306098 
L 165.015 251.758629 
L 166.41 199.913839 
L 167.805 166.580254 
L 169.2 154.407124 
L 170.595 180.161845 
L 171.99 238.009364 
L 173.385 236.030811 
L 174.78 259.73991 
L 176.175 264.468316 
L 177.57 254.877365 
L 178.965 249.847146 
L 180.36 254.642622 
L 181.755 257.929031 
L 183.15 265.105477 
L 184.545 271.577692 
L 185.94 269.465 
L 187.335 270.202766 
L 188.73 274.193406 
L 190.125 277.815164 
L 191.52 275.903681 
L 192.915 277.949303 
L 194.31 276.406703 
L 195.705 280.162599 
L 197.1 281.135108 
L 198.495 281.604596 
L 199.89 283.482544 
L 201.285 284.019101 
L 202.68 286.098258 
L 204.075 287.540254 
L 205.47 288.345089 
L 206.865 287.271976 
L 208.26 288.076811 
L 212.445 287.137836 
L 215.235 286.903093 
L 216.63 288.110345 
L 218.025 287.573789 
L 219.42 287.271976 
L 220.815 287.842067 
L 222.21 287.473184 
L 225 287.271976 
L 226.395 287.238441 
L 227.79 289.351133 
L 229.185 289.954759 
L 230.58 289.451737 
L 231.975 290.524851 
L 233.37 291.027872 
L 234.765 290.290107 
L 236.16 289.082854 
L 237.555 290.726059 
L 240.345 291.665034 
L 241.74 291.49736 
L 244.53 289.720016 
L 245.925 287.707928 
L 247.32 289.317598 
L 248.715 287.774998 
L 250.11 285.997653 
L 251.505 289.082854 
L 252.9 287.271976 
L 254.295 287.070767 
L 255.69 287.238441 
L 257.085 285.662306 
L 258.48 285.259888 
L 259.875 283.784357 
L 261.27 286.701884 
L 262.665 284.656262 
L 264.06 283.784357 
L 265.455 283.31487 
L 266.85 281.7052 
L 268.245 282.241757 
L 269.64 281.068039 
L 271.035 277.043864 
L 273.825 286.567745 
L 275.22 287.271976 
L 276.615 286.098258 
L 279.405 281.63813 
L 280.8 283.046592 
L 282.195 283.717287 
L 283.59 281.403387 
L 284.985 287.406115 
L 286.38 289.75355 
L 287.775 286.232397 
L 289.17 291.866242 
L 290.565 291.665034 
L 291.96 292.771682 
L 293.355 292.805217 
L 294.75 293.274704 
L 296.145 292.100986 
L 297.54 292.805217 
L 298.935 292.26866 
L 300.33 292.168055 
L 301.725 292.704612 
L 303.12 288.91518 
L 304.515 290.893733 
L 305.91 293.475912 
L 307.305 293.610052 
L 308.7 294.113073 
L 310.095 294.146608 
L 311.49 294.012469 
L 312.885 294.046004 
L 314.28 294.314282 
L 315.675 293.9454 
L 317.07 294.582561 
L 318.465 294.146608 
L 319.86 294.046004 
L 321.255 294.481956 
L 324.045 294.414887 
L 325.44 294.750235 
L 328.23 294.414887 
L 329.625 294.280747 
L 331.02 294.448421 
L 333.81 294.381352 
L 335.205 293.911865 
L 336.6 293.911865 
L 337.995 294.515491 
L 339.39 294.448421 
L 340.785 294.113073 
L 342.18 294.448421 
L 343.575 294.448421 
L 344.97 294.280747 
L 346.365 294.347817 
L 349.155 294.64963 
L 353.34 295.052048 
L 354.735 294.984978 
L 363.105 295.42093 
L 365.895 295.219722 
L 367.29 295.42093 
L 370.08 295.320326 
L 371.475 295.454465 
L 374.265 295.320326 
L 375.66 295.454465 
L 379.845 295.454465 
L 413.325 295.488 
L 413.325 295.488 
" clip-path="url(#pfff4af7a16)" style="fill: none; stroke: #ff0000; stroke-width: 1.5; stroke-linecap: square"/>
   </g>
   <g id="line2d_16">
    <path d="M 57.6 295.353861 
L 58.995 295.286791 
L 60.39 294.984978 
L 61.785 295.085582 
L 63.18 294.381352 
L 64.575 294.280747 
L 65.97 294.549026 
L 67.365 293.978934 
L 70.155 292.26866 
L 71.55 292.033916 
L 72.945 290.826664 
L 74.34 291.530894 
L 75.735 289.216994 
L 77.13 289.854155 
L 78.525 291.027872 
L 82.71 292.100986 
L 84.105 291.665034 
L 85.5 292.100986 
L 86.895 291.162012 
L 88.29 291.296151 
L 89.685 291.732103 
L 91.08 290.692525 
L 92.475 290.826664 
L 93.87 291.094942 
L 95.265 289.720016 
L 96.66 288.91518 
L 98.055 287.406115 
L 99.45 287.540254 
L 100.845 286.198862 
L 103.635 285.528166 
L 105.03 284.320914 
L 106.425 283.884961 
L 107.82 282.308826 
L 109.215 281.63813 
L 110.61 282.141152 
L 112.005 283.31487 
L 113.4 284.723331 
L 114.795 285.796445 
L 116.19 287.070767 
L 117.585 287.573789 
L 118.98 286.500675 
L 120.375 287.204906 
L 123.165 287.909137 
L 124.56 289.317598 
L 125.955 289.518807 
L 127.35 291.195546 
L 128.745 290.491316 
L 130.14 290.59192 
L 131.535 292.000381 
L 132.93 291.162012 
L 134.325 292.503403 
L 135.72 291.799173 
L 137.115 291.463825 
L 138.51 291.564429 
L 139.905 291.866242 
L 141.3 292.033916 
L 142.695 291.463825 
L 144.09 292.671077 
L 145.485 292.771682 
L 146.88 293.140564 
L 148.275 292.469869 
L 149.67 293.677121 
L 151.065 293.677121 
L 152.46 293.9454 
L 153.855 294.079539 
L 155.25 294.012469 
L 156.645 294.381352 
L 158.04 294.280747 
L 159.435 294.012469 
L 160.83 294.347817 
L 162.225 294.213678 
L 163.62 294.280747 
L 165.015 294.213678 
L 166.41 294.012469 
L 167.805 294.347817 
L 169.2 294.146608 
L 171.99 294.414887 
L 177.57 294.481956 
L 178.965 293.81126 
L 180.36 294.381352 
L 183.15 294.381352 
L 184.545 294.414887 
L 185.94 294.616095 
L 187.335 294.549026 
L 188.73 294.280747 
L 191.52 294.7167 
L 192.915 293.978934 
L 194.31 294.314282 
L 195.705 294.280747 
L 197.1 294.481956 
L 199.89 294.247213 
L 201.285 294.347817 
L 204.075 294.079539 
L 206.865 294.247213 
L 208.26 294.247213 
L 209.655 294.414887 
L 211.05 294.213678 
L 212.445 293.81126 
L 213.84 293.978934 
L 215.235 293.844795 
L 216.63 293.911865 
L 219.42 293.710656 
L 220.815 294.213678 
L 222.21 294.012469 
L 223.605 294.113073 
L 225 293.677121 
L 226.395 293.710656 
L 227.79 294.012469 
L 229.185 293.643586 
L 230.58 294.180143 
L 231.975 294.213678 
L 233.37 293.911865 
L 234.765 293.978934 
L 236.16 294.280747 
L 237.555 294.012469 
L 238.95 293.308238 
L 240.345 293.643586 
L 241.74 293.509447 
L 243.135 293.610052 
L 244.53 293.408843 
L 248.715 290.524851 
L 250.11 288.881646 
L 251.505 283.616683 
L 252.9 252.898812 
L 254.295 179.390545 
L 255.69 128.685937 
L 257.085 111.98561 
L 258.48 140.45665 
L 259.875 233.549236 
L 262.665 256.822383 
L 264.06 241.027495 
L 265.455 218.357975 
L 266.85 227.915391 
L 268.245 251.322677 
L 269.64 266.882821 
L 271.035 277.245072 
L 272.43 278.653534 
L 273.825 276.272563 
L 275.22 271.410018 
L 276.615 278.552929 
L 278.01 278.41879 
L 279.405 280.263204 
L 280.8 279.927856 
L 282.195 281.906409 
L 283.59 280.263204 
L 284.985 282.174687 
L 286.38 285.192818 
L 287.775 285.561701 
L 289.17 281.336317 
L 290.565 282.878918 
L 291.96 283.784357 
L 293.355 285.595236 
L 294.75 284.555657 
L 296.145 279.626043 
L 297.54 276.406703 
L 298.935 274.159871 
L 300.33 271.678297 
L 301.725 276.205494 
L 303.12 275.601867 
L 304.515 277.379212 
L 305.91 275.434194 
L 307.305 262.221485 
L 308.7 265.306686 
L 310.095 272.147784 
L 311.49 273.992197 
L 312.885 277.714559 
L 314.28 288.278019 
L 315.675 289.518807 
L 317.07 291.463825 
L 318.465 292.033916 
L 319.86 292.235125 
L 321.255 292.738147 
L 322.65 292.033916 
L 324.045 291.49736 
L 325.44 289.418202 
L 326.835 291.262616 
L 328.23 293.542982 
L 329.625 294.180143 
L 331.02 293.978934 
L 333.81 294.64963 
L 335.205 294.347817 
L 336.6 294.280747 
L 337.995 294.616095 
L 339.39 294.381352 
L 340.785 294.414887 
L 342.18 294.146608 
L 343.575 294.314282 
L 346.365 294.381352 
L 347.76 294.750235 
L 350.55 294.448421 
L 351.945 294.7167 
L 353.34 294.64963 
L 354.735 294.213678 
L 356.13 294.549026 
L 357.525 294.7167 
L 360.315 294.549026 
L 361.71 294.750235 
L 365.895 294.515491 
L 368.685 294.7167 
L 370.08 294.582561 
L 371.475 294.884374 
L 372.87 294.884374 
L 374.265 295.052048 
L 375.66 295.018513 
L 377.055 295.286791 
L 378.45 295.42093 
L 379.845 295.286791 
L 382.635 295.42093 
L 384.03 295.320326 
L 392.4 295.454465 
L 397.98 295.42093 
L 402.165 295.454465 
L 403.56 295.353861 
L 407.745 295.488 
L 413.325 295.454465 
L 413.325 295.454465 
" clip-path="url(#pfff4af7a16)" style="fill: none; stroke: #008000; stroke-width: 1.5; stroke-linecap: square"/>
   </g>
   <g id="line2d_17">
    <path d="M 57.6 295.488 
L 71.55 295.387396 
L 72.945 295.219722 
L 74.34 295.219722 
L 75.735 295.052048 
L 77.13 294.616095 
L 78.525 294.448421 
L 79.92 293.978934 
L 84.105 290.793129 
L 85.5 290.927268 
L 88.29 289.652946 
L 89.685 290.424246 
L 91.08 290.357177 
L 92.475 289.988294 
L 93.87 290.088898 
L 96.66 289.418202 
L 98.055 289.887689 
L 99.45 287.540254 
L 100.845 286.802488 
L 102.24 286.735419 
L 103.635 285.293423 
L 105.03 284.689797 
L 106.425 285.192818 
L 107.82 283.348405 
L 109.215 282.54357 
L 110.61 283.717287 
L 112.005 283.281335 
L 114.795 285.628771 
L 116.19 284.354449 
L 117.585 285.76291 
L 118.98 285.226353 
L 120.375 286.836023 
L 121.77 287.573789 
L 123.165 289.351133 
L 124.56 289.284063 
L 125.955 289.351133 
L 127.35 289.552342 
L 128.745 290.055363 
L 130.14 290.994338 
L 131.535 290.65899 
L 132.93 290.726059 
L 135.72 291.765638 
L 137.115 291.463825 
L 138.51 291.832708 
L 139.905 291.698568 
L 141.3 292.26866 
L 142.695 292.302195 
L 144.09 292.805217 
L 145.485 291.899777 
L 146.88 292.637543 
L 148.275 291.966847 
L 149.67 292.536938 
L 152.46 291.765638 
L 153.855 292.872286 
L 155.25 292.671077 
L 156.645 292.704612 
L 158.04 293.006425 
L 159.435 293.442378 
L 160.83 293.341773 
L 162.225 292.939356 
L 163.62 293.03996 
L 165.015 293.341773 
L 166.41 293.911865 
L 167.805 293.744191 
L 169.2 294.314282 
L 170.595 294.280747 
L 171.99 293.9454 
L 173.385 294.515491 
L 176.175 294.247213 
L 177.57 294.414887 
L 178.965 294.113073 
L 180.36 294.146608 
L 181.755 294.582561 
L 183.15 294.213678 
L 184.545 293.978934 
L 185.94 294.347817 
L 188.73 294.414887 
L 190.125 294.515491 
L 191.52 294.247213 
L 192.915 294.113073 
L 194.31 294.146608 
L 195.705 294.381352 
L 197.1 294.314282 
L 198.495 294.515491 
L 199.89 294.180143 
L 201.285 294.515491 
L 204.075 294.280747 
L 205.47 294.549026 
L 208.26 294.079539 
L 209.655 294.448421 
L 213.84 294.381352 
L 215.235 294.616095 
L 216.63 294.549026 
L 218.025 294.146608 
L 220.815 294.247213 
L 223.605 293.81126 
L 226.395 294.347817 
L 227.79 293.777726 
L 229.185 293.710656 
L 230.58 294.046004 
L 231.975 293.576517 
L 234.765 293.744191 
L 236.16 293.9454 
L 237.555 293.844795 
L 238.95 294.079539 
L 240.345 293.844795 
L 241.74 294.146608 
L 243.135 293.777726 
L 245.925 294.046004 
L 247.32 293.911865 
L 248.715 294.146608 
L 250.11 294.213678 
L 251.505 294.046004 
L 252.9 294.180143 
L 255.69 294.146608 
L 257.085 293.744191 
L 258.48 294.146608 
L 259.875 293.475912 
L 261.27 294.180143 
L 262.665 293.677121 
L 264.06 294.046004 
L 265.455 294.180143 
L 266.85 293.744191 
L 268.245 293.777726 
L 271.035 293.542982 
L 272.43 294.113073 
L 273.825 293.710656 
L 275.22 293.710656 
L 276.615 294.146608 
L 278.01 294.079539 
L 279.405 293.442378 
L 280.8 293.87833 
L 282.195 293.9454 
L 283.59 293.87833 
L 284.985 293.978934 
L 286.38 293.81126 
L 287.775 294.247213 
L 289.17 293.710656 
L 290.565 294.012469 
L 293.355 293.610052 
L 294.75 294.046004 
L 296.145 293.241169 
L 297.54 293.442378 
L 298.935 293.81126 
L 300.33 293.140564 
L 301.725 293.207634 
L 303.12 293.006425 
L 304.515 292.469869 
L 305.91 293.006425 
L 307.305 292.771682 
L 308.7 292.20159 
L 310.095 292.604008 
L 311.49 291.866242 
L 312.885 291.866242 
L 314.28 291.49736 
L 315.675 292.000381 
L 318.465 290.357177 
L 319.86 290.357177 
L 321.255 289.518807 
L 322.65 287.43965 
L 324.045 286.031188 
L 325.44 282.744778 
L 326.835 270.437509 
L 328.23 233.247423 
L 329.625 157.089907 
L 331.02 58.497615 
L 332.415 53.568 
L 333.81 190.054609 
L 335.205 194.548272 
L 336.6 184.286625 
L 339.39 208.498746 
L 340.785 209.806603 
L 342.18 200.416861 
L 343.575 214.635613 
L 344.97 242.6707 
L 346.365 265.642034 
L 347.76 274.327545 
L 349.155 285.76291 
L 350.55 290.65899 
L 351.945 292.704612 
L 353.34 293.643586 
L 354.735 293.677121 
L 356.13 294.146608 
L 357.525 294.213678 
L 358.92 294.515491 
L 360.315 294.64963 
L 363.105 294.616095 
L 364.5 294.683165 
L 365.895 294.481956 
L 370.08 294.984978 
L 371.475 294.750235 
L 372.87 294.984978 
L 374.265 294.750235 
L 378.45 294.951443 
L 379.845 294.783769 
L 381.24 294.951443 
L 382.635 294.817304 
L 385.425 295.152652 
L 388.215 294.884374 
L 389.61 295.186187 
L 391.005 294.984978 
L 392.4 294.917909 
L 393.795 295.152652 
L 395.19 295.219722 
L 396.585 295.119117 
L 399.375 295.219722 
L 400.77 295.387396 
L 402.165 295.320326 
L 406.35 295.488 
L 407.745 295.387396 
L 410.535 295.488 
L 411.93 295.454465 
L 413.325 295.286791 
L 413.325 295.286791 
" clip-path="url(#pfff4af7a16)" style="fill: none; stroke: #0000ff; stroke-width: 1.5; stroke-linecap: square"/>
   </g>
   <g id="patch_3">
    <path d="M 57.6 307.584 
L 57.6 41.472 
" style="fill: none; stroke: #000000; stroke-width: 0.8; stroke-linejoin: miter; stroke-linecap: square"/>
   </g>
   <g id="patch_4">
    <path d="M 414.72 307.584 
L 414.72 41.472 
" style="fill: none; stroke: #000000; stroke-width: 0.8; stroke-linejoin: miter; stroke-linecap: square"/>
   </g>
   <g id="patch_5">
    <path d="M 57.6 307.584 
L 414.72 307.584 
" style="fill: none; stroke: #000000; stroke-width: 0.8; stroke-linejoin: miter; stroke-linecap: square"/>
   </g>
   <g id="patch_6">
    <path d="M 57.6 41.472 
L 414.72 41.472 
" style="fill: none; stroke: #000000; stroke-width: 0.8; stroke-linejoin: miter; stroke-linecap: square"/>
   </g>
  </g>
 </g>
 <defs>
  <clipPath id="pfff4af7a16">
   <rect x="57.6" y="41.472" width="357.12" height="266.112"/>
  </clipPath>
 </defs>
</svg>
