<?xml version="1.0" encoding="UTF-8" standalone="no"?>
<!DOCTYPE svg PUBLIC "-//W3C//DTD SVG 1.1//EN"
 "http://www.w3.org/Graphics/SVG/1.1/DTD/svg11.dtd">
<!-- Generated by graphviz version 2.43.0 (0)
 -->
<!-- Title: %3 Pages: 1 -->
<svg width="487pt" height="600pt"
 viewBox="0.00 0.00 487.00 600.00" xmlns="http://www.w3.org/2000/svg" xmlns:xlink="http://www.w3.org/1999/xlink">
<g id="graph0" class="graph" transform="scale(1 1) rotate(0) translate(4 596)">
<title>%3</title>
<polygon fill="white" stroke="transparent" points="-4,4 -4,-596 483,-596 483,4 -4,4"/>
<!-- 123849335613264 -->
<g id="node1" class="node">
<title>123849335613264</title>
<polygon fill="#caff70" stroke="black" points="244,-31 185,-31 185,0 244,0 244,-31"/>
<text text-anchor="middle" x="214.5" y="-7" font-family="monospace" font-size="10.00"> (1, 1)</text>
</g>
<!-- 123849335259088 -->
<g id="node2" class="node">
<title>123849335259088</title>
<polygon fill="lightgrey" stroke="black" points="271,-86 158,-86 158,-67 271,-67 271,-86"/>
<text text-anchor="middle" x="214.5" y="-74" font-family="monospace" font-size="10.00">SigmoidBackward0</text>
</g>
<!-- 123849335259088&#45;&gt;123849335613264 -->
<g id="edge21" class="edge">
<title>123849335259088&#45;&gt;123849335613264</title>
<path fill="none" stroke="black" d="M214.5,-66.79C214.5,-60.07 214.5,-50.4 214.5,-41.34"/>
<polygon fill="black" stroke="black" points="218,-41.19 214.5,-31.19 211,-41.19 218,-41.19"/>
</g>
<!-- 123849335538160 -->
<g id="node3" class="node">
<title>123849335538160</title>
<polygon fill="lightgrey" stroke="black" points="265,-141 164,-141 164,-122 265,-122 265,-141"/>
<text text-anchor="middle" x="214.5" y="-129" font-family="monospace" font-size="10.00">AddmmBackward0</text>
</g>
<!-- 123849335538160&#45;&gt;123849335259088 -->
<g id="edge1" class="edge">
<title>123849335538160&#45;&gt;123849335259088</title>
<path fill="none" stroke="black" d="M214.5,-121.75C214.5,-114.8 214.5,-104.85 214.5,-96.13"/>
<polygon fill="black" stroke="black" points="218,-96.09 214.5,-86.09 211,-96.09 218,-96.09"/>
</g>
<!-- 123849335538208 -->
<g id="node4" class="node">
<title>123849335538208</title>
<polygon fill="lightgrey" stroke="black" points="143,-196 42,-196 42,-177 143,-177 143,-196"/>
<text text-anchor="middle" x="92.5" y="-184" font-family="monospace" font-size="10.00">AccumulateGrad</text>
</g>
<!-- 123849335538208&#45;&gt;123849335538160 -->
<g id="edge2" class="edge">
<title>123849335538208&#45;&gt;123849335538160</title>
<path fill="none" stroke="black" d="M112.1,-176.98C131.82,-168.42 162.45,-155.11 185.08,-145.28"/>
<polygon fill="black" stroke="black" points="186.76,-148.37 194.54,-141.17 183.98,-141.94 186.76,-148.37"/>
</g>
<!-- 123849335612784 -->
<g id="node5" class="node">
<title>123849335612784</title>
<polygon fill="lightblue" stroke="black" points="146,-262 27,-262 27,-232 146,-232 146,-262"/>
<text text-anchor="middle" x="86.5" y="-250" font-family="monospace" font-size="10.00">sequential.4.bias</text>
<text text-anchor="middle" x="86.5" y="-239" font-family="monospace" font-size="10.00"> (1)</text>
</g>
<!-- 123849335612784&#45;&gt;123849335538208 -->
<g id="edge3" class="edge">
<title>123849335612784&#45;&gt;123849335538208</title>
<path fill="none" stroke="black" d="M87.95,-231.84C88.73,-224.21 89.71,-214.7 90.56,-206.45"/>
<polygon fill="black" stroke="black" points="94.06,-206.57 91.6,-196.27 87.1,-205.86 94.06,-206.57"/>
</g>
<!-- 123849335537728 -->
<g id="node6" class="node">
<title>123849335537728</title>
<polygon fill="lightgrey" stroke="black" points="262,-196 167,-196 167,-177 262,-177 262,-196"/>
<text text-anchor="middle" x="214.5" y="-184" font-family="monospace" font-size="10.00">ReluBackward0</text>
</g>
<!-- 123849335537728&#45;&gt;123849335538160 -->
<g id="edge4" class="edge">
<title>123849335537728&#45;&gt;123849335538160</title>
<path fill="none" stroke="black" d="M214.5,-176.75C214.5,-169.8 214.5,-159.85 214.5,-151.13"/>
<polygon fill="black" stroke="black" points="218,-151.09 214.5,-141.09 211,-151.09 218,-151.09"/>
</g>
<!-- 123849335538256 -->
<g id="node7" class="node">
<title>123849335538256</title>
<polygon fill="lightgrey" stroke="black" points="265,-256.5 164,-256.5 164,-237.5 265,-237.5 265,-256.5"/>
<text text-anchor="middle" x="214.5" y="-244.5" font-family="monospace" font-size="10.00">AddmmBackward0</text>
</g>
<!-- 123849335538256&#45;&gt;123849335537728 -->
<g id="edge5" class="edge">
<title>123849335538256&#45;&gt;123849335537728</title>
<path fill="none" stroke="black" d="M214.5,-237.37C214.5,-229.25 214.5,-216.81 214.5,-206.39"/>
<polygon fill="black" stroke="black" points="218,-206.17 214.5,-196.17 211,-206.17 218,-206.17"/>
</g>
<!-- 123849335538448 -->
<g id="node8" class="node">
<title>123849335538448</title>
<polygon fill="lightgrey" stroke="black" points="116,-322.5 15,-322.5 15,-303.5 116,-303.5 116,-322.5"/>
<text text-anchor="middle" x="65.5" y="-310.5" font-family="monospace" font-size="10.00">AccumulateGrad</text>
</g>
<!-- 123849335538448&#45;&gt;123849335538256 -->
<g id="edge6" class="edge">
<title>123849335538448&#45;&gt;123849335538256</title>
<path fill="none" stroke="black" d="M85.59,-303.37C111.14,-292.39 155.46,-273.36 184.89,-260.72"/>
<polygon fill="black" stroke="black" points="186.44,-263.86 194.25,-256.7 183.68,-257.43 186.44,-263.86"/>
</g>
<!-- 123849335612592 -->
<g id="node9" class="node">
<title>123849335612592</title>
<polygon fill="lightblue" stroke="black" points="119,-394 0,-394 0,-364 119,-364 119,-394"/>
<text text-anchor="middle" x="59.5" y="-382" font-family="monospace" font-size="10.00">sequential.2.bias</text>
<text text-anchor="middle" x="59.5" y="-371" font-family="monospace" font-size="10.00"> (16)</text>
</g>
<!-- 123849335612592&#45;&gt;123849335538448 -->
<g id="edge7" class="edge">
<title>123849335612592&#45;&gt;123849335538448</title>
<path fill="none" stroke="black" d="M60.83,-363.8C61.68,-354.7 62.8,-342.79 63.73,-332.9"/>
<polygon fill="black" stroke="black" points="67.22,-333.13 64.67,-322.84 60.25,-332.47 67.22,-333.13"/>
</g>
<!-- 123849335538400 -->
<g id="node10" class="node">
<title>123849335538400</title>
<polygon fill="lightgrey" stroke="black" points="235,-322.5 140,-322.5 140,-303.5 235,-303.5 235,-322.5"/>
<text text-anchor="middle" x="187.5" y="-310.5" font-family="monospace" font-size="10.00">ReluBackward0</text>
</g>
<!-- 123849335538400&#45;&gt;123849335538256 -->
<g id="edge8" class="edge">
<title>123849335538400&#45;&gt;123849335538256</title>
<path fill="none" stroke="black" d="M191.14,-303.37C195.14,-293.88 201.69,-278.36 206.84,-266.16"/>
<polygon fill="black" stroke="black" points="210.08,-267.48 210.74,-256.91 203.63,-264.76 210.08,-267.48"/>
</g>
<!-- 123849335538544 -->
<g id="node11" class="node">
<title>123849335538544</title>
<polygon fill="lightgrey" stroke="black" points="238,-388.5 137,-388.5 137,-369.5 238,-369.5 238,-388.5"/>
<text text-anchor="middle" x="187.5" y="-376.5" font-family="monospace" font-size="10.00">AddmmBackward0</text>
</g>
<!-- 123849335538544&#45;&gt;123849335538400 -->
<g id="edge9" class="edge">
<title>123849335538544&#45;&gt;123849335538400</title>
<path fill="none" stroke="black" d="M187.5,-369.37C187.5,-360.16 187.5,-345.29 187.5,-333.27"/>
<polygon fill="black" stroke="black" points="191,-332.91 187.5,-322.91 184,-332.91 191,-332.91"/>
</g>
<!-- 123849335538736 -->
<g id="node12" class="node">
<title>123849335538736</title>
<polygon fill="lightgrey" stroke="black" points="121,-454.5 20,-454.5 20,-435.5 121,-435.5 121,-454.5"/>
<text text-anchor="middle" x="70.5" y="-442.5" font-family="monospace" font-size="10.00">AccumulateGrad</text>
</g>
<!-- 123849335538736&#45;&gt;123849335538544 -->
<g id="edge10" class="edge">
<title>123849335538736&#45;&gt;123849335538544</title>
<path fill="none" stroke="black" d="M86.28,-435.37C105.91,-424.63 139.64,-406.18 162.73,-393.55"/>
<polygon fill="black" stroke="black" points="164.5,-396.57 171.6,-388.7 161.14,-390.43 164.5,-396.57"/>
</g>
<!-- 123849335612400 -->
<g id="node13" class="node">
<title>123849335612400</title>
<polygon fill="lightblue" stroke="black" points="125,-526 6,-526 6,-496 125,-496 125,-526"/>
<text text-anchor="middle" x="65.5" y="-514" font-family="monospace" font-size="10.00">sequential.0.bias</text>
<text text-anchor="middle" x="65.5" y="-503" font-family="monospace" font-size="10.00"> (16)</text>
</g>
<!-- 123849335612400&#45;&gt;123849335538736 -->
<g id="edge11" class="edge">
<title>123849335612400&#45;&gt;123849335538736</title>
<path fill="none" stroke="black" d="M66.61,-495.8C67.32,-486.7 68.25,-474.79 69.02,-464.9"/>
<polygon fill="black" stroke="black" points="72.52,-465.09 69.81,-454.84 65.54,-464.54 72.52,-465.09"/>
</g>
<!-- 123849335538688 -->
<g id="node14" class="node">
<title>123849335538688</title>
<polygon fill="lightgrey" stroke="black" points="226,-454.5 149,-454.5 149,-435.5 226,-435.5 226,-454.5"/>
<text text-anchor="middle" x="187.5" y="-442.5" font-family="monospace" font-size="10.00">TBackward0</text>
</g>
<!-- 123849335538688&#45;&gt;123849335538544 -->
<g id="edge12" class="edge">
<title>123849335538688&#45;&gt;123849335538544</title>
<path fill="none" stroke="black" d="M187.5,-435.37C187.5,-426.16 187.5,-411.29 187.5,-399.27"/>
<polygon fill="black" stroke="black" points="191,-398.91 187.5,-388.91 184,-398.91 191,-398.91"/>
</g>
<!-- 123849335538784 -->
<g id="node15" class="node">
<title>123849335538784</title>
<polygon fill="lightgrey" stroke="black" points="244,-520.5 143,-520.5 143,-501.5 244,-501.5 244,-520.5"/>
<text text-anchor="middle" x="193.5" y="-508.5" font-family="monospace" font-size="10.00">AccumulateGrad</text>
</g>
<!-- 123849335538784&#45;&gt;123849335538688 -->
<g id="edge13" class="edge">
<title>123849335538784&#45;&gt;123849335538688</title>
<path fill="none" stroke="black" d="M192.69,-501.37C191.82,-492.07 190.4,-476.98 189.27,-464.9"/>
<polygon fill="black" stroke="black" points="192.75,-464.53 188.33,-454.91 185.78,-465.19 192.75,-464.53"/>
</g>
<!-- 123849335612304 -->
<g id="node16" class="node">
<title>123849335612304</title>
<polygon fill="lightblue" stroke="black" points="259,-592 128,-592 128,-562 259,-562 259,-592"/>
<text text-anchor="middle" x="193.5" y="-580" font-family="monospace" font-size="10.00">sequential.0.weight</text>
<text text-anchor="middle" x="193.5" y="-569" font-family="monospace" font-size="10.00"> (16, 10)</text>
</g>
<!-- 123849335612304&#45;&gt;123849335538784 -->
<g id="edge14" class="edge">
<title>123849335612304&#45;&gt;123849335538784</title>
<path fill="none" stroke="black" d="M193.5,-561.8C193.5,-552.7 193.5,-540.79 193.5,-530.9"/>
<polygon fill="black" stroke="black" points="197,-530.84 193.5,-520.84 190,-530.84 197,-530.84"/>
</g>
<!-- 123849335538352 -->
<g id="node17" class="node">
<title>123849335538352</title>
<polygon fill="lightgrey" stroke="black" points="330,-322.5 253,-322.5 253,-303.5 330,-303.5 330,-322.5"/>
<text text-anchor="middle" x="291.5" y="-310.5" font-family="monospace" font-size="10.00">TBackward0</text>
</g>
<!-- 123849335538352&#45;&gt;123849335538256 -->
<g id="edge15" class="edge">
<title>123849335538352&#45;&gt;123849335538256</title>
<path fill="none" stroke="black" d="M281.12,-303.37C268.78,-293.12 247.99,-275.84 232.91,-263.31"/>
<polygon fill="black" stroke="black" points="235.14,-260.61 225.21,-256.91 230.67,-265.99 235.14,-260.61"/>
</g>
<!-- 123849335538832 -->
<g id="node18" class="node">
<title>123849335538832</title>
<polygon fill="lightgrey" stroke="black" points="358,-388.5 257,-388.5 257,-369.5 358,-369.5 358,-388.5"/>
<text text-anchor="middle" x="307.5" y="-376.5" font-family="monospace" font-size="10.00">AccumulateGrad</text>
</g>
<!-- 123849335538832&#45;&gt;123849335538352 -->
<g id="edge16" class="edge">
<title>123849335538832&#45;&gt;123849335538352</title>
<path fill="none" stroke="black" d="M305.34,-369.37C303.02,-360.07 299.24,-344.98 296.22,-332.9"/>
<polygon fill="black" stroke="black" points="299.55,-331.76 293.73,-322.91 292.76,-333.46 299.55,-331.76"/>
</g>
<!-- 123849335612496 -->
<g id="node19" class="node">
<title>123849335612496</title>
<polygon fill="lightblue" stroke="black" points="375,-460 244,-460 244,-430 375,-430 375,-460"/>
<text text-anchor="middle" x="309.5" y="-448" font-family="monospace" font-size="10.00">sequential.2.weight</text>
<text text-anchor="middle" x="309.5" y="-437" font-family="monospace" font-size="10.00"> (16, 16)</text>
</g>
<!-- 123849335612496&#45;&gt;123849335538832 -->
<g id="edge17" class="edge">
<title>123849335612496&#45;&gt;123849335538832</title>
<path fill="none" stroke="black" d="M309.06,-429.8C308.77,-420.7 308.4,-408.79 308.09,-398.9"/>
<polygon fill="black" stroke="black" points="311.59,-398.73 307.78,-388.84 304.59,-398.95 311.59,-398.73"/>
</g>
<!-- 123849335538016 -->
<g id="node20" class="node">
<title>123849335538016</title>
<polygon fill="lightgrey" stroke="black" points="391,-196 314,-196 314,-177 391,-177 391,-196"/>
<text text-anchor="middle" x="352.5" y="-184" font-family="monospace" font-size="10.00">TBackward0</text>
</g>
<!-- 123849335538016&#45;&gt;123849335538160 -->
<g id="edge18" class="edge">
<title>123849335538016&#45;&gt;123849335538160</title>
<path fill="none" stroke="black" d="M330.33,-176.98C307.73,-168.3 272.44,-154.75 246.75,-144.88"/>
<polygon fill="black" stroke="black" points="247.67,-141.49 237.08,-141.17 245.16,-148.02 247.67,-141.49"/>
</g>
<!-- 123849335538640 -->
<g id="node21" class="node">
<title>123849335538640</title>
<polygon fill="lightgrey" stroke="black" points="437,-256.5 336,-256.5 336,-237.5 437,-237.5 437,-256.5"/>
<text text-anchor="middle" x="386.5" y="-244.5" font-family="monospace" font-size="10.00">AccumulateGrad</text>
</g>
<!-- 123849335538640&#45;&gt;123849335538016 -->
<g id="edge19" class="edge">
<title>123849335538640&#45;&gt;123849335538016</title>
<path fill="none" stroke="black" d="M381.48,-237.37C376.56,-228.9 368.91,-215.74 362.71,-205.07"/>
<polygon fill="black" stroke="black" points="365.59,-203.05 357.54,-196.17 359.54,-206.57 365.59,-203.05"/>
</g>
<!-- 123849335612688 -->
<g id="node22" class="node">
<title>123849335612688</title>
<polygon fill="lightblue" stroke="black" points="479,-328 348,-328 348,-298 479,-298 479,-328"/>
<text text-anchor="middle" x="413.5" y="-316" font-family="monospace" font-size="10.00">sequential.4.weight</text>
<text text-anchor="middle" x="413.5" y="-305" font-family="monospace" font-size="10.00"> (1, 16)</text>
</g>
<!-- 123849335612688&#45;&gt;123849335538640 -->
<g id="edge20" class="edge">
<title>123849335612688&#45;&gt;123849335538640</title>
<path fill="none" stroke="black" d="M407.51,-297.8C403.59,-288.5 398.43,-276.27 394.2,-266.26"/>
<polygon fill="black" stroke="black" points="397.34,-264.7 390.23,-256.84 390.89,-267.42 397.34,-264.7"/>
</g>
</g>
</svg>
