<?xml version="1.0" encoding="utf-8" standalone="no"?>
<!DOCTYPE svg PUBLIC "-//W3C//DTD SVG 1.1//EN"
  "http://www.w3.org/Graphics/SVG/1.1/DTD/svg11.dtd">
<svg xmlns:xlink="http://www.w3.org/1999/xlink" width="460.8pt" height="345.6pt" viewBox="0 0 460.8 345.6" xmlns="http://www.w3.org/2000/svg" version="1.1">
 <metadata>
  <rdf:RDF xmlns:dc="http://purl.org/dc/elements/1.1/" xmlns:cc="http://creativecommons.org/ns#" xmlns:rdf="http://www.w3.org/1999/02/22-rdf-syntax-ns#">
   <cc:Work>
    <dc:type rdf:resource="http://purl.org/dc/dcmitype/StillImage"/>
    <dc:date>2024-08-18T21:08:29.882377</dc:date>
    <dc:format>image/svg+xml</dc:format>
    <dc:creator>
     <cc:Agent>
      <dc:title>Matplotlib v3.8.3, https://matplotlib.org/</dc:title>
     </cc:Agent>
    </dc:creator>
   </cc:Work>
  </rdf:RDF>
 </metadata>
 <defs>
  <style type="text/css">*{stroke-linejoin: round; stroke-linecap: butt}</style>
 </defs>
 <g id="figure_1">
  <g id="patch_1">
   <path d="M 0 345.6 
L 460.8 345.6 
L 460.8 0 
L 0 0 
z
" style="fill: #ffffff"/>
  </g>
  <g id="axes_1">
   <g id="patch_2">
    <path d="M 57.6 307.584 
L 414.72 307.584 
L 414.72 41.472 
L 57.6 41.472 
z
" style="fill: #ffffff"/>
   </g>
   <g id="matplotlib.axis_1">
    <g id="xtick_1">
     <g id="line2d_1">
      <defs>
       <path id="m41edc3d7ad" d="M 0 0 
L 0 3.5 
" style="stroke: #000000; stroke-width: 0.8"/>
      </defs>
      <g>
       <use xlink:href="#m41edc3d7ad" x="73.507748" y="307.584" style="stroke: #000000; stroke-width: 0.8"/>
      </g>
     </g>
     <g id="text_1">
      <!-- 0 -->
      <g transform="translate(70.326498 322.182437) scale(0.1 -0.1)">
       <defs>
        <path id="DejaVuSans-30" d="M 2034 4250 
Q 1547 4250 1301 3770 
Q 1056 3291 1056 2328 
Q 1056 1369 1301 889 
Q 1547 409 2034 409 
Q 2525 409 2770 889 
Q 3016 1369 3016 2328 
Q 3016 3291 2770 3770 
Q 2525 4250 2034 4250 
z
M 2034 4750 
Q 2819 4750 3233 4129 
Q 3647 3509 3647 2328 
Q 3647 1150 3233 529 
Q 2819 -91 2034 -91 
Q 1250 -91 836 529 
Q 422 1150 422 2328 
Q 422 3509 836 4129 
Q 1250 4750 2034 4750 
z
" transform="scale(0.015625)"/>
       </defs>
       <use xlink:href="#DejaVuSans-30"/>
      </g>
     </g>
    </g>
    <g id="xtick_2">
     <g id="line2d_2">
      <g>
       <use xlink:href="#m41edc3d7ad" x="138.503653" y="307.584" style="stroke: #000000; stroke-width: 0.8"/>
      </g>
     </g>
     <g id="text_2">
      <!-- 200 -->
      <g transform="translate(128.959903 322.182437) scale(0.1 -0.1)">
       <defs>
        <path id="DejaVuSans-32" d="M 1228 531 
L 3431 531 
L 3431 0 
L 469 0 
L 469 531 
Q 828 903 1448 1529 
Q 2069 2156 2228 2338 
Q 2531 2678 2651 2914 
Q 2772 3150 2772 3378 
Q 2772 3750 2511 3984 
Q 2250 4219 1831 4219 
Q 1534 4219 1204 4116 
Q 875 4013 500 3803 
L 500 4441 
Q 881 4594 1212 4672 
Q 1544 4750 1819 4750 
Q 2544 4750 2975 4387 
Q 3406 4025 3406 3419 
Q 3406 3131 3298 2873 
Q 3191 2616 2906 2266 
Q 2828 2175 2409 1742 
Q 1991 1309 1228 531 
z
" transform="scale(0.015625)"/>
       </defs>
       <use xlink:href="#DejaVuSans-32"/>
       <use xlink:href="#DejaVuSans-30" x="63.623047"/>
       <use xlink:href="#DejaVuSans-30" x="127.246094"/>
      </g>
     </g>
    </g>
    <g id="xtick_3">
     <g id="line2d_3">
      <g>
       <use xlink:href="#m41edc3d7ad" x="203.499558" y="307.584" style="stroke: #000000; stroke-width: 0.8"/>
      </g>
     </g>
     <g id="text_3">
      <!-- 400 -->
      <g transform="translate(193.955808 322.182437) scale(0.1 -0.1)">
       <defs>
        <path id="DejaVuSans-34" d="M 2419 4116 
L 825 1625 
L 2419 1625 
L 2419 4116 
z
M 2253 4666 
L 3047 4666 
L 3047 1625 
L 3713 1625 
L 3713 1100 
L 3047 1100 
L 3047 0 
L 2419 0 
L 2419 1100 
L 313 1100 
L 313 1709 
L 2253 4666 
z
" transform="scale(0.015625)"/>
       </defs>
       <use xlink:href="#DejaVuSans-34"/>
       <use xlink:href="#DejaVuSans-30" x="63.623047"/>
       <use xlink:href="#DejaVuSans-30" x="127.246094"/>
      </g>
     </g>
    </g>
    <g id="xtick_4">
     <g id="line2d_4">
      <g>
       <use xlink:href="#m41edc3d7ad" x="268.495463" y="307.584" style="stroke: #000000; stroke-width: 0.8"/>
      </g>
     </g>
     <g id="text_4">
      <!-- 600 -->
      <g transform="translate(258.951713 322.182437) scale(0.1 -0.1)">
       <defs>
        <path id="DejaVuSans-36" d="M 2113 2584 
Q 1688 2584 1439 2293 
Q 1191 2003 1191 1497 
Q 1191 994 1439 701 
Q 1688 409 2113 409 
Q 2538 409 2786 701 
Q 3034 994 3034 1497 
Q 3034 2003 2786 2293 
Q 2538 2584 2113 2584 
z
M 3366 4563 
L 3366 3988 
Q 3128 4100 2886 4159 
Q 2644 4219 2406 4219 
Q 1781 4219 1451 3797 
Q 1122 3375 1075 2522 
Q 1259 2794 1537 2939 
Q 1816 3084 2150 3084 
Q 2853 3084 3261 2657 
Q 3669 2231 3669 1497 
Q 3669 778 3244 343 
Q 2819 -91 2113 -91 
Q 1303 -91 875 529 
Q 447 1150 447 2328 
Q 447 3434 972 4092 
Q 1497 4750 2381 4750 
Q 2619 4750 2861 4703 
Q 3103 4656 3366 4563 
z
" transform="scale(0.015625)"/>
       </defs>
       <use xlink:href="#DejaVuSans-36"/>
       <use xlink:href="#DejaVuSans-30" x="63.623047"/>
       <use xlink:href="#DejaVuSans-30" x="127.246094"/>
      </g>
     </g>
    </g>
    <g id="xtick_5">
     <g id="line2d_5">
      <g>
       <use xlink:href="#m41edc3d7ad" x="333.491368" y="307.584" style="stroke: #000000; stroke-width: 0.8"/>
      </g>
     </g>
     <g id="text_5">
      <!-- 800 -->
      <g transform="translate(323.947618 322.182437) scale(0.1 -0.1)">
       <defs>
        <path id="DejaVuSans-38" d="M 2034 2216 
Q 1584 2216 1326 1975 
Q 1069 1734 1069 1313 
Q 1069 891 1326 650 
Q 1584 409 2034 409 
Q 2484 409 2743 651 
Q 3003 894 3003 1313 
Q 3003 1734 2745 1975 
Q 2488 2216 2034 2216 
z
M 1403 2484 
Q 997 2584 770 2862 
Q 544 3141 544 3541 
Q 544 4100 942 4425 
Q 1341 4750 2034 4750 
Q 2731 4750 3128 4425 
Q 3525 4100 3525 3541 
Q 3525 3141 3298 2862 
Q 3072 2584 2669 2484 
Q 3125 2378 3379 2068 
Q 3634 1759 3634 1313 
Q 3634 634 3220 271 
Q 2806 -91 2034 -91 
Q 1263 -91 848 271 
Q 434 634 434 1313 
Q 434 1759 690 2068 
Q 947 2378 1403 2484 
z
M 1172 3481 
Q 1172 3119 1398 2916 
Q 1625 2713 2034 2713 
Q 2441 2713 2670 2916 
Q 2900 3119 2900 3481 
Q 2900 3844 2670 4047 
Q 2441 4250 2034 4250 
Q 1625 4250 1398 4047 
Q 1172 3844 1172 3481 
z
" transform="scale(0.015625)"/>
       </defs>
       <use xlink:href="#DejaVuSans-38"/>
       <use xlink:href="#DejaVuSans-30" x="63.623047"/>
       <use xlink:href="#DejaVuSans-30" x="127.246094"/>
      </g>
     </g>
    </g>
    <g id="xtick_6">
     <g id="line2d_6">
      <g>
       <use xlink:href="#m41edc3d7ad" x="398.487273" y="307.584" style="stroke: #000000; stroke-width: 0.8"/>
      </g>
     </g>
     <g id="text_6">
      <!-- 1000 -->
      <g transform="translate(385.762273 322.182437) scale(0.1 -0.1)">
       <defs>
        <path id="DejaVuSans-31" d="M 794 531 
L 1825 531 
L 1825 4091 
L 703 3866 
L 703 4441 
L 1819 4666 
L 2450 4666 
L 2450 531 
L 3481 531 
L 3481 0 
L 794 0 
L 794 531 
z
" transform="scale(0.015625)"/>
       </defs>
       <use xlink:href="#DejaVuSans-31"/>
       <use xlink:href="#DejaVuSans-30" x="63.623047"/>
       <use xlink:href="#DejaVuSans-30" x="127.246094"/>
       <use xlink:href="#DejaVuSans-30" x="190.869141"/>
      </g>
     </g>
    </g>
    <g id="text_7">
     <!-- Epoch -->
     <g transform="translate(220.849063 335.860562) scale(0.1 -0.1)">
      <defs>
       <path id="DejaVuSans-45" d="M 628 4666 
L 3578 4666 
L 3578 4134 
L 1259 4134 
L 1259 2753 
L 3481 2753 
L 3481 2222 
L 1259 2222 
L 1259 531 
L 3634 531 
L 3634 0 
L 628 0 
L 628 4666 
z
" transform="scale(0.015625)"/>
       <path id="DejaVuSans-70" d="M 1159 525 
L 1159 -1331 
L 581 -1331 
L 581 3500 
L 1159 3500 
L 1159 2969 
Q 1341 3281 1617 3432 
Q 1894 3584 2278 3584 
Q 2916 3584 3314 3078 
Q 3713 2572 3713 1747 
Q 3713 922 3314 415 
Q 2916 -91 2278 -91 
Q 1894 -91 1617 61 
Q 1341 213 1159 525 
z
M 3116 1747 
Q 3116 2381 2855 2742 
Q 2594 3103 2138 3103 
Q 1681 3103 1420 2742 
Q 1159 2381 1159 1747 
Q 1159 1113 1420 752 
Q 1681 391 2138 391 
Q 2594 391 2855 752 
Q 3116 1113 3116 1747 
z
" transform="scale(0.015625)"/>
       <path id="DejaVuSans-6f" d="M 1959 3097 
Q 1497 3097 1228 2736 
Q 959 2375 959 1747 
Q 959 1119 1226 758 
Q 1494 397 1959 397 
Q 2419 397 2687 759 
Q 2956 1122 2956 1747 
Q 2956 2369 2687 2733 
Q 2419 3097 1959 3097 
z
M 1959 3584 
Q 2709 3584 3137 3096 
Q 3566 2609 3566 1747 
Q 3566 888 3137 398 
Q 2709 -91 1959 -91 
Q 1206 -91 779 398 
Q 353 888 353 1747 
Q 353 2609 779 3096 
Q 1206 3584 1959 3584 
z
" transform="scale(0.015625)"/>
       <path id="DejaVuSans-63" d="M 3122 3366 
L 3122 2828 
Q 2878 2963 2633 3030 
Q 2388 3097 2138 3097 
Q 1578 3097 1268 2742 
Q 959 2388 959 1747 
Q 959 1106 1268 751 
Q 1578 397 2138 397 
Q 2388 397 2633 464 
Q 2878 531 3122 666 
L 3122 134 
Q 2881 22 2623 -34 
Q 2366 -91 2075 -91 
Q 1284 -91 818 406 
Q 353 903 353 1747 
Q 353 2603 823 3093 
Q 1294 3584 2113 3584 
Q 2378 3584 2631 3529 
Q 2884 3475 3122 3366 
z
" transform="scale(0.015625)"/>
       <path id="DejaVuSans-68" d="M 3513 2113 
L 3513 0 
L 2938 0 
L 2938 2094 
Q 2938 2591 2744 2837 
Q 2550 3084 2163 3084 
Q 1697 3084 1428 2787 
Q 1159 2491 1159 1978 
L 1159 0 
L 581 0 
L 581 4863 
L 1159 4863 
L 1159 2956 
Q 1366 3272 1645 3428 
Q 1925 3584 2291 3584 
Q 2894 3584 3203 3211 
Q 3513 2838 3513 2113 
z
" transform="scale(0.015625)"/>
      </defs>
      <use xlink:href="#DejaVuSans-45"/>
      <use xlink:href="#DejaVuSans-70" x="63.183594"/>
      <use xlink:href="#DejaVuSans-6f" x="126.660156"/>
      <use xlink:href="#DejaVuSans-63" x="187.841797"/>
      <use xlink:href="#DejaVuSans-68" x="242.822266"/>
     </g>
    </g>
   </g>
   <g id="matplotlib.axis_2">
    <g id="ytick_1">
     <g id="line2d_7">
      <defs>
       <path id="md28383bedc" d="M 0 0 
L -3.5 0 
" style="stroke: #000000; stroke-width: 0.8"/>
      </defs>
      <g>
       <use xlink:href="#md28383bedc" x="57.6" y="298.539037" style="stroke: #000000; stroke-width: 0.8"/>
      </g>
     </g>
     <g id="text_8">
      <!-- 0 -->
      <g transform="translate(44.2375 302.338256) scale(0.1 -0.1)">
       <use xlink:href="#DejaVuSans-30"/>
      </g>
     </g>
    </g>
    <g id="ytick_2">
     <g id="line2d_8">
      <g>
       <use xlink:href="#md28383bedc" x="57.6" y="249.57205" style="stroke: #000000; stroke-width: 0.8"/>
      </g>
     </g>
     <g id="text_9">
      <!-- 1 -->
      <g transform="translate(44.2375 253.371269) scale(0.1 -0.1)">
       <use xlink:href="#DejaVuSans-31"/>
      </g>
     </g>
    </g>
    <g id="ytick_3">
     <g id="line2d_9">
      <g>
       <use xlink:href="#md28383bedc" x="57.6" y="200.605063" style="stroke: #000000; stroke-width: 0.8"/>
      </g>
     </g>
     <g id="text_10">
      <!-- 2 -->
      <g transform="translate(44.2375 204.404282) scale(0.1 -0.1)">
       <use xlink:href="#DejaVuSans-32"/>
      </g>
     </g>
    </g>
    <g id="ytick_4">
     <g id="line2d_10">
      <g>
       <use xlink:href="#md28383bedc" x="57.6" y="151.638076" style="stroke: #000000; stroke-width: 0.8"/>
      </g>
     </g>
     <g id="text_11">
      <!-- 3 -->
      <g transform="translate(44.2375 155.437295) scale(0.1 -0.1)">
       <defs>
        <path id="DejaVuSans-33" d="M 2597 2516 
Q 3050 2419 3304 2112 
Q 3559 1806 3559 1356 
Q 3559 666 3084 287 
Q 2609 -91 1734 -91 
Q 1441 -91 1130 -33 
Q 819 25 488 141 
L 488 750 
Q 750 597 1062 519 
Q 1375 441 1716 441 
Q 2309 441 2620 675 
Q 2931 909 2931 1356 
Q 2931 1769 2642 2001 
Q 2353 2234 1838 2234 
L 1294 2234 
L 1294 2753 
L 1863 2753 
Q 2328 2753 2575 2939 
Q 2822 3125 2822 3475 
Q 2822 3834 2567 4026 
Q 2313 4219 1838 4219 
Q 1578 4219 1281 4162 
Q 984 4106 628 3988 
L 628 4550 
Q 988 4650 1302 4700 
Q 1616 4750 1894 4750 
Q 2613 4750 3031 4423 
Q 3450 4097 3450 3541 
Q 3450 3153 3228 2886 
Q 3006 2619 2597 2516 
z
" transform="scale(0.015625)"/>
       </defs>
       <use xlink:href="#DejaVuSans-33"/>
      </g>
     </g>
    </g>
    <g id="ytick_5">
     <g id="line2d_11">
      <g>
       <use xlink:href="#md28383bedc" x="57.6" y="102.67109" style="stroke: #000000; stroke-width: 0.8"/>
      </g>
     </g>
     <g id="text_12">
      <!-- 4 -->
      <g transform="translate(44.2375 106.470308) scale(0.1 -0.1)">
       <use xlink:href="#DejaVuSans-34"/>
      </g>
     </g>
    </g>
    <g id="ytick_6">
     <g id="line2d_12">
      <g>
       <use xlink:href="#md28383bedc" x="57.6" y="53.704103" style="stroke: #000000; stroke-width: 0.8"/>
      </g>
     </g>
     <g id="text_13">
      <!-- 5 -->
      <g transform="translate(44.2375 57.503322) scale(0.1 -0.1)">
       <defs>
        <path id="DejaVuSans-35" d="M 691 4666 
L 3169 4666 
L 3169 4134 
L 1269 4134 
L 1269 2991 
Q 1406 3038 1543 3061 
Q 1681 3084 1819 3084 
Q 2600 3084 3056 2656 
Q 3513 2228 3513 1497 
Q 3513 744 3044 326 
Q 2575 -91 1722 -91 
Q 1428 -91 1123 -41 
Q 819 9 494 109 
L 494 744 
Q 775 591 1075 516 
Q 1375 441 1709 441 
Q 2250 441 2565 725 
Q 2881 1009 2881 1497 
Q 2881 1984 2565 2268 
Q 2250 2553 1709 2553 
Q 1456 2553 1204 2497 
Q 953 2441 691 2322 
L 691 4666 
z
" transform="scale(0.015625)"/>
       </defs>
       <use xlink:href="#DejaVuSans-35"/>
      </g>
     </g>
    </g>
    <g id="text_14">
     <!-- Loss -->
     <g transform="translate(38.157812 185.495187) rotate(-90) scale(0.1 -0.1)">
      <defs>
       <path id="DejaVuSans-4c" d="M 628 4666 
L 1259 4666 
L 1259 531 
L 3531 531 
L 3531 0 
L 628 0 
L 628 4666 
z
" transform="scale(0.015625)"/>
       <path id="DejaVuSans-73" d="M 2834 3397 
L 2834 2853 
Q 2591 2978 2328 3040 
Q 2066 3103 1784 3103 
Q 1356 3103 1142 2972 
Q 928 2841 928 2578 
Q 928 2378 1081 2264 
Q 1234 2150 1697 2047 
L 1894 2003 
Q 2506 1872 2764 1633 
Q 3022 1394 3022 966 
Q 3022 478 2636 193 
Q 2250 -91 1575 -91 
Q 1294 -91 989 -36 
Q 684 19 347 128 
L 347 722 
Q 666 556 975 473 
Q 1284 391 1588 391 
Q 1994 391 2212 530 
Q 2431 669 2431 922 
Q 2431 1156 2273 1281 
Q 2116 1406 1581 1522 
L 1381 1569 
Q 847 1681 609 1914 
Q 372 2147 372 2553 
Q 372 3047 722 3315 
Q 1072 3584 1716 3584 
Q 2034 3584 2315 3537 
Q 2597 3491 2834 3397 
z
" transform="scale(0.015625)"/>
      </defs>
      <use xlink:href="#DejaVuSans-4c"/>
      <use xlink:href="#DejaVuSans-6f" x="53.962891"/>
      <use xlink:href="#DejaVuSans-73" x="115.144531"/>
      <use xlink:href="#DejaVuSans-73" x="167.244141"/>
     </g>
    </g>
   </g>
   <g id="line2d_13">
    <path d="M 73.832727 278.824784 
L 74.157707 280.100175 
L 74.482686 279.993062 
L 74.807666 280.661302 
L 75.132645 280.802831 
L 75.457625 280.738753 
L 75.782604 281.243399 
L 76.107584 281.367564 
L 76.432563 279.961138 
L 77.082523 281.430213 
L 77.407502 281.921815 
L 77.732482 281.750208 
L 78.057461 282.063323 
L 78.382441 281.514452 
L 79.0324 282.935154 
L 79.357379 282.813519 
L 79.682359 282.300612 
L 80.007338 282.940642 
L 80.332318 282.922931 
L 80.657297 282.063116 
L 80.982277 283.045672 
L 81.307256 282.815606 
L 81.632236 282.933107 
L 81.957215 282.540483 
L 82.282195 283.573284 
L 82.932154 283.450874 
L 83.257133 284.207967 
L 83.582113 283.1322 
L 83.907093 283.186791 
L 84.232072 284.864819 
L 84.557052 284.029167 
L 84.882031 284.247219 
L 85.207011 284.319994 
L 85.53199 284.830391 
L 85.85697 284.258148 
L 86.181949 284.77155 
L 86.506929 284.577916 
L 86.831908 285.004553 
L 87.156888 285.005332 
L 87.481867 285.629552 
L 87.806847 284.45051 
L 88.131826 284.688132 
L 88.456806 285.766732 
L 88.781785 286.330551 
L 89.106765 285.499314 
L 89.431744 285.021687 
L 89.756724 285.502243 
L 90.081704 286.291424 
L 90.406683 285.704299 
L 90.731663 286.364356 
L 91.056642 285.758217 
L 91.381622 286.421057 
L 91.706601 286.763531 
L 92.031581 287.338154 
L 92.35656 286.113895 
L 92.68154 287.408682 
L 93.331499 286.370989 
L 93.656478 287.217885 
L 93.981458 286.588796 
L 94.306437 287.903691 
L 94.631417 286.921181 
L 94.956396 287.27649 
L 95.281376 286.831679 
L 95.606355 287.453133 
L 95.931335 287.148525 
L 96.256314 288.170091 
L 96.581294 288.249725 
L 96.906274 287.938974 
L 97.231253 288.004989 
L 97.556233 288.297218 
L 97.881212 288.302714 
L 98.206192 288.850065 
L 98.531171 288.614179 
L 98.856151 288.589743 
L 99.18113 288.865731 
L 99.50611 288.837612 
L 99.831089 289.263651 
L 100.156069 288.212548 
L 100.481048 287.815042 
L 100.806028 289.559718 
L 101.131007 289.444097 
L 101.455987 289.500104 
L 101.780966 289.05103 
L 102.105946 288.973123 
L 102.430925 289.632928 
L 102.755905 289.418906 
L 103.080885 289.730335 
L 103.405864 289.62848 
L 104.055823 289.123296 
L 104.380803 289.590461 
L 104.705782 289.859154 
L 105.030762 290.377285 
L 105.355741 290.253026 
L 105.680721 289.722701 
L 106.0057 290.133188 
L 106.33068 289.445319 
L 106.980639 290.609425 
L 107.305618 290.121727 
L 107.630598 290.870115 
L 107.955577 290.279413 
L 108.280557 290.38335 
L 108.605536 290.148576 
L 109.255495 290.481226 
L 109.580475 291.0848 
L 109.905455 290.259779 
L 110.555414 290.236123 
L 110.880393 290.493544 
L 111.205373 291.195437 
L 111.855332 290.904129 
L 112.180311 291.130623 
L 112.505291 290.904972 
L 112.83027 291.212377 
L 113.15525 291.845857 
L 113.805209 290.020565 
L 114.130188 290.821434 
L 114.455168 291.17183 
L 114.780147 291.31904 
L 115.105127 290.455395 
L 115.430106 291.255966 
L 116.080066 291.213707 
L 116.405045 289.022908 
L 116.730025 291.228581 
L 117.055004 289.590107 
L 117.379984 290.495327 
L 117.704963 291.936528 
L 118.029943 291.385181 
L 118.354922 291.585742 
L 118.679902 291.417743 
L 119.004881 291.404758 
L 119.329861 291.830982 
L 119.65484 291.480426 
L 119.97982 290.775409 
L 120.304799 291.262014 
L 120.629779 290.996443 
L 121.279738 291.76033 
L 121.604717 291.376699 
L 121.929697 291.762716 
L 122.254676 291.384984 
L 122.579656 291.798952 
L 122.904636 291.574709 
L 123.229615 291.629376 
L 123.554595 291.923362 
L 123.879574 291.264182 
L 124.204554 291.651201 
L 124.529533 291.569299 
L 124.854513 291.91093 
L 125.179492 291.824192 
L 125.504472 291.176281 
L 125.829451 292.051075 
L 126.154431 291.78057 
L 126.47941 292.102994 
L 126.80439 291.33742 
L 127.129369 290.96038 
L 127.454349 292.037777 
L 127.779328 291.358663 
L 128.429287 292.261963 
L 128.754267 291.529265 
L 129.079247 292.069954 
L 129.404226 292.384107 
L 130.054185 292.510739 
L 130.379165 292.12494 
L 130.704144 292.097065 
L 131.029124 292.619536 
L 131.354103 292.798501 
L 131.679083 292.273714 
L 132.004062 292.769749 
L 132.329042 291.790507 
L 132.654021 291.36378 
L 132.979001 291.388893 
L 133.30398 292.215197 
L 133.62896 291.043583 
L 134.278919 292.88802 
L 134.603898 292.693218 
L 134.928878 292.726687 
L 135.253857 292.996274 
L 135.578837 292.642007 
L 135.903817 292.794339 
L 136.228796 292.590691 
L 136.553776 292.938057 
L 137.203735 292.748919 
L 137.528714 293.006699 
L 137.853694 291.069629 
L 138.178673 290.834313 
L 138.503653 291.892164 
L 138.828632 291.165216 
L 139.153612 292.017218 
L 140.12855 292.997168 
L 140.45353 292.642055 
L 140.778509 292.709167 
L 141.103489 293.096172 
L 141.428468 292.38201 
L 141.753448 293.15535 
L 142.078428 292.730346 
L 142.403407 292.546296 
L 143.053366 292.971698 
L 143.378346 292.739073 
L 144.028305 293.186547 
L 144.353284 292.902954 
L 144.678264 290.47559 
L 145.328223 292.579714 
L 145.653202 293.135088 
L 145.978182 293.302331 
L 146.303161 293.019882 
L 146.95312 293.555783 
L 147.2781 293.377386 
L 147.603079 291.722285 
L 147.928059 292.513396 
L 148.253038 289.940721 
L 148.578018 292.56661 
L 148.902998 292.215952 
L 149.227977 292.811072 
L 149.877936 292.883858 
L 150.202916 292.79095 
L 150.527895 293.707967 
L 150.852875 293.001874 
L 151.177854 293.352585 
L 151.502834 293.507523 
L 151.827813 293.247868 
L 152.152793 292.72832 
L 152.477772 293.213682 
L 152.802752 293.065076 
L 153.127731 292.229026 
L 153.452711 292.348546 
L 153.77769 293.481723 
L 154.10267 292.955937 
L 154.427649 293.247257 
L 154.752629 292.408269 
L 155.077609 293.595709 
L 155.402588 293.487638 
L 155.727568 293.211858 
L 156.377527 293.532425 
L 156.702506 293.668954 
L 157.027486 294.378753 
L 157.352465 293.091235 
L 157.677445 293.546779 
L 158.002424 293.288841 
L 158.327404 291.290536 
L 158.977363 291.009658 
L 159.302342 293.163474 
L 159.952301 293.562156 
L 160.277281 294.342098 
L 160.60226 293.625843 
L 160.92724 294.172398 
L 161.252219 294.2495 
L 161.577199 293.129517 
L 161.902179 294.080138 
L 162.227158 293.195038 
L 162.552138 293.913249 
L 162.877117 294.110358 
L 163.202097 293.399058 
L 163.852056 294.239082 
L 164.177035 293.269636 
L 164.502015 291.433937 
L 164.826994 291.082008 
L 165.151974 291.735109 
L 165.476953 293.429385 
L 165.801933 293.203337 
L 166.126912 293.852534 
L 166.451892 293.538517 
L 167.101851 294.142166 
L 167.42683 293.389696 
L 167.75181 293.441392 
L 168.07679 294.216195 
L 168.401769 293.962055 
L 168.726749 294.369564 
L 169.051728 294.464567 
L 169.376708 293.220901 
L 169.701687 293.957674 
L 170.026667 293.936711 
L 170.351646 290.4695 
L 170.676626 290.623954 
L 171.001605 293.033184 
L 171.651564 294.108096 
L 171.976544 293.429824 
L 172.301523 293.558276 
L 172.626503 293.875934 
L 172.951482 293.558312 
L 173.276462 294.466954 
L 173.601441 293.558244 
L 173.926421 294.324315 
L 175.226339 293.793378 
L 175.551319 293.451838 
L 175.876298 293.690122 
L 176.201278 293.462597 
L 176.526257 294.362106 
L 176.851237 293.796847 
L 177.176216 294.044537 
L 177.501196 293.749368 
L 177.826175 293.706143 
L 178.151155 293.530851 
L 178.476134 294.055422 
L 178.801114 293.342421 
L 179.126093 292.976363 
L 179.451073 292.367426 
L 179.776052 290.953328 
L 180.101032 292.961379 
L 180.426011 293.614849 
L 180.750991 293.794888 
L 181.075971 293.351378 
L 181.40095 293.582153 
L 181.72593 294.045299 
L 182.050909 294.104233 
L 182.375889 293.74899 
L 183.350827 294.381534 
L 183.675807 293.523743 
L 184.000786 294.484931 
L 184.325766 293.822871 
L 184.650745 292.796775 
L 184.975725 293.046018 
L 185.300704 294.566189 
L 185.950663 292.283135 
L 186.275643 293.258428 
L 186.600622 293.293783 
L 187.250581 291.280848 
L 187.575561 293.689686 
L 187.900541 293.597528 
L 188.5505 294.619996 
L 188.875479 294.22787 
L 189.200459 294.348208 
L 189.525438 293.889717 
L 189.850418 294.086315 
L 190.175397 294.573897 
L 190.500377 293.716766 
L 190.825356 294.119759 
L 191.150336 293.950321 
L 191.475315 294.642724 
L 191.800295 293.963585 
L 192.125274 294.434544 
L 192.450254 294.201657 
L 192.775233 293.450692 
L 193.100213 294.264936 
L 193.425192 293.774139 
L 193.750172 291.789099 
L 194.075152 286.516595 
L 194.725111 292.981338 
L 195.05009 293.666838 
L 195.37507 293.432058 
L 195.700049 294.419889 
L 196.025029 293.772881 
L 196.350008 293.873136 
L 196.674988 294.1765 
L 196.999967 294.740765 
L 197.324947 293.847645 
L 197.649926 294.318836 
L 197.974906 294.120179 
L 198.299885 294.412879 
L 198.624865 294.27477 
L 199.274824 294.408611 
L 199.599803 293.910656 
L 199.924783 293.744736 
L 200.249762 294.132395 
L 200.574742 294.171841 
L 200.899722 293.790131 
L 201.224701 294.006188 
L 201.549681 277.610556 
L 201.87466 292.234144 
L 202.19964 293.443993 
L 202.524619 293.48751 
L 202.849599 293.859437 
L 203.174578 294.555203 
L 203.499558 294.611915 
L 204.149517 293.543435 
L 204.474496 294.154653 
L 204.799476 294.231058 
L 205.124455 294.048078 
L 205.449435 294.337137 
L 206.099394 293.760635 
L 206.424373 294.270555 
L 206.749353 294.22765 
L 207.074333 294.333102 
L 207.399312 294.962274 
L 207.724292 294.5137 
L 208.049271 294.814706 
L 208.374251 294.618219 
L 208.69923 294.942976 
L 209.02421 294.14414 
L 209.349189 294.010529 
L 209.674169 294.683288 
L 210.324128 289.446414 
L 210.974087 292.54013 
L 211.624046 294.196188 
L 211.949025 292.974633 
L 212.274005 294.279588 
L 212.598984 294.007606 
L 212.923964 294.312791 
L 213.248943 293.857978 
L 213.573923 293.957203 
L 214.548862 294.778524 
L 214.873841 294.954375 
L 215.198821 294.776676 
L 215.5238 295.361095 
L 215.84878 294.584317 
L 216.173759 295.08445 
L 216.498739 294.971993 
L 216.823718 294.612822 
L 217.148698 294.487003 
L 217.473677 294.597253 
L 217.798657 294.449318 
L 218.123636 294.619318 
L 218.448616 294.323645 
L 218.773595 268.552483 
L 219.098575 290.911714 
L 219.748534 294.0044 
L 220.073514 294.769906 
L 220.723473 293.984404 
L 221.373432 294.718129 
L 221.698411 294.233241 
L 222.023391 294.594861 
L 222.34837 294.288985 
L 222.67335 294.700823 
L 222.998329 294.261804 
L 223.648288 293.960785 
L 223.973268 293.906056 
L 224.298247 294.59266 
L 224.948206 294.306941 
L 225.598165 293.876558 
L 225.923145 294.203808 
L 226.248124 294.926913 
L 226.573104 294.890665 
L 226.898084 294.730844 
L 227.223063 294.923822 
L 227.548043 294.544133 
L 227.873022 294.864424 
L 228.198002 294.302012 
L 228.522981 295.175392 
L 229.17294 294.177253 
L 229.49792 294.531144 
L 229.822899 294.575402 
L 230.147879 294.503805 
L 230.472858 294.781676 
L 230.797838 294.772819 
L 231.122817 292.045547 
L 231.447797 286.648263 
L 231.772776 291.332261 
L 232.097756 293.208318 
L 232.422735 294.179651 
L 232.747715 294.559344 
L 233.072695 294.040402 
L 233.397674 295.050137 
L 233.722654 294.51051 
L 234.047633 294.433505 
L 234.372613 294.840197 
L 234.697592 294.884725 
L 235.022572 294.767023 
L 235.347551 293.983787 
L 235.672531 294.447013 
L 235.99751 294.447837 
L 236.32249 294.679022 
L 236.647469 294.271875 
L 236.972449 294.279869 
L 237.297428 293.874776 
L 237.622408 294.757199 
L 237.947387 294.428861 
L 238.272367 294.704049 
L 238.922326 294.257929 
L 239.247305 294.662189 
L 239.572285 293.235487 
L 239.897265 281.932456 
L 240.222244 289.742788 
L 240.872203 293.769267 
L 241.197183 294.438709 
L 241.522162 294.219027 
L 241.847142 294.62213 
L 242.172121 294.332476 
L 242.497101 295.176466 
L 242.82208 294.724675 
L 243.14706 294.486522 
L 243.797019 294.299082 
L 244.121998 294.697087 
L 244.446978 294.665486 
L 245.096937 293.976846 
L 245.421916 294.909513 
L 245.746896 293.891083 
L 246.071876 294.689008 
L 246.396855 294.870711 
L 246.721835 294.544862 
L 247.046814 294.447363 
L 247.371794 294.551398 
L 247.696773 295.204521 
L 248.021753 294.507804 
L 248.346732 294.660298 
L 248.671712 294.211298 
L 248.996691 294.637867 
L 249.321671 294.872067 
L 249.64665 294.750936 
L 249.97163 291.384679 
L 250.296609 291.453573 
L 250.621589 293.318859 
L 251.271548 294.568953 
L 251.596527 294.081192 
L 251.921507 294.249832 
L 252.246486 294.8091 
L 252.571466 294.556139 
L 253.221425 294.714404 
L 253.546405 293.896272 
L 253.871384 294.667385 
L 254.196364 293.972794 
L 254.521343 294.874633 
L 254.846323 294.623031 
L 255.171302 294.157883 
L 255.496282 294.328652 
L 255.821261 294.750932 
L 256.146241 294.327474 
L 256.47122 294.754273 
L 256.7962 294.483778 
L 257.121179 294.744682 
L 257.446159 294.712604 
L 257.771138 294.490858 
L 258.096118 294.06762 
L 258.421097 294.071702 
L 258.746077 294.354754 
L 259.071057 294.220965 
L 259.396036 270.462209 
L 259.721016 291.300516 
L 260.045995 293.548018 
L 260.370975 294.517725 
L 260.695954 294.365431 
L 261.020934 294.611417 
L 261.345913 294.465413 
L 261.670893 294.5408 
L 261.995872 294.1926 
L 262.320852 294.761237 
L 262.970811 294.582968 
L 263.62077 294.530486 
L 263.945749 294.38602 
L 264.270729 294.419683 
L 264.595708 294.716975 
L 265.245667 294.823437 
L 265.570647 294.890992 
L 266.220606 293.900433 
L 266.545586 294.835658 
L 266.870565 294.648009 
L 267.195545 294.286263 
L 267.520524 294.889582 
L 267.845504 294.316791 
L 268.170483 294.390201 
L 268.495463 294.885243 
L 268.820442 294.843369 
L 269.145422 294.472882 
L 269.795381 294.266106 
L 270.12036 274.038551 
L 270.44534 290.527871 
L 270.770319 290.65133 
L 271.095299 291.351984 
L 271.420278 293.938615 
L 271.745258 294.353602 
L 272.070238 294.434574 
L 272.395217 294.731241 
L 272.720197 294.227877 
L 273.045176 294.493855 
L 273.370156 294.401904 
L 273.695135 295.16273 
L 274.020115 294.621418 
L 274.345094 294.676205 
L 274.995053 294.398335 
L 275.320033 294.730857 
L 275.645012 294.535019 
L 275.969992 294.574384 
L 276.294971 295.077582 
L 276.619951 294.745667 
L 276.94493 294.792943 
L 277.919869 293.90604 
L 278.244848 294.87765 
L 278.569828 293.620604 
L 278.894808 294.602372 
L 279.219787 294.357358 
L 279.544767 294.4047 
L 279.869746 294.189033 
L 280.519705 294.700545 
L 280.844685 286.923802 
L 281.169664 291.283613 
L 281.494644 293.413835 
L 282.144603 294.890234 
L 282.794562 294.954125 
L 283.119541 294.012859 
L 283.444521 294.861294 
L 283.7695 294.141816 
L 284.09448 294.859787 
L 284.419459 294.22319 
L 284.744439 294.773317 
L 285.394398 294.210577 
L 285.719378 294.811235 
L 286.044357 294.254737 
L 286.694316 294.371958 
L 287.019296 294.869508 
L 287.344275 294.045603 
L 287.669255 294.669786 
L 287.994234 294.182552 
L 288.319214 295.275308 
L 288.644193 295.011055 
L 288.969173 294.38874 
L 289.294152 294.895342 
L 289.619132 294.683346 
L 289.944111 294.746868 
L 290.269091 294.937532 
L 290.59407 294.121675 
L 290.91905 294.956115 
L 291.244029 294.367719 
L 291.569009 294.081323 
L 291.893989 295.047719 
L 292.218968 294.669976 
L 292.543948 294.681435 
L 292.868927 294.547788 
L 293.193907 293.858247 
L 293.518886 293.813713 
L 293.843866 281.098261 
L 294.168845 291.051679 
L 294.493825 292.912584 
L 294.818804 293.663371 
L 295.143784 294.023555 
L 295.793743 295.063723 
L 296.118722 294.170528 
L 296.443702 294.160468 
L 297.093661 294.699627 
L 297.41864 294.823879 
L 297.74362 294.386403 
L 298.0686 294.61437 
L 298.393579 295.077274 
L 298.718559 294.069936 
L 299.043538 294.060617 
L 299.368518 294.443266 
L 299.693497 293.733893 
L 300.018477 294.527353 
L 300.343456 294.399262 
L 300.993415 295.488 
L 301.318395 294.343857 
L 301.643374 294.737633 
L 301.968354 294.160074 
L 302.293333 294.200705 
L 302.618313 294.717828 
L 302.943292 294.962065 
L 303.268272 294.227236 
L 303.593251 294.640134 
L 303.918231 294.873046 
L 304.24321 294.810908 
L 304.56819 294.215352 
L 304.89317 294.805277 
L 305.543129 294.282417 
L 306.193088 289.197175 
L 306.843047 293.955477 
L 307.168026 293.776173 
L 307.493006 294.970138 
L 307.817985 294.082454 
L 308.142965 294.678724 
L 308.792924 294.837433 
L 309.117903 294.228283 
L 309.442883 294.06125 
L 309.767862 294.648037 
L 310.092842 294.623056 
L 310.417821 294.46678 
L 310.742801 294.581949 
L 311.067781 293.998252 
L 311.39276 294.564063 
L 311.71774 294.445956 
L 312.042719 295.121441 
L 312.367699 294.48183 
L 312.692678 294.779351 
L 313.017658 294.214117 
L 313.342637 294.70721 
L 313.667617 294.014547 
L 314.317576 295.032036 
L 314.642555 294.287762 
L 314.967535 294.621475 
L 315.292514 294.426203 
L 315.617494 294.878574 
L 316.267453 294.683293 
L 316.592432 294.333832 
L 316.917412 294.69209 
L 317.242391 293.292702 
L 317.567371 289.396001 
L 317.892351 294.014172 
L 318.21733 294.413976 
L 318.54231 294.130331 
L 318.867289 295.027246 
L 319.192269 294.85817 
L 319.517248 294.480464 
L 319.842228 294.386686 
L 320.167207 294.689522 
L 320.492187 294.123236 
L 321.142146 295.045922 
L 321.467125 294.808319 
L 321.792105 294.820186 
L 322.117084 295.149221 
L 323.092023 294.641395 
L 323.417002 294.2845 
L 323.741982 295.186151 
L 324.066962 294.760389 
L 324.391941 295.20428 
L 324.716921 294.430324 
L 325.0419 294.231418 
L 325.36688 294.290946 
L 325.691859 294.725811 
L 326.016839 294.199057 
L 326.341818 294.385318 
L 326.666798 293.943911 
L 326.991777 291.843233 
L 327.316757 291.338418 
L 327.641736 291.607897 
L 327.966716 294.13901 
L 328.291695 293.884363 
L 328.616675 294.289884 
L 328.941654 293.980447 
L 329.266634 294.591108 
L 329.916593 294.573455 
L 330.241572 294.397968 
L 330.566552 293.538828 
L 330.891532 294.895628 
L 331.216511 294.065878 
L 331.86647 294.782031 
L 332.19145 294.599466 
L 332.516429 293.906019 
L 332.841409 294.260749 
L 333.166388 294.33609 
L 333.491368 294.575203 
L 334.466306 294.91834 
L 334.791286 294.339623 
L 335.116265 294.194409 
L 335.441245 294.632384 
L 335.766224 294.113358 
L 336.091204 294.647303 
L 336.416183 294.345753 
L 336.741163 294.49667 
L 337.066143 295.098646 
L 337.391122 294.70329 
L 337.716102 295.248096 
L 338.041081 294.453374 
L 338.366061 294.225025 
L 338.69104 294.30562 
L 339.01602 290.34593 
L 339.340999 291.709684 
L 339.665979 294.152792 
L 339.990958 295.310489 
L 340.315938 294.496181 
L 340.640917 294.341742 
L 340.965897 295.145791 
L 341.290876 294.326965 
L 341.615856 294.028181 
L 341.940835 295.106522 
L 342.265815 294.938366 
L 342.590794 294.455758 
L 342.915774 294.997802 
L 343.240753 295.166168 
L 343.890713 294.711905 
L 344.540672 294.173802 
L 344.865651 294.407603 
L 345.190631 294.202246 
L 345.51561 294.415704 
L 345.84059 295.40328 
L 346.165569 294.394663 
L 346.490549 294.587215 
L 346.815528 295.038826 
L 347.465487 294.468197 
L 347.790467 294.99059 
L 348.115446 295.130351 
L 348.765405 294.480646 
L 349.415364 294.854004 
L 349.740344 294.603764 
L 350.065324 295.11489 
L 350.390303 293.567596 
L 350.715283 290.880833 
L 351.040262 293.010243 
L 351.365242 294.179713 
L 351.690221 294.150376 
L 352.015201 294.857266 
L 352.990139 294.49888 
L 353.315119 293.835571 
L 353.640098 294.726594 
L 353.965078 294.588254 
L 354.290057 294.863643 
L 354.615037 294.25975 
L 354.940016 293.989561 
L 355.264996 295.00962 
L 355.589975 294.995399 
L 355.914955 294.420198 
L 356.239934 294.206695 
L 356.889894 295.095387 
L 357.214873 294.648701 
L 357.539853 294.827246 
L 357.864832 294.563965 
L 358.189812 294.690852 
L 358.514791 294.353128 
L 358.839771 294.276905 
L 359.16475 294.475679 
L 359.814709 294.46783 
L 360.139689 294.820739 
L 360.464668 294.465837 
L 360.789648 295.324561 
L 361.114627 294.615274 
L 361.439607 294.332001 
L 361.764586 294.889724 
L 362.089566 294.12636 
L 362.739525 294.924284 
L 363.064505 294.455749 
L 363.389484 294.543137 
L 363.714464 291.944928 
L 364.039443 293.274627 
L 364.364423 293.447763 
L 364.689402 294.421817 
L 365.014382 294.620242 
L 365.339361 294.22836 
L 365.664341 294.110826 
L 365.98932 295.056665 
L 366.3143 294.243343 
L 366.639279 293.831709 
L 366.964259 294.249372 
L 367.614218 294.650356 
L 367.939197 294.204652 
L 368.264177 295.433318 
L 368.589156 294.544367 
L 369.239115 293.94906 
L 369.564095 294.832809 
L 369.889075 294.200738 
L 370.214054 294.718047 
L 370.539034 294.468179 
L 371.513972 294.719814 
L 371.838952 295.118942 
L 372.163931 294.615215 
L 372.488911 294.783877 
L 372.81389 294.79507 
L 373.13887 294.454326 
L 373.463849 294.669383 
L 373.788829 294.49062 
L 374.113808 294.495516 
L 374.438788 294.969981 
L 374.763767 294.344172 
L 375.088747 295.160257 
L 375.738706 294.04987 
L 376.063686 294.914666 
L 376.388665 294.845994 
L 376.713645 280.415252 
L 377.363604 294.599074 
L 377.688583 293.929709 
L 378.013563 294.349278 
L 378.338542 294.392739 
L 378.663522 294.616462 
L 378.988501 294.416733 
L 379.313481 294.459238 
L 379.63846 294.90901 
L 379.96344 294.591342 
L 380.288419 295.224495 
L 380.613399 294.370075 
L 380.938378 295.052284 
L 381.913317 294.574609 
L 382.238296 295.021237 
L 382.563276 294.199005 
L 383.213235 294.777487 
L 383.863194 294.412243 
L 384.188174 294.988686 
L 384.513153 294.493279 
L 384.838133 294.267562 
L 385.163112 294.898329 
L 385.488092 294.542135 
L 385.813071 294.01389 
L 386.138051 294.56022 
L 386.46303 294.378778 
L 386.78801 294.763413 
L 387.112989 283.174987 
L 387.437969 290.162209 
L 388.087928 294.771392 
L 388.412907 295.229944 
L 388.737887 294.164039 
L 389.062867 294.228239 
L 389.387846 295.041321 
L 390.037805 294.804381 
L 390.362785 294.036356 
L 390.687764 295.231023 
L 391.012744 294.834037 
L 391.337723 294.67246 
L 391.662703 295.063279 
L 391.987682 295.092195 
L 392.312662 294.165796 
L 392.637641 294.902221 
L 393.2876 294.249769 
L 393.61258 294.02238 
L 393.937559 295.085592 
L 394.262539 294.567816 
L 394.587518 294.521235 
L 394.912498 294.704745 
L 395.237477 295.071457 
L 395.562457 294.933231 
L 395.887437 294.169818 
L 396.212416 294.572967 
L 396.537396 295.329455 
L 396.862375 294.383648 
L 397.512334 294.945177 
L 397.837314 294.441068 
L 398.162293 294.479101 
L 398.487273 294.074725 
L 398.487273 294.074725 
" clip-path="url(#p6acdce10c4)" style="fill: none; stroke-dasharray: 5.55,2.4; stroke-dashoffset: 0; stroke: #ff0000; stroke-width: 1.5"/>
   </g>
   <g id="line2d_14">
    <path d="M 73.832727 282.873581 
L 74.157707 284.426884 
L 74.482686 281.614578 
L 75.132645 285.703892 
L 75.457625 284.146439 
L 75.782604 284.142223 
L 76.107584 284.857175 
L 76.757543 283.13453 
L 77.082523 282.847047 
L 77.407502 282.954442 
L 77.732482 283.469565 
L 78.057461 283.613966 
L 78.382441 284.001125 
L 78.70742 281.834256 
L 79.0324 285.107506 
L 79.357379 284.370341 
L 79.682359 284.428855 
L 80.007338 284.104991 
L 80.332318 283.938798 
L 80.657297 284.483374 
L 80.982277 284.106192 
L 81.307256 285.333044 
L 81.632236 288.468049 
L 81.957215 282.970501 
L 82.282195 282.728896 
L 82.607174 284.029983 
L 82.932154 284.01307 
L 83.257133 283.656374 
L 83.582113 284.824512 
L 83.907093 282.118154 
L 84.232072 283.403928 
L 84.557052 285.307953 
L 84.882031 283.166344 
L 85.207011 282.873371 
L 85.53199 284.99793 
L 85.85697 283.48287 
L 86.181949 283.536376 
L 86.506929 281.823189 
L 86.831908 284.094014 
L 87.156888 285.074306 
L 87.481867 282.946161 
L 87.806847 283.550207 
L 88.131826 284.443919 
L 88.456806 286.712891 
L 88.781785 282.857935 
L 89.106765 282.242168 
L 89.756724 283.107523 
L 90.081704 280.932847 
L 90.406683 282.124447 
L 91.056642 280.799796 
L 91.381622 281.635795 
L 91.706601 280.885582 
L 92.35656 282.033951 
L 92.68154 280.975549 
L 93.331499 279.55978 
L 93.656478 279.486993 
L 93.981458 278.129498 
L 94.306437 281.963851 
L 94.631417 280.09936 
L 94.956396 280.191862 
L 95.281376 277.712588 
L 95.606355 278.629499 
L 95.931335 278.539799 
L 96.256314 281.242211 
L 96.581294 276.920942 
L 96.906274 275.024934 
L 97.231253 280.654322 
L 97.556233 279.714209 
L 97.881212 275.04284 
L 98.206192 278.965843 
L 98.531171 278.813598 
L 99.18113 274.500592 
L 99.50611 277.282882 
L 99.831089 278.401203 
L 100.156069 275.580264 
L 100.481048 275.923241 
L 100.806028 275.542995 
L 101.131007 274.342184 
L 101.455987 275.250387 
L 101.780966 271.300404 
L 102.105946 275.616796 
L 102.430925 271.067361 
L 102.755905 270.201932 
L 103.080885 279.472417 
L 103.405864 272.274504 
L 103.730844 274.845178 
L 104.055823 275.44484 
L 104.380803 276.972313 
L 104.705782 277.297813 
L 105.030762 278.813858 
L 105.355741 268.325061 
L 105.680721 269.652161 
L 106.0057 271.497321 
L 106.33068 267.772719 
L 106.655659 270.139166 
L 106.980639 268.504982 
L 107.305618 275.040695 
L 107.630598 277.755225 
L 107.955577 268.537187 
L 108.280557 269.904926 
L 108.605536 267.442739 
L 108.930516 268.288718 
L 109.255495 272.883278 
L 109.905455 266.212068 
L 110.230434 265.851354 
L 110.555414 265.068788 
L 111.205373 264.941316 
L 111.530352 263.273258 
L 111.855332 269.986138 
L 112.180311 264.819065 
L 112.505291 273.887452 
L 112.83027 267.743749 
L 113.15525 265.590648 
L 113.480229 267.06005 
L 113.805209 261.08034 
L 114.130188 259.444367 
L 114.455168 268.056845 
L 114.780147 272.160011 
L 115.105127 260.366471 
L 115.430106 263.71031 
L 115.755086 264.022662 
L 116.080066 266.72192 
L 116.405045 258.855434 
L 116.730025 266.106824 
L 117.055004 265.431657 
L 117.379984 257.010383 
L 117.704963 261.727226 
L 118.029943 259.339561 
L 118.354922 259.105199 
L 118.679902 257.262879 
L 119.004881 259.922736 
L 119.329861 260.347818 
L 119.65484 260.366057 
L 119.97982 263.368003 
L 120.304799 269.2408 
L 120.629779 260.59905 
L 120.954758 267.428534 
L 121.279738 259.920237 
L 121.604717 264.53059 
L 121.929697 257.573419 
L 122.254676 264.177184 
L 122.579656 263.302626 
L 122.904636 256.525521 
L 123.229615 230.430142 
L 123.554595 256.866 
L 123.879574 214.049467 
L 124.204554 214.329746 
L 124.529533 225.336433 
L 124.854513 220.007543 
L 125.179492 261.204751 
L 125.504472 213.564549 
L 125.829451 211.980861 
L 126.154431 223.24652 
L 126.47941 210.42037 
L 126.80439 248.318182 
L 127.129369 208.030764 
L 127.454349 276.378835 
L 127.779328 251.632457 
L 128.104308 169.407006 
L 128.429287 211.402085 
L 128.754267 182.876913 
L 129.079247 251.359192 
L 129.404226 253.195887 
L 129.729206 258.564952 
L 130.054185 256.429173 
L 130.379165 216.246926 
L 130.704144 207.477486 
L 131.029124 256.416608 
L 131.354103 165.2133 
L 131.679083 166.450964 
L 132.004062 166.47994 
L 132.329042 168.320716 
L 132.979001 251.870979 
L 133.30398 211.011726 
L 133.62896 258.863245 
L 133.953939 179.798626 
L 134.278919 205.717732 
L 134.603898 169.375321 
L 134.928878 165.660603 
L 135.253857 212.791554 
L 135.578837 165.77673 
L 135.903817 173.145938 
L 136.228796 164.949185 
L 136.553776 170.826467 
L 136.878755 172.480086 
L 137.203735 162.845567 
L 137.528714 221.464649 
L 137.853694 164.372586 
L 138.178673 162.216747 
L 138.503653 254.691184 
L 139.153612 168.52501 
L 139.478591 165.599591 
L 139.803571 213.478017 
L 140.12855 165.326743 
L 140.45353 203.527103 
L 140.778509 163.352993 
L 141.103489 164.078712 
L 141.428468 209.009397 
L 141.753448 163.364598 
L 142.078428 219.623296 
L 142.403407 160.988926 
L 142.728387 201.811678 
L 143.053366 159.619759 
L 143.378346 202.569823 
L 143.703325 167.120388 
L 144.028305 255.89692 
L 144.353284 167.419714 
L 144.678264 202.335443 
L 145.003243 161.495383 
L 145.328223 199.495167 
L 145.653202 175.84564 
L 145.978182 205.257751 
L 146.303161 167.552291 
L 146.628141 157.171972 
L 146.95312 157.328366 
L 147.2781 157.719256 
L 147.603079 157.800348 
L 147.928059 207.615994 
L 148.253038 210.609599 
L 148.578018 204.052397 
L 148.902998 194.537006 
L 149.227977 157.792795 
L 149.552957 204.225567 
L 149.877936 166.253511 
L 150.202916 175.672563 
L 150.527895 151.026629 
L 150.852875 157.933322 
L 151.177854 152.248718 
L 151.502834 156.666565 
L 151.827813 152.236332 
L 152.152793 155.950688 
L 152.477772 154.732241 
L 152.802752 154.915416 
L 153.127731 196.640963 
L 153.452711 193.33474 
L 153.77769 169.705737 
L 154.10267 194.827961 
L 154.427649 200.250434 
L 154.752629 198.457887 
L 155.077609 190.176937 
L 155.727568 194.031576 
L 156.052547 250.566934 
L 156.377527 193.873898 
L 156.702506 193.050556 
L 157.027486 149.951546 
L 157.352465 152.097112 
L 157.677445 192.1519 
L 158.002424 162.296777 
L 158.327404 149.843673 
L 158.652383 251.831942 
L 158.977363 144.879441 
L 159.302342 196.486659 
L 159.627322 193.675838 
L 159.952301 196.12638 
L 160.277281 201.476347 
L 160.60226 192.908884 
L 160.92724 194.242688 
L 161.252219 192.533533 
L 161.577199 193.96447 
L 161.902179 149.210452 
L 162.227158 170.142543 
L 162.552138 148.515834 
L 162.877117 148.042381 
L 163.202097 206.547245 
L 163.527076 149.571969 
L 163.852056 249.404951 
L 164.177035 193.427437 
L 164.502015 196.385907 
L 164.826994 149.875638 
L 165.151974 193.531901 
L 165.476953 202.7856 
L 165.801933 191.499522 
L 166.126912 192.577126 
L 166.451892 202.089908 
L 166.776871 188.29216 
L 167.101851 189.380411 
L 167.42683 195.16307 
L 167.75181 189.044368 
L 168.07679 197.568676 
L 168.401769 236.421047 
L 168.726749 186.388633 
L 169.051728 193.107108 
L 169.376708 202.320377 
L 169.701687 196.285003 
L 170.026667 156.962121 
L 170.351646 183.463027 
L 170.676626 221.252474 
L 171.001605 195.796945 
L 171.326585 193.240502 
L 171.651564 242.179715 
L 171.976544 193.683952 
L 172.301523 191.433058 
L 172.626503 187.621708 
L 172.951482 249.533547 
L 173.276462 188.737197 
L 173.601441 187.489598 
L 173.926421 189.95255 
L 174.2514 186.699027 
L 174.90136 183.417297 
L 175.226339 190.178665 
L 175.551319 186.337778 
L 175.876298 234.543923 
L 176.201278 185.704347 
L 176.526257 185.315232 
L 176.851237 186.572263 
L 177.176216 185.20793 
L 177.501196 257.208665 
L 177.826175 142.84531 
L 178.151155 143.598675 
L 178.476134 184.539977 
L 179.126093 200.443229 
L 179.451073 184.830512 
L 179.776052 199.939667 
L 180.101032 186.347982 
L 180.426011 197.248616 
L 180.750991 184.094998 
L 181.075971 182.672549 
L 181.40095 193.13438 
L 181.72593 234.063249 
L 182.050909 216.481452 
L 182.375889 181.362981 
L 182.700868 182.010445 
L 183.025848 181.767227 
L 183.350827 231.379821 
L 183.675807 238.03673 
L 184.000786 177.633704 
L 184.325766 188.174701 
L 184.650745 176.472054 
L 184.975725 192.043898 
L 185.300704 177.880424 
L 185.625684 183.332434 
L 185.950663 220.840436 
L 186.275643 182.67165 
L 186.600622 190.304704 
L 186.925602 181.399254 
L 187.250581 222.764615 
L 187.575561 235.16509 
L 187.900541 186.696995 
L 188.22552 235.351055 
L 188.5505 182.024396 
L 188.875479 229.952935 
L 189.525438 180.311388 
L 189.850418 206.600732 
L 190.175397 187.984288 
L 190.500377 231.225424 
L 190.825356 254.431826 
L 191.150336 181.208607 
L 191.475315 180.1588 
L 191.800295 185.638444 
L 192.125274 179.403101 
L 192.450254 208.897472 
L 192.775233 183.520034 
L 193.100213 179.561619 
L 193.425192 234.217623 
L 193.750172 195.229312 
L 194.075152 127.603228 
L 194.400131 186.506057 
L 195.37507 171.759061 
L 195.700049 174.542692 
L 196.025029 169.105415 
L 196.350008 173.523904 
L 196.674988 232.329641 
L 196.999967 171.06031 
L 197.324947 167.801288 
L 197.649926 170.195943 
L 197.974906 235.212786 
L 198.299885 171.784593 
L 198.624865 218.285651 
L 199.274824 124.020643 
L 199.599803 126.365996 
L 199.924783 179.315167 
L 200.249762 126.688753 
L 200.574742 174.312853 
L 200.899722 132.459387 
L 201.224701 170.732136 
L 201.549681 191.674384 
L 201.87466 182.308965 
L 202.524619 131.710401 
L 202.849599 130.333237 
L 203.174578 133.747077 
L 203.824537 179.51171 
L 204.149517 132.899696 
L 204.474496 189.325879 
L 204.799476 171.551124 
L 205.124455 192.417312 
L 205.449435 177.433414 
L 205.774414 174.790136 
L 206.099394 174.921977 
L 206.424373 171.86251 
L 206.749353 132.405357 
L 207.074333 181.707476 
L 207.399312 160.148165 
L 207.724292 181.255889 
L 208.049271 131.797867 
L 208.374251 220.904611 
L 208.69923 169.031199 
L 209.02421 136.111915 
L 209.349189 173.558718 
L 209.674169 175.847426 
L 209.999148 129.31898 
L 210.324128 142.971455 
L 210.649107 180.787048 
L 210.974087 179.300901 
L 211.299066 129.19538 
L 211.624046 174.004269 
L 211.949025 175.228226 
L 212.274005 218.120443 
L 212.598984 173.445836 
L 212.923964 174.468558 
L 213.248943 181.488717 
L 213.573923 225.80953 
L 213.898903 172.168899 
L 214.223882 172.256085 
L 214.548862 186.862892 
L 214.873841 172.088566 
L 215.198821 171.753433 
L 215.5238 172.36397 
L 215.84878 202.797047 
L 216.173759 176.53965 
L 216.498739 171.230211 
L 216.823718 234.612681 
L 217.148698 169.084272 
L 217.473677 185.772714 
L 217.798657 186.08577 
L 218.123636 199.118707 
L 218.448616 169.165306 
L 218.773595 181.010862 
L 219.098575 176.177246 
L 219.423554 192.496839 
L 219.748534 218.273031 
L 220.073514 188.728768 
L 220.398493 197.763701 
L 220.723473 212.436575 
L 221.048452 190.026299 
L 221.698411 187.607372 
L 222.34837 189.565221 
L 222.67335 188.191699 
L 222.998329 198.114979 
L 223.323309 191.182088 
L 223.648288 189.373266 
L 223.973268 190.432576 
L 224.298247 187.134736 
L 224.623227 196.02718 
L 224.948206 237.99093 
L 225.273186 189.468847 
L 225.598165 187.754309 
L 225.923145 197.647025 
L 226.248124 201.130171 
L 226.573104 188.603067 
L 226.898084 219.15439 
L 227.223063 237.456506 
L 227.548043 185.930403 
L 227.873022 261.35013 
L 228.198002 186.574622 
L 228.522981 184.95466 
L 228.847961 186.047862 
L 229.17294 197.130807 
L 229.49792 183.650078 
L 229.822899 184.674656 
L 230.147879 177.79667 
L 230.472858 185.723447 
L 230.797838 182.909439 
L 231.122817 191.732851 
L 231.447797 142.945992 
L 231.772776 180.930237 
L 232.097756 158.275156 
L 232.422735 145.06815 
L 232.747715 144.211173 
L 233.072695 143.786508 
L 233.397674 171.010413 
L 233.722654 168.239192 
L 234.047633 170.298353 
L 234.372613 143.919891 
L 234.697592 166.702856 
L 235.022572 144.047926 
L 235.347551 143.416107 
L 235.672531 185.496726 
L 235.99751 196.449896 
L 236.32249 191.562144 
L 236.647469 157.836399 
L 236.972449 232.525886 
L 237.297428 159.408576 
L 237.622408 183.760765 
L 237.947387 263.808747 
L 238.272367 157.98141 
L 238.597346 183.844717 
L 238.922326 243.407648 
L 239.572285 141.705819 
L 240.547224 215.901958 
L 240.872203 159.852271 
L 241.197183 135.829879 
L 241.522162 167.49867 
L 241.847142 139.620495 
L 242.172121 135.981766 
L 242.82208 185.143883 
L 243.14706 134.572217 
L 243.472039 146.888168 
L 243.797019 136.036906 
L 244.121998 183.110709 
L 244.446978 136.864159 
L 244.771957 136.101233 
L 245.096937 132.598654 
L 245.421916 132.378984 
L 245.746896 181.494379 
L 246.071876 133.694634 
L 246.396855 132.39492 
L 246.721835 134.117642 
L 247.046814 133.460219 
L 247.371794 181.416101 
L 247.696773 133.438808 
L 248.021753 224.292971 
L 248.346732 131.268644 
L 248.671712 194.623398 
L 248.996691 146.95246 
L 249.321671 131.063929 
L 249.64665 208.701396 
L 249.97163 135.355959 
L 250.296609 178.064347 
L 250.621589 141.726763 
L 250.946568 128.745953 
L 251.271548 135.015293 
L 251.596527 189.267296 
L 251.921507 178.735965 
L 252.246486 142.179284 
L 252.571466 193.636062 
L 252.896446 132.63571 
L 253.221425 129.671612 
L 253.546405 156.350521 
L 253.871384 132.896498 
L 254.196364 130.207887 
L 254.521343 137.675103 
L 254.846323 136.496653 
L 255.171302 141.109245 
L 255.496282 130.720637 
L 255.821261 159.11085 
L 256.146241 207.367114 
L 256.47122 208.639848 
L 256.7962 131.476523 
L 257.121179 155.772323 
L 257.446159 160.809043 
L 257.771138 178.561464 
L 258.096118 143.227596 
L 258.421097 134.265769 
L 258.746077 190.903193 
L 259.071057 137.343018 
L 259.396036 191.416141 
L 259.721016 218.472001 
L 260.045995 210.694275 
L 260.370975 192.97062 
L 260.695954 194.737821 
L 261.670893 190.831113 
L 261.995872 206.342016 
L 262.320852 191.58219 
L 262.645831 191.591133 
L 262.970811 190.202528 
L 263.29579 239.424792 
L 263.62077 190.500768 
L 263.945749 238.502624 
L 264.270729 200.299013 
L 264.595708 191.854898 
L 264.920688 191.366069 
L 265.245667 196.056507 
L 265.570647 216.154002 
L 265.895627 190.116334 
L 266.220606 189.952702 
L 266.545586 213.261703 
L 266.870565 196.063383 
L 267.195545 190.533235 
L 267.520524 188.431508 
L 267.845504 192.69602 
L 268.170483 203.161698 
L 268.495463 245.073344 
L 268.820442 191.440483 
L 269.145422 237.8995 
L 269.470401 190.77957 
L 269.795381 191.238267 
L 270.12036 231.937268 
L 270.770319 140.383829 
L 271.095299 184.845631 
L 271.420278 187.087792 
L 271.745258 145.314648 
L 272.070238 152.910822 
L 272.395217 186.131651 
L 272.720197 180.335076 
L 273.045176 235.865253 
L 273.370156 182.038884 
L 273.695135 189.632303 
L 274.020115 211.902909 
L 274.345094 140.853663 
L 274.670074 139.780904 
L 274.995053 181.020214 
L 275.320033 184.853149 
L 275.645012 186.3868 
L 275.969992 182.070873 
L 276.294971 182.365155 
L 276.619951 180.119562 
L 276.94493 180.029025 
L 277.26991 205.829616 
L 277.594889 192.345279 
L 277.919869 232.572397 
L 278.244848 178.451419 
L 278.894808 178.255402 
L 279.219787 225.633389 
L 279.544767 227.859416 
L 279.869746 178.00316 
L 280.194726 174.717543 
L 280.519705 177.552344 
L 280.844685 140.484184 
L 281.169664 185.045232 
L 281.819623 233.272099 
L 282.144603 183.02392 
L 282.469582 195.856766 
L 282.794562 184.252209 
L 283.119541 230.342605 
L 283.444521 187.232348 
L 283.7695 182.54317 
L 284.09448 231.229861 
L 284.419459 196.583535 
L 284.744439 183.574695 
L 285.069419 183.554673 
L 285.394398 184.974402 
L 285.719378 185.072749 
L 286.044357 183.608539 
L 286.369337 183.620004 
L 286.694316 186.42758 
L 287.019296 183.814573 
L 287.344275 183.756294 
L 287.669255 211.910784 
L 287.994234 184.839455 
L 288.319214 194.524631 
L 288.644193 214.895376 
L 288.969173 187.053749 
L 289.294152 183.802152 
L 289.619132 193.523554 
L 289.944111 181.336958 
L 290.269091 184.945344 
L 290.59407 183.714802 
L 290.91905 183.859427 
L 291.244029 183.459746 
L 291.569009 186.149606 
L 291.893989 183.740148 
L 292.218968 185.694447 
L 292.543948 215.946491 
L 292.868927 184.571756 
L 293.193907 182.595181 
L 293.518886 142.576957 
L 293.843866 53.568 
L 294.168845 84.852298 
L 294.493825 203.00722 
L 294.818804 141.307281 
L 295.143784 151.141939 
L 295.468763 139.853462 
L 295.793743 184.603639 
L 296.118722 133.272304 
L 296.768681 136.728173 
L 297.093661 151.635987 
L 297.41864 234.141644 
L 297.74362 137.175732 
L 298.0686 137.93714 
L 298.393579 151.64828 
L 298.718559 135.266916 
L 299.043538 187.192992 
L 299.368518 135.365777 
L 299.693497 194.730968 
L 300.018477 134.925223 
L 300.343456 146.167037 
L 300.668436 138.675666 
L 300.993415 235.855861 
L 301.318395 162.460421 
L 301.643374 183.841308 
L 301.968354 137.54374 
L 302.293333 150.680312 
L 302.618313 185.827632 
L 302.943292 138.792552 
L 303.268272 137.620816 
L 303.593251 186.303046 
L 303.918231 136.989299 
L 304.24321 144.376252 
L 304.56819 138.978483 
L 304.89317 140.25995 
L 305.218149 136.671014 
L 305.543129 137.660626 
L 306.193088 231.027165 
L 306.518067 132.150465 
L 306.843047 195.490229 
L 307.168026 147.709525 
L 307.493006 149.650691 
L 307.817985 136.504346 
L 308.142965 139.480586 
L 308.467944 141.360214 
L 308.792924 137.153503 
L 309.442883 140.802108 
L 309.767862 138.450661 
L 310.092842 154.966236 
L 310.417821 190.772892 
L 310.742801 204.969691 
L 311.067781 188.643543 
L 311.39276 140.309905 
L 311.71774 140.69539 
L 312.042719 139.663877 
L 312.367699 141.01468 
L 312.692678 140.253283 
L 313.017658 142.868099 
L 313.667617 198.806422 
L 313.992596 143.965363 
L 314.317576 143.67226 
L 314.642555 141.398729 
L 314.967535 144.031932 
L 315.292514 144.855741 
L 315.617494 143.332493 
L 315.942473 153.88848 
L 316.267453 147.339871 
L 316.592432 197.968953 
L 316.917412 146.173376 
L 317.242391 137.625205 
L 317.567371 173.488075 
L 317.892351 137.695241 
L 318.21733 196.671375 
L 318.867289 146.712791 
L 319.517248 149.390265 
L 319.842228 149.576452 
L 320.167207 147.833066 
L 320.492187 150.515105 
L 320.817166 148.437953 
L 321.142146 147.606695 
L 321.467125 171.703618 
L 321.792105 148.825504 
L 322.117084 195.609473 
L 322.442064 147.198865 
L 322.767043 152.327522 
L 323.092023 145.745828 
L 323.417002 150.836531 
L 323.741982 146.498678 
L 324.066962 146.548786 
L 324.391941 147.665407 
L 324.716921 209.663498 
L 325.0419 198.042106 
L 325.36688 155.856696 
L 325.691859 169.400889 
L 326.016839 146.050209 
L 326.341818 150.25023 
L 326.666798 167.286144 
L 326.991777 137.001207 
L 327.316757 90.723684 
L 327.641736 148.862139 
L 327.966716 153.487549 
L 328.291695 192.333289 
L 328.941654 138.963656 
L 329.266634 186.915615 
L 329.591613 138.700673 
L 329.916593 154.248502 
L 330.241572 138.749006 
L 330.566552 188.154644 
L 330.891532 148.078841 
L 331.216511 139.047445 
L 331.541491 145.10566 
L 331.86647 140.956377 
L 332.19145 140.499945 
L 332.516429 144.417592 
L 332.841409 195.91654 
L 333.166388 143.202239 
L 333.491368 141.606818 
L 333.816347 141.481432 
L 334.141327 166.748889 
L 334.466306 211.262129 
L 335.116265 165.546191 
L 335.766224 236.199842 
L 336.091204 202.264403 
L 336.416183 234.841288 
L 336.741163 144.278337 
L 337.066143 182.463724 
L 337.391122 183.296488 
L 337.716102 245.617826 
L 338.041081 232.93298 
L 338.69104 138.439768 
L 339.01602 175.258592 
L 339.340999 136.183306 
L 339.665979 184.632207 
L 339.990958 160.724915 
L 340.315938 154.935578 
L 340.640917 134.24186 
L 340.965897 141.578939 
L 341.290876 135.736867 
L 341.615856 154.14489 
L 341.940835 144.94413 
L 342.265815 155.727749 
L 342.590794 144.15301 
L 343.240753 133.44607 
L 343.565733 133.427986 
L 343.890713 134.809201 
L 344.215692 180.50033 
L 344.540672 181.123966 
L 344.865651 131.412336 
L 345.190631 131.625316 
L 345.51561 146.617573 
L 345.84059 204.035107 
L 346.165569 139.148524 
L 346.490549 133.465601 
L 346.815528 146.360707 
L 347.140508 133.08321 
L 347.465487 176.908954 
L 347.790467 134.143302 
L 348.115446 182.453135 
L 348.440426 132.877386 
L 348.765405 135.436409 
L 349.090385 180.470408 
L 349.415364 182.406682 
L 349.740344 126.775764 
L 350.065324 141.887464 
L 350.390303 130.176902 
L 350.715283 103.451925 
L 351.040262 144.349482 
L 351.365242 147.175259 
L 351.690221 161.116564 
L 352.015201 166.557016 
L 352.34018 199.050153 
L 352.66516 145.701709 
L 352.990139 181.65131 
L 353.315119 146.144843 
L 353.640098 147.938313 
L 353.965078 169.112186 
L 354.290057 151.613536 
L 354.615037 152.061586 
L 354.940016 144.448472 
L 355.264996 144.582975 
L 355.589975 146.110123 
L 355.914955 145.032122 
L 356.239934 193.585651 
L 356.564914 150.551238 
L 356.889894 143.342346 
L 357.214873 163.056282 
L 357.539853 145.175685 
L 357.864832 192.831294 
L 358.189812 194.538769 
L 358.514791 194.348461 
L 358.839771 143.650615 
L 359.16475 144.627887 
L 359.48973 143.672423 
L 359.814709 142.213397 
L 360.139689 146.701385 
L 360.464668 199.392348 
L 360.789648 145.797138 
L 361.114627 144.317821 
L 361.439607 147.471865 
L 361.764586 202.039649 
L 362.089566 141.15139 
L 362.414545 142.314803 
L 363.064505 146.946623 
L 363.389484 140.94629 
L 363.714464 144.90216 
L 364.039443 126.111326 
L 364.364423 216.961887 
L 364.689402 123.885147 
L 365.014382 130.16176 
L 365.339361 121.69112 
L 365.664341 124.997005 
L 365.98932 123.217299 
L 366.639279 236.857982 
L 366.964259 125.059382 
L 367.289238 140.565346 
L 367.614218 176.990922 
L 367.939197 138.115528 
L 368.264177 155.375817 
L 368.589156 133.756872 
L 368.914136 125.917538 
L 369.239115 188.235094 
L 369.564095 127.586358 
L 369.889075 196.102412 
L 370.214054 170.006137 
L 370.539034 127.292764 
L 370.864013 128.048464 
L 371.188993 205.146247 
L 371.513972 127.080974 
L 371.838952 129.352988 
L 372.163931 127.893775 
L 372.488911 142.46237 
L 372.81389 130.541431 
L 373.13887 178.823502 
L 373.463849 130.461857 
L 373.788829 128.428555 
L 374.113808 191.647439 
L 374.438788 132.083861 
L 374.763767 130.09783 
L 375.088747 130.07364 
L 375.413726 130.942805 
L 375.738706 135.435113 
L 376.063686 131.00628 
L 376.388665 166.423575 
L 376.713645 134.810765 
L 377.038624 156.709423 
L 377.363604 144.076646 
L 377.688583 136.130314 
L 378.013563 143.098124 
L 378.338542 121.759102 
L 378.663522 175.159008 
L 378.988501 157.370686 
L 379.313481 125.384661 
L 379.63846 130.404604 
L 379.96344 131.670684 
L 380.288419 174.308825 
L 380.613399 125.530057 
L 380.938378 125.710862 
L 381.263358 140.099388 
L 381.588337 128.612839 
L 381.913317 178.818738 
L 382.238296 146.898465 
L 382.563276 130.494779 
L 382.888256 126.54756 
L 383.213235 146.864188 
L 383.538215 129.803862 
L 383.863194 126.543404 
L 384.188174 183.068786 
L 384.838133 123.478274 
L 385.163112 127.029338 
L 385.488092 199.078744 
L 385.813071 125.659867 
L 386.138051 122.838177 
L 386.46303 177.512673 
L 386.78801 143.975147 
L 387.112989 146.395078 
L 387.762948 105.016793 
L 388.087928 111.807954 
L 388.412907 130.52239 
L 388.737887 121.624843 
L 389.062867 122.83757 
L 389.387846 198.348519 
L 389.712826 170.890818 
L 390.037805 133.580305 
L 390.362785 132.052748 
L 390.687764 145.66086 
L 391.012744 128.866085 
L 391.337723 169.96607 
L 391.662703 181.432305 
L 391.987682 121.626863 
L 392.312662 121.433823 
L 392.637641 138.537567 
L 392.962621 122.01808 
L 393.2876 169.598949 
L 393.61258 126.535022 
L 393.937559 124.624338 
L 394.262539 170.295983 
L 394.587518 190.587335 
L 394.912498 121.878989 
L 395.237477 122.789459 
L 395.562457 124.589058 
L 395.887437 128.189727 
L 396.212416 182.332396 
L 396.537396 123.216961 
L 396.862375 122.580471 
L 397.512334 123.376168 
L 397.837314 122.215907 
L 398.162293 154.041161 
L 398.487273 173.214188 
L 398.487273 173.214188 
" clip-path="url(#p6acdce10c4)" style="fill: none; stroke: #0000ff; stroke-width: 1.5; stroke-linecap: square"/>
   </g>
   <g id="patch_3">
    <path d="M 57.6 307.584 
L 57.6 41.472 
" style="fill: none; stroke: #000000; stroke-width: 0.8; stroke-linejoin: miter; stroke-linecap: square"/>
   </g>
   <g id="patch_4">
    <path d="M 414.72 307.584 
L 414.72 41.472 
" style="fill: none; stroke: #000000; stroke-width: 0.8; stroke-linejoin: miter; stroke-linecap: square"/>
   </g>
   <g id="patch_5">
    <path d="M 57.6 307.584 
L 414.72 307.584 
" style="fill: none; stroke: #000000; stroke-width: 0.8; stroke-linejoin: miter; stroke-linecap: square"/>
   </g>
   <g id="patch_6">
    <path d="M 57.6 41.472 
L 414.72 41.472 
" style="fill: none; stroke: #000000; stroke-width: 0.8; stroke-linejoin: miter; stroke-linecap: square"/>
   </g>
   <g id="legend_1">
    <g id="patch_7">
     <path d="M 311.155937 78.82825 
L 407.72 78.82825 
Q 409.72 78.82825 409.72 76.82825 
L 409.72 48.472 
Q 409.72 46.472 407.72 46.472 
L 311.155937 46.472 
Q 309.155937 46.472 309.155937 48.472 
L 309.155937 76.82825 
Q 309.155937 78.82825 311.155937 78.82825 
z
" style="fill: #ffffff; opacity: 0.8; stroke: #cccccc; stroke-linejoin: miter"/>
    </g>
    <g id="line2d_15">
     <path d="M 313.155937 54.570437 
L 323.155937 54.570437 
L 333.155937 54.570437 
" style="fill: none; stroke-dasharray: 5.55,2.4; stroke-dashoffset: 0; stroke: #ff0000; stroke-width: 1.5"/>
    </g>
    <g id="text_15">
     <!-- Training Loss -->
     <g transform="translate(341.155937 58.070437) scale(0.1 -0.1)">
      <defs>
       <path id="DejaVuSans-54" d="M -19 4666 
L 3928 4666 
L 3928 4134 
L 2272 4134 
L 2272 0 
L 1638 0 
L 1638 4134 
L -19 4134 
L -19 4666 
z
" transform="scale(0.015625)"/>
       <path id="DejaVuSans-72" d="M 2631 2963 
Q 2534 3019 2420 3045 
Q 2306 3072 2169 3072 
Q 1681 3072 1420 2755 
Q 1159 2438 1159 1844 
L 1159 0 
L 581 0 
L 581 3500 
L 1159 3500 
L 1159 2956 
Q 1341 3275 1631 3429 
Q 1922 3584 2338 3584 
Q 2397 3584 2469 3576 
Q 2541 3569 2628 3553 
L 2631 2963 
z
" transform="scale(0.015625)"/>
       <path id="DejaVuSans-61" d="M 2194 1759 
Q 1497 1759 1228 1600 
Q 959 1441 959 1056 
Q 959 750 1161 570 
Q 1363 391 1709 391 
Q 2188 391 2477 730 
Q 2766 1069 2766 1631 
L 2766 1759 
L 2194 1759 
z
M 3341 1997 
L 3341 0 
L 2766 0 
L 2766 531 
Q 2569 213 2275 61 
Q 1981 -91 1556 -91 
Q 1019 -91 701 211 
Q 384 513 384 1019 
Q 384 1609 779 1909 
Q 1175 2209 1959 2209 
L 2766 2209 
L 2766 2266 
Q 2766 2663 2505 2880 
Q 2244 3097 1772 3097 
Q 1472 3097 1187 3025 
Q 903 2953 641 2809 
L 641 3341 
Q 956 3463 1253 3523 
Q 1550 3584 1831 3584 
Q 2591 3584 2966 3190 
Q 3341 2797 3341 1997 
z
" transform="scale(0.015625)"/>
       <path id="DejaVuSans-69" d="M 603 3500 
L 1178 3500 
L 1178 0 
L 603 0 
L 603 3500 
z
M 603 4863 
L 1178 4863 
L 1178 4134 
L 603 4134 
L 603 4863 
z
" transform="scale(0.015625)"/>
       <path id="DejaVuSans-6e" d="M 3513 2113 
L 3513 0 
L 2938 0 
L 2938 2094 
Q 2938 2591 2744 2837 
Q 2550 3084 2163 3084 
Q 1697 3084 1428 2787 
Q 1159 2491 1159 1978 
L 1159 0 
L 581 0 
L 581 3500 
L 1159 3500 
L 1159 2956 
Q 1366 3272 1645 3428 
Q 1925 3584 2291 3584 
Q 2894 3584 3203 3211 
Q 3513 2838 3513 2113 
z
" transform="scale(0.015625)"/>
       <path id="DejaVuSans-67" d="M 2906 1791 
Q 2906 2416 2648 2759 
Q 2391 3103 1925 3103 
Q 1463 3103 1205 2759 
Q 947 2416 947 1791 
Q 947 1169 1205 825 
Q 1463 481 1925 481 
Q 2391 481 2648 825 
Q 2906 1169 2906 1791 
z
M 3481 434 
Q 3481 -459 3084 -895 
Q 2688 -1331 1869 -1331 
Q 1566 -1331 1297 -1286 
Q 1028 -1241 775 -1147 
L 775 -588 
Q 1028 -725 1275 -790 
Q 1522 -856 1778 -856 
Q 2344 -856 2625 -561 
Q 2906 -266 2906 331 
L 2906 616 
Q 2728 306 2450 153 
Q 2172 0 1784 0 
Q 1141 0 747 490 
Q 353 981 353 1791 
Q 353 2603 747 3093 
Q 1141 3584 1784 3584 
Q 2172 3584 2450 3431 
Q 2728 3278 2906 2969 
L 2906 3500 
L 3481 3500 
L 3481 434 
z
" transform="scale(0.015625)"/>
       <path id="DejaVuSans-20" transform="scale(0.015625)"/>
      </defs>
      <use xlink:href="#DejaVuSans-54"/>
      <use xlink:href="#DejaVuSans-72" x="46.333984"/>
      <use xlink:href="#DejaVuSans-61" x="87.447266"/>
      <use xlink:href="#DejaVuSans-69" x="148.726562"/>
      <use xlink:href="#DejaVuSans-6e" x="176.509766"/>
      <use xlink:href="#DejaVuSans-69" x="239.888672"/>
      <use xlink:href="#DejaVuSans-6e" x="267.671875"/>
      <use xlink:href="#DejaVuSans-67" x="331.050781"/>
      <use xlink:href="#DejaVuSans-20" x="394.527344"/>
      <use xlink:href="#DejaVuSans-4c" x="426.314453"/>
      <use xlink:href="#DejaVuSans-6f" x="480.277344"/>
      <use xlink:href="#DejaVuSans-73" x="541.458984"/>
      <use xlink:href="#DejaVuSans-73" x="593.558594"/>
     </g>
    </g>
    <g id="line2d_16">
     <path d="M 313.155937 69.248562 
L 323.155937 69.248562 
L 333.155937 69.248562 
" style="fill: none; stroke: #0000ff; stroke-width: 1.5; stroke-linecap: square"/>
    </g>
    <g id="text_16">
     <!-- Test Loss -->
     <g transform="translate(341.155937 72.748562) scale(0.1 -0.1)">
      <defs>
       <path id="DejaVuSans-65" d="M 3597 1894 
L 3597 1613 
L 953 1613 
Q 991 1019 1311 708 
Q 1631 397 2203 397 
Q 2534 397 2845 478 
Q 3156 559 3463 722 
L 3463 178 
Q 3153 47 2828 -22 
Q 2503 -91 2169 -91 
Q 1331 -91 842 396 
Q 353 884 353 1716 
Q 353 2575 817 3079 
Q 1281 3584 2069 3584 
Q 2775 3584 3186 3129 
Q 3597 2675 3597 1894 
z
M 3022 2063 
Q 3016 2534 2758 2815 
Q 2500 3097 2075 3097 
Q 1594 3097 1305 2825 
Q 1016 2553 972 2059 
L 3022 2063 
z
" transform="scale(0.015625)"/>
       <path id="DejaVuSans-74" d="M 1172 4494 
L 1172 3500 
L 2356 3500 
L 2356 3053 
L 1172 3053 
L 1172 1153 
Q 1172 725 1289 603 
Q 1406 481 1766 481 
L 2356 481 
L 2356 0 
L 1766 0 
Q 1100 0 847 248 
Q 594 497 594 1153 
L 594 3053 
L 172 3053 
L 172 3500 
L 594 3500 
L 594 4494 
L 1172 4494 
z
" transform="scale(0.015625)"/>
      </defs>
      <use xlink:href="#DejaVuSans-54"/>
      <use xlink:href="#DejaVuSans-65" x="44.083984"/>
      <use xlink:href="#DejaVuSans-73" x="105.607422"/>
      <use xlink:href="#DejaVuSans-74" x="157.707031"/>
      <use xlink:href="#DejaVuSans-20" x="196.916016"/>
      <use xlink:href="#DejaVuSans-4c" x="228.703125"/>
      <use xlink:href="#DejaVuSans-6f" x="282.666016"/>
      <use xlink:href="#DejaVuSans-73" x="343.847656"/>
      <use xlink:href="#DejaVuSans-73" x="395.947266"/>
     </g>
    </g>
   </g>
  </g>
 </g>
 <defs>
  <clipPath id="p6acdce10c4">
   <rect x="57.6" y="41.472" width="357.12" height="266.112"/>
  </clipPath>
 </defs>
</svg>
