<?xml version="1.0" encoding="utf-8" standalone="no"?>
<!DOCTYPE svg PUBLIC "-//W3C//DTD SVG 1.1//EN"
  "http://www.w3.org/Graphics/SVG/1.1/DTD/svg11.dtd">
<svg xmlns:xlink="http://www.w3.org/1999/xlink" width="460.8pt" height="345.6pt" viewBox="0 0 460.8 345.6" xmlns="http://www.w3.org/2000/svg" version="1.1">
 <metadata>
  <rdf:RDF xmlns:dc="http://purl.org/dc/elements/1.1/" xmlns:cc="http://creativecommons.org/ns#" xmlns:rdf="http://www.w3.org/1999/02/22-rdf-syntax-ns#">
   <cc:Work>
    <dc:type rdf:resource="http://purl.org/dc/dcmitype/StillImage"/>
    <dc:date>2024-08-18T21:14:48.277538</dc:date>
    <dc:format>image/svg+xml</dc:format>
    <dc:creator>
     <cc:Agent>
      <dc:title>Matplotlib v3.8.3, https://matplotlib.org/</dc:title>
     </cc:Agent>
    </dc:creator>
   </cc:Work>
  </rdf:RDF>
 </metadata>
 <defs>
  <style type="text/css">*{stroke-linejoin: round; stroke-linecap: butt}</style>
 </defs>
 <g id="figure_1">
  <g id="patch_1">
   <path d="M 0 345.6 
L 460.8 345.6 
L 460.8 0 
L 0 0 
z
" style="fill: #ffffff"/>
  </g>
  <g id="axes_1">
   <g id="patch_2">
    <path d="M 57.6 307.584 
L 414.72 307.584 
L 414.72 41.472 
L 57.6 41.472 
z
" style="fill: #ffffff"/>
   </g>
   <g id="matplotlib.axis_1">
    <g id="xtick_1">
     <g id="line2d_1">
      <defs>
       <path id="m3804122e2b" d="M 0 0 
L 0 3.5 
" style="stroke: #000000; stroke-width: 0.8"/>
      </defs>
      <g>
       <use xlink:href="#m3804122e2b" x="73.507748" y="307.584" style="stroke: #000000; stroke-width: 0.8"/>
      </g>
     </g>
     <g id="text_1">
      <!-- 0 -->
      <g transform="translate(70.326498 322.182437) scale(0.1 -0.1)">
       <defs>
        <path id="DejaVuSans-30" d="M 2034 4250 
Q 1547 4250 1301 3770 
Q 1056 3291 1056 2328 
Q 1056 1369 1301 889 
Q 1547 409 2034 409 
Q 2525 409 2770 889 
Q 3016 1369 3016 2328 
Q 3016 3291 2770 3770 
Q 2525 4250 2034 4250 
z
M 2034 4750 
Q 2819 4750 3233 4129 
Q 3647 3509 3647 2328 
Q 3647 1150 3233 529 
Q 2819 -91 2034 -91 
Q 1250 -91 836 529 
Q 422 1150 422 2328 
Q 422 3509 836 4129 
Q 1250 4750 2034 4750 
z
" transform="scale(0.015625)"/>
       </defs>
       <use xlink:href="#DejaVuSans-30"/>
      </g>
     </g>
    </g>
    <g id="xtick_2">
     <g id="line2d_2">
      <g>
       <use xlink:href="#m3804122e2b" x="138.503653" y="307.584" style="stroke: #000000; stroke-width: 0.8"/>
      </g>
     </g>
     <g id="text_2">
      <!-- 200 -->
      <g transform="translate(128.959903 322.182437) scale(0.1 -0.1)">
       <defs>
        <path id="DejaVuSans-32" d="M 1228 531 
L 3431 531 
L 3431 0 
L 469 0 
L 469 531 
Q 828 903 1448 1529 
Q 2069 2156 2228 2338 
Q 2531 2678 2651 2914 
Q 2772 3150 2772 3378 
Q 2772 3750 2511 3984 
Q 2250 4219 1831 4219 
Q 1534 4219 1204 4116 
Q 875 4013 500 3803 
L 500 4441 
Q 881 4594 1212 4672 
Q 1544 4750 1819 4750 
Q 2544 4750 2975 4387 
Q 3406 4025 3406 3419 
Q 3406 3131 3298 2873 
Q 3191 2616 2906 2266 
Q 2828 2175 2409 1742 
Q 1991 1309 1228 531 
z
" transform="scale(0.015625)"/>
       </defs>
       <use xlink:href="#DejaVuSans-32"/>
       <use xlink:href="#DejaVuSans-30" x="63.623047"/>
       <use xlink:href="#DejaVuSans-30" x="127.246094"/>
      </g>
     </g>
    </g>
    <g id="xtick_3">
     <g id="line2d_3">
      <g>
       <use xlink:href="#m3804122e2b" x="203.499558" y="307.584" style="stroke: #000000; stroke-width: 0.8"/>
      </g>
     </g>
     <g id="text_3">
      <!-- 400 -->
      <g transform="translate(193.955808 322.182437) scale(0.1 -0.1)">
       <defs>
        <path id="DejaVuSans-34" d="M 2419 4116 
L 825 1625 
L 2419 1625 
L 2419 4116 
z
M 2253 4666 
L 3047 4666 
L 3047 1625 
L 3713 1625 
L 3713 1100 
L 3047 1100 
L 3047 0 
L 2419 0 
L 2419 1100 
L 313 1100 
L 313 1709 
L 2253 4666 
z
" transform="scale(0.015625)"/>
       </defs>
       <use xlink:href="#DejaVuSans-34"/>
       <use xlink:href="#DejaVuSans-30" x="63.623047"/>
       <use xlink:href="#DejaVuSans-30" x="127.246094"/>
      </g>
     </g>
    </g>
    <g id="xtick_4">
     <g id="line2d_4">
      <g>
       <use xlink:href="#m3804122e2b" x="268.495463" y="307.584" style="stroke: #000000; stroke-width: 0.8"/>
      </g>
     </g>
     <g id="text_4">
      <!-- 600 -->
      <g transform="translate(258.951713 322.182437) scale(0.1 -0.1)">
       <defs>
        <path id="DejaVuSans-36" d="M 2113 2584 
Q 1688 2584 1439 2293 
Q 1191 2003 1191 1497 
Q 1191 994 1439 701 
Q 1688 409 2113 409 
Q 2538 409 2786 701 
Q 3034 994 3034 1497 
Q 3034 2003 2786 2293 
Q 2538 2584 2113 2584 
z
M 3366 4563 
L 3366 3988 
Q 3128 4100 2886 4159 
Q 2644 4219 2406 4219 
Q 1781 4219 1451 3797 
Q 1122 3375 1075 2522 
Q 1259 2794 1537 2939 
Q 1816 3084 2150 3084 
Q 2853 3084 3261 2657 
Q 3669 2231 3669 1497 
Q 3669 778 3244 343 
Q 2819 -91 2113 -91 
Q 1303 -91 875 529 
Q 447 1150 447 2328 
Q 447 3434 972 4092 
Q 1497 4750 2381 4750 
Q 2619 4750 2861 4703 
Q 3103 4656 3366 4563 
z
" transform="scale(0.015625)"/>
       </defs>
       <use xlink:href="#DejaVuSans-36"/>
       <use xlink:href="#DejaVuSans-30" x="63.623047"/>
       <use xlink:href="#DejaVuSans-30" x="127.246094"/>
      </g>
     </g>
    </g>
    <g id="xtick_5">
     <g id="line2d_5">
      <g>
       <use xlink:href="#m3804122e2b" x="333.491368" y="307.584" style="stroke: #000000; stroke-width: 0.8"/>
      </g>
     </g>
     <g id="text_5">
      <!-- 800 -->
      <g transform="translate(323.947618 322.182437) scale(0.1 -0.1)">
       <defs>
        <path id="DejaVuSans-38" d="M 2034 2216 
Q 1584 2216 1326 1975 
Q 1069 1734 1069 1313 
Q 1069 891 1326 650 
Q 1584 409 2034 409 
Q 2484 409 2743 651 
Q 3003 894 3003 1313 
Q 3003 1734 2745 1975 
Q 2488 2216 2034 2216 
z
M 1403 2484 
Q 997 2584 770 2862 
Q 544 3141 544 3541 
Q 544 4100 942 4425 
Q 1341 4750 2034 4750 
Q 2731 4750 3128 4425 
Q 3525 4100 3525 3541 
Q 3525 3141 3298 2862 
Q 3072 2584 2669 2484 
Q 3125 2378 3379 2068 
Q 3634 1759 3634 1313 
Q 3634 634 3220 271 
Q 2806 -91 2034 -91 
Q 1263 -91 848 271 
Q 434 634 434 1313 
Q 434 1759 690 2068 
Q 947 2378 1403 2484 
z
M 1172 3481 
Q 1172 3119 1398 2916 
Q 1625 2713 2034 2713 
Q 2441 2713 2670 2916 
Q 2900 3119 2900 3481 
Q 2900 3844 2670 4047 
Q 2441 4250 2034 4250 
Q 1625 4250 1398 4047 
Q 1172 3844 1172 3481 
z
" transform="scale(0.015625)"/>
       </defs>
       <use xlink:href="#DejaVuSans-38"/>
       <use xlink:href="#DejaVuSans-30" x="63.623047"/>
       <use xlink:href="#DejaVuSans-30" x="127.246094"/>
      </g>
     </g>
    </g>
    <g id="xtick_6">
     <g id="line2d_6">
      <g>
       <use xlink:href="#m3804122e2b" x="398.487273" y="307.584" style="stroke: #000000; stroke-width: 0.8"/>
      </g>
     </g>
     <g id="text_6">
      <!-- 1000 -->
      <g transform="translate(385.762273 322.182437) scale(0.1 -0.1)">
       <defs>
        <path id="DejaVuSans-31" d="M 794 531 
L 1825 531 
L 1825 4091 
L 703 3866 
L 703 4441 
L 1819 4666 
L 2450 4666 
L 2450 531 
L 3481 531 
L 3481 0 
L 794 0 
L 794 531 
z
" transform="scale(0.015625)"/>
       </defs>
       <use xlink:href="#DejaVuSans-31"/>
       <use xlink:href="#DejaVuSans-30" x="63.623047"/>
       <use xlink:href="#DejaVuSans-30" x="127.246094"/>
       <use xlink:href="#DejaVuSans-30" x="190.869141"/>
      </g>
     </g>
    </g>
    <g id="text_7">
     <!-- Epoch -->
     <g transform="translate(220.849063 335.860562) scale(0.1 -0.1)">
      <defs>
       <path id="DejaVuSans-45" d="M 628 4666 
L 3578 4666 
L 3578 4134 
L 1259 4134 
L 1259 2753 
L 3481 2753 
L 3481 2222 
L 1259 2222 
L 1259 531 
L 3634 531 
L 3634 0 
L 628 0 
L 628 4666 
z
" transform="scale(0.015625)"/>
       <path id="DejaVuSans-70" d="M 1159 525 
L 1159 -1331 
L 581 -1331 
L 581 3500 
L 1159 3500 
L 1159 2969 
Q 1341 3281 1617 3432 
Q 1894 3584 2278 3584 
Q 2916 3584 3314 3078 
Q 3713 2572 3713 1747 
Q 3713 922 3314 415 
Q 2916 -91 2278 -91 
Q 1894 -91 1617 61 
Q 1341 213 1159 525 
z
M 3116 1747 
Q 3116 2381 2855 2742 
Q 2594 3103 2138 3103 
Q 1681 3103 1420 2742 
Q 1159 2381 1159 1747 
Q 1159 1113 1420 752 
Q 1681 391 2138 391 
Q 2594 391 2855 752 
Q 3116 1113 3116 1747 
z
" transform="scale(0.015625)"/>
       <path id="DejaVuSans-6f" d="M 1959 3097 
Q 1497 3097 1228 2736 
Q 959 2375 959 1747 
Q 959 1119 1226 758 
Q 1494 397 1959 397 
Q 2419 397 2687 759 
Q 2956 1122 2956 1747 
Q 2956 2369 2687 2733 
Q 2419 3097 1959 3097 
z
M 1959 3584 
Q 2709 3584 3137 3096 
Q 3566 2609 3566 1747 
Q 3566 888 3137 398 
Q 2709 -91 1959 -91 
Q 1206 -91 779 398 
Q 353 888 353 1747 
Q 353 2609 779 3096 
Q 1206 3584 1959 3584 
z
" transform="scale(0.015625)"/>
       <path id="DejaVuSans-63" d="M 3122 3366 
L 3122 2828 
Q 2878 2963 2633 3030 
Q 2388 3097 2138 3097 
Q 1578 3097 1268 2742 
Q 959 2388 959 1747 
Q 959 1106 1268 751 
Q 1578 397 2138 397 
Q 2388 397 2633 464 
Q 2878 531 3122 666 
L 3122 134 
Q 2881 22 2623 -34 
Q 2366 -91 2075 -91 
Q 1284 -91 818 406 
Q 353 903 353 1747 
Q 353 2603 823 3093 
Q 1294 3584 2113 3584 
Q 2378 3584 2631 3529 
Q 2884 3475 3122 3366 
z
" transform="scale(0.015625)"/>
       <path id="DejaVuSans-68" d="M 3513 2113 
L 3513 0 
L 2938 0 
L 2938 2094 
Q 2938 2591 2744 2837 
Q 2550 3084 2163 3084 
Q 1697 3084 1428 2787 
Q 1159 2491 1159 1978 
L 1159 0 
L 581 0 
L 581 4863 
L 1159 4863 
L 1159 2956 
Q 1366 3272 1645 3428 
Q 1925 3584 2291 3584 
Q 2894 3584 3203 3211 
Q 3513 2838 3513 2113 
z
" transform="scale(0.015625)"/>
      </defs>
      <use xlink:href="#DejaVuSans-45"/>
      <use xlink:href="#DejaVuSans-70" x="63.183594"/>
      <use xlink:href="#DejaVuSans-6f" x="126.660156"/>
      <use xlink:href="#DejaVuSans-63" x="187.841797"/>
      <use xlink:href="#DejaVuSans-68" x="242.822266"/>
     </g>
    </g>
   </g>
   <g id="matplotlib.axis_2">
    <g id="ytick_1">
     <g id="line2d_7">
      <defs>
       <path id="ma96be1a878" d="M 0 0 
L -3.5 0 
" style="stroke: #000000; stroke-width: 0.8"/>
      </defs>
      <g>
       <use xlink:href="#ma96be1a878" x="57.6" y="295.793875" style="stroke: #000000; stroke-width: 0.8"/>
      </g>
     </g>
     <g id="text_8">
      <!-- 0 -->
      <g transform="translate(44.2375 299.593094) scale(0.1 -0.1)">
       <use xlink:href="#DejaVuSans-30"/>
      </g>
     </g>
    </g>
    <g id="ytick_2">
     <g id="line2d_8">
      <g>
       <use xlink:href="#ma96be1a878" x="57.6" y="258.656573" style="stroke: #000000; stroke-width: 0.8"/>
      </g>
     </g>
     <g id="text_9">
      <!-- 1 -->
      <g transform="translate(44.2375 262.455792) scale(0.1 -0.1)">
       <use xlink:href="#DejaVuSans-31"/>
      </g>
     </g>
    </g>
    <g id="ytick_3">
     <g id="line2d_9">
      <g>
       <use xlink:href="#ma96be1a878" x="57.6" y="221.519271" style="stroke: #000000; stroke-width: 0.8"/>
      </g>
     </g>
     <g id="text_10">
      <!-- 2 -->
      <g transform="translate(44.2375 225.31849) scale(0.1 -0.1)">
       <use xlink:href="#DejaVuSans-32"/>
      </g>
     </g>
    </g>
    <g id="ytick_4">
     <g id="line2d_10">
      <g>
       <use xlink:href="#ma96be1a878" x="57.6" y="184.381969" style="stroke: #000000; stroke-width: 0.8"/>
      </g>
     </g>
     <g id="text_11">
      <!-- 3 -->
      <g transform="translate(44.2375 188.181188) scale(0.1 -0.1)">
       <defs>
        <path id="DejaVuSans-33" d="M 2597 2516 
Q 3050 2419 3304 2112 
Q 3559 1806 3559 1356 
Q 3559 666 3084 287 
Q 2609 -91 1734 -91 
Q 1441 -91 1130 -33 
Q 819 25 488 141 
L 488 750 
Q 750 597 1062 519 
Q 1375 441 1716 441 
Q 2309 441 2620 675 
Q 2931 909 2931 1356 
Q 2931 1769 2642 2001 
Q 2353 2234 1838 2234 
L 1294 2234 
L 1294 2753 
L 1863 2753 
Q 2328 2753 2575 2939 
Q 2822 3125 2822 3475 
Q 2822 3834 2567 4026 
Q 2313 4219 1838 4219 
Q 1578 4219 1281 4162 
Q 984 4106 628 3988 
L 628 4550 
Q 988 4650 1302 4700 
Q 1616 4750 1894 4750 
Q 2613 4750 3031 4423 
Q 3450 4097 3450 3541 
Q 3450 3153 3228 2886 
Q 3006 2619 2597 2516 
z
" transform="scale(0.015625)"/>
       </defs>
       <use xlink:href="#DejaVuSans-33"/>
      </g>
     </g>
    </g>
    <g id="ytick_5">
     <g id="line2d_11">
      <g>
       <use xlink:href="#ma96be1a878" x="57.6" y="147.244667" style="stroke: #000000; stroke-width: 0.8"/>
      </g>
     </g>
     <g id="text_12">
      <!-- 4 -->
      <g transform="translate(44.2375 151.043886) scale(0.1 -0.1)">
       <use xlink:href="#DejaVuSans-34"/>
      </g>
     </g>
    </g>
    <g id="ytick_6">
     <g id="line2d_12">
      <g>
       <use xlink:href="#ma96be1a878" x="57.6" y="110.107365" style="stroke: #000000; stroke-width: 0.8"/>
      </g>
     </g>
     <g id="text_13">
      <!-- 5 -->
      <g transform="translate(44.2375 113.906584) scale(0.1 -0.1)">
       <defs>
        <path id="DejaVuSans-35" d="M 691 4666 
L 3169 4666 
L 3169 4134 
L 1269 4134 
L 1269 2991 
Q 1406 3038 1543 3061 
Q 1681 3084 1819 3084 
Q 2600 3084 3056 2656 
Q 3513 2228 3513 1497 
Q 3513 744 3044 326 
Q 2575 -91 1722 -91 
Q 1428 -91 1123 -41 
Q 819 9 494 109 
L 494 744 
Q 775 591 1075 516 
Q 1375 441 1709 441 
Q 2250 441 2565 725 
Q 2881 1009 2881 1497 
Q 2881 1984 2565 2268 
Q 2250 2553 1709 2553 
Q 1456 2553 1204 2497 
Q 953 2441 691 2322 
L 691 4666 
z
" transform="scale(0.015625)"/>
       </defs>
       <use xlink:href="#DejaVuSans-35"/>
      </g>
     </g>
    </g>
    <g id="ytick_7">
     <g id="line2d_13">
      <g>
       <use xlink:href="#ma96be1a878" x="57.6" y="72.970064" style="stroke: #000000; stroke-width: 0.8"/>
      </g>
     </g>
     <g id="text_14">
      <!-- 6 -->
      <g transform="translate(44.2375 76.769282) scale(0.1 -0.1)">
       <use xlink:href="#DejaVuSans-36"/>
      </g>
     </g>
    </g>
    <g id="text_15">
     <!-- Loss -->
     <g transform="translate(38.157812 185.495187) rotate(-90) scale(0.1 -0.1)">
      <defs>
       <path id="DejaVuSans-4c" d="M 628 4666 
L 1259 4666 
L 1259 531 
L 3531 531 
L 3531 0 
L 628 0 
L 628 4666 
z
" transform="scale(0.015625)"/>
       <path id="DejaVuSans-73" d="M 2834 3397 
L 2834 2853 
Q 2591 2978 2328 3040 
Q 2066 3103 1784 3103 
Q 1356 3103 1142 2972 
Q 928 2841 928 2578 
Q 928 2378 1081 2264 
Q 1234 2150 1697 2047 
L 1894 2003 
Q 2506 1872 2764 1633 
Q 3022 1394 3022 966 
Q 3022 478 2636 193 
Q 2250 -91 1575 -91 
Q 1294 -91 989 -36 
Q 684 19 347 128 
L 347 722 
Q 666 556 975 473 
Q 1284 391 1588 391 
Q 1994 391 2212 530 
Q 2431 669 2431 922 
Q 2431 1156 2273 1281 
Q 2116 1406 1581 1522 
L 1381 1569 
Q 847 1681 609 1914 
Q 372 2147 372 2553 
Q 372 3047 722 3315 
Q 1072 3584 1716 3584 
Q 2034 3584 2315 3537 
Q 2597 3491 2834 3397 
z
" transform="scale(0.015625)"/>
      </defs>
      <use xlink:href="#DejaVuSans-4c"/>
      <use xlink:href="#DejaVuSans-6f" x="53.962891"/>
      <use xlink:href="#DejaVuSans-73" x="115.144531"/>
      <use xlink:href="#DejaVuSans-73" x="167.244141"/>
     </g>
    </g>
   </g>
   <g id="line2d_14">
    <path d="M 73.832727 282.18355 
L 74.807666 283.995776 
L 75.782604 284.190303 
L 76.432563 284.578564 
L 76.757543 284.59176 
L 77.082523 284.777751 
L 77.407502 284.665956 
L 77.732482 285.049136 
L 78.057461 284.973636 
L 78.382441 285.199726 
L 78.70742 285.192166 
L 79.0324 285.370319 
L 79.357379 285.366242 
L 79.682359 284.986408 
L 80.007338 285.421441 
L 80.657297 285.503455 
L 80.982277 285.71748 
L 81.307256 285.772879 
L 81.632236 285.489272 
L 81.957215 285.595559 
L 82.282195 286.015338 
L 82.932154 285.904092 
L 83.257133 286.236625 
L 84.232072 286.250538 
L 84.557052 286.353673 
L 84.882031 286.248572 
L 85.207011 286.487785 
L 85.53199 286.326319 
L 86.181949 286.650664 
L 86.506929 286.739557 
L 86.831908 286.554853 
L 87.156888 286.771535 
L 87.481867 286.846949 
L 87.806847 286.503004 
L 88.131826 287.003934 
L 88.456806 286.802603 
L 89.106765 287.310634 
L 89.431744 287.476737 
L 89.756724 287.336261 
L 90.406683 287.458135 
L 90.731663 286.444873 
L 91.056642 287.548991 
L 91.381622 287.524249 
L 91.706601 287.937231 
L 92.68154 288.132508 
L 93.006519 288.174124 
L 93.331499 288.358518 
L 93.656478 288.324714 
L 93.981458 288.416253 
L 94.306437 288.389587 
L 94.631417 288.196622 
L 94.956396 287.247887 
L 95.281376 288.439157 
L 95.606355 288.73736 
L 95.931335 288.569654 
L 96.256314 288.969758 
L 96.581294 289.101387 
L 96.906274 289.067806 
L 97.231253 288.885096 
L 97.556233 289.272237 
L 97.881212 289.000706 
L 98.206192 289.380497 
L 98.531171 288.349495 
L 98.856151 289.363262 
L 99.18113 288.193099 
L 99.50611 289.618135 
L 99.831089 289.566137 
L 100.156069 289.672672 
L 100.481048 289.588099 
L 101.455987 289.884788 
L 102.105946 289.7961 
L 102.430925 290.157849 
L 102.755905 290.29534 
L 103.405864 290.287179 
L 103.730844 289.499962 
L 104.055823 289.696408 
L 104.380803 290.152083 
L 104.705782 290.305028 
L 105.030762 290.599788 
L 105.355741 290.182164 
L 105.680721 290.616174 
L 106.0057 290.811606 
L 106.655659 290.598625 
L 106.980639 290.613978 
L 107.305618 290.97599 
L 107.630598 290.638195 
L 107.955577 291.154112 
L 108.280557 291.119512 
L 108.605536 290.756856 
L 108.930516 291.18733 
L 109.255495 290.976197 
L 109.580475 291.248578 
L 109.905455 290.835738 
L 110.230434 291.332368 
L 110.555414 291.332515 
L 110.880393 291.527256 
L 111.205373 291.109339 
L 111.530352 291.630728 
L 112.180311 291.364981 
L 112.83027 291.993056 
L 113.15525 291.15145 
L 113.480229 291.734535 
L 113.805209 291.730935 
L 114.130188 291.993862 
L 114.455168 291.940986 
L 114.780147 291.709406 
L 115.105127 292.109984 
L 115.430106 291.583429 
L 115.755086 291.573079 
L 116.080066 292.295175 
L 116.405045 292.364622 
L 116.730025 292.560902 
L 117.055004 291.871618 
L 117.379984 292.31797 
L 117.704963 291.606244 
L 118.354922 292.627011 
L 118.679902 291.249862 
L 119.004881 292.119205 
L 119.329861 291.836724 
L 119.65484 291.860249 
L 119.97982 292.50535 
L 120.304799 292.726973 
L 120.629779 292.678436 
L 120.954758 292.37302 
L 121.279738 292.646006 
L 121.604717 292.697806 
L 121.929697 292.504665 
L 122.254676 292.127396 
L 122.579656 292.960373 
L 123.229615 293.040178 
L 123.554595 292.462202 
L 123.879574 293.217937 
L 124.529533 293.16144 
L 124.854513 291.385056 
L 125.179492 292.785177 
L 125.504472 292.525289 
L 125.829451 292.796594 
L 126.154431 292.776669 
L 126.47941 293.322646 
L 126.80439 293.493588 
L 127.454349 293.262777 
L 127.779328 293.53483 
L 128.104308 293.557093 
L 128.429287 293.306605 
L 128.754267 293.554778 
L 129.079247 292.821814 
L 129.404226 292.665501 
L 129.729206 293.542357 
L 130.054185 293.526918 
L 130.379165 293.118876 
L 131.354103 293.696165 
L 131.679083 293.266012 
L 132.004062 293.647332 
L 132.329042 291.323588 
L 132.654021 293.721344 
L 133.30398 293.677749 
L 133.953939 293.805132 
L 134.278919 293.548708 
L 134.603898 293.762042 
L 134.928878 293.618498 
L 135.253857 293.769264 
L 135.903817 293.282368 
L 136.228796 291.761272 
L 136.553776 293.906063 
L 137.203735 293.834099 
L 137.528714 293.362869 
L 138.178673 293.550295 
L 138.503653 293.926972 
L 138.828632 293.872175 
L 139.478591 294.046361 
L 140.12855 291.25665 
L 140.45353 293.78768 
L 140.778509 294.150495 
L 141.103489 294.290234 
L 141.428468 294.187835 
L 141.753448 294.270226 
L 142.078428 293.745151 
L 142.728387 294.322747 
L 143.378346 294.211733 
L 143.703325 293.955893 
L 144.028305 294.237186 
L 144.353284 293.360661 
L 144.678264 294.269768 
L 145.003243 294.106537 
L 145.328223 294.24503 
L 145.653202 294.033828 
L 145.978182 292.66848 
L 146.303161 294.014952 
L 146.628141 294.436669 
L 146.95312 294.354934 
L 147.2781 294.491331 
L 147.928059 294.451734 
L 148.253038 293.412694 
L 148.578018 293.950208 
L 148.902998 293.929855 
L 149.227977 294.473222 
L 149.877936 294.556696 
L 150.202916 294.364314 
L 150.527895 294.552837 
L 150.852875 294.409925 
L 151.177854 294.636603 
L 151.502834 294.595482 
L 151.827813 294.348741 
L 152.152793 294.556868 
L 152.477772 293.926903 
L 152.802752 294.447478 
L 153.127731 294.262305 
L 153.452711 294.546283 
L 153.77769 294.403698 
L 154.427649 294.487345 
L 154.752629 294.619243 
L 155.077609 294.612285 
L 155.727568 291.152073 
L 156.052547 293.222833 
L 156.377527 294.398959 
L 156.702506 294.306089 
L 157.352465 294.734678 
L 160.92724 294.800754 
L 161.252219 294.668771 
L 161.577199 290.193673 
L 161.902179 293.386205 
L 162.227158 294.492762 
L 163.852056 294.870052 
L 164.177035 294.824482 
L 164.502015 294.912284 
L 164.826994 294.766327 
L 165.151974 294.748454 
L 165.801933 294.955299 
L 166.451892 294.953087 
L 166.776871 294.968426 
L 167.101851 293.445722 
L 167.42683 294.435961 
L 167.75181 294.817079 
L 168.07679 294.936192 
L 168.401769 294.779698 
L 168.726749 294.758455 
L 169.051728 293.978862 
L 169.376708 289.688529 
L 169.701687 293.619684 
L 170.026667 294.762591 
L 170.676626 294.907311 
L 171.326585 294.907677 
L 171.651564 294.772498 
L 171.976544 294.98424 
L 172.626503 294.67826 
L 172.951482 295.00195 
L 173.276462 294.749602 
L 173.601441 294.888966 
L 173.926421 294.608343 
L 174.57638 293.048771 
L 174.90136 294.565305 
L 176.526257 294.963793 
L 177.826175 295.032049 
L 178.151155 294.855449 
L 178.476134 294.825489 
L 179.126093 295.079529 
L 179.451073 295.08377 
L 179.776052 294.743305 
L 180.101032 294.94619 
L 180.426011 292.584433 
L 180.750991 292.450193 
L 181.075971 291.459773 
L 181.40095 294.522651 
L 181.72593 294.90511 
L 182.375889 295.054164 
L 184.650745 295.112146 
L 184.975725 295.056376 
L 185.625684 295.128348 
L 186.600622 295.136257 
L 186.925602 294.165993 
L 187.250581 293.602463 
L 187.575561 292.510708 
L 187.900541 294.63451 
L 188.22552 294.979678 
L 189.200459 294.868336 
L 189.525438 295.116752 
L 191.475315 295.169335 
L 191.800295 295.037754 
L 192.125274 281.952172 
L 192.450254 293.412618 
L 192.775233 294.561276 
L 193.100213 294.953883 
L 193.425192 295.117445 
L 198.299885 295.178854 
L 198.624865 294.895334 
L 198.949844 290.858048 
L 199.274824 291.155596 
L 199.599803 294.718943 
L 199.924783 295.083933 
L 203.174578 295.228392 
L 203.499558 295.102933 
L 204.474496 295.180713 
L 205.124455 295.11255 
L 205.774414 295.219303 
L 206.099394 295.12101 
L 206.424373 294.626442 
L 206.749353 294.58698 
L 207.399312 293.526399 
L 207.724292 294.593083 
L 208.049271 295.12263 
L 209.349189 295.211797 
L 211.624046 295.255163 
L 212.923964 295.140555 
L 213.248943 295.248245 
L 213.573923 295.199925 
L 214.223882 291.239373 
L 214.548862 294.661348 
L 214.873841 295.03274 
L 215.5238 295.185777 
L 219.748534 295.273193 
L 220.398493 295.269063 
L 222.023391 295.216401 
L 222.34837 293.683574 
L 222.67335 293.588769 
L 222.998329 294.251256 
L 223.323309 293.814785 
L 223.648288 294.999436 
L 223.973268 295.024405 
L 224.298247 295.227117 
L 226.898084 295.296323 
L 231.122817 295.308914 
L 231.447797 294.199589 
L 231.772776 292.219177 
L 232.097756 291.318339 
L 232.422735 294.689149 
L 232.747715 295.064463 
L 233.397674 295.246172 
L 238.597346 295.295134 
L 239.247305 295.141746 
L 239.572285 295.333042 
L 242.82208 295.387997 
L 243.14706 248.446977 
L 243.472039 291.201781 
L 243.797019 294.49947 
L 244.121998 295.068917 
L 244.446978 295.284952 
L 246.071876 295.372038 
L 251.271548 295.386118 
L 251.596527 293.744095 
L 251.921507 285.354252 
L 252.246486 293.393721 
L 252.896446 295.162099 
L 253.546405 295.331656 
L 253.871384 295.100946 
L 254.196364 295.359241 
L 256.47122 295.413097 
L 257.771138 295.41709 
L 261.020934 295.441951 
L 262.970811 295.432529 
L 263.29579 294.941626 
L 263.62077 286.184915 
L 263.945749 294.662315 
L 264.270729 290.926665 
L 264.595708 295.183079 
L 265.245667 295.344977 
L 268.170483 295.413199 
L 274.020115 295.444378 
L 274.345094 293.434976 
L 274.670074 293.392301 
L 274.995053 290.517416 
L 275.320033 294.976373 
L 275.645012 295.270143 
L 276.294971 295.380161 
L 278.894808 295.434196 
L 279.544767 295.429592 
L 284.09448 295.450032 
L 284.744439 295.448345 
L 285.069419 293.471074 
L 285.394398 275.78362 
L 285.719378 292.775806 
L 286.044357 295.129788 
L 286.369337 295.322773 
L 288.319214 295.415597 
L 294.493825 295.452862 
L 296.443702 295.456237 
L 296.768681 294.67069 
L 297.093661 288.354564 
L 297.41864 293.070416 
L 297.74362 294.611862 
L 298.0686 295.337116 
L 299.043538 295.417388 
L 307.493006 295.464085 
L 307.817985 295.417011 
L 308.142965 291.216381 
L 308.467944 290.284079 
L 308.792924 294.526117 
L 309.117903 295.20086 
L 309.767862 295.370926 
L 311.39276 295.427081 
L 312.367699 295.435029 
L 316.267453 295.391178 
L 316.592432 295.302816 
L 318.54231 295.46131 
L 323.092023 295.467817 
L 323.417002 289.113737 
L 323.741982 286.66092 
L 324.066962 294.219419 
L 324.391941 295.137881 
L 325.36688 295.389169 
L 329.591613 295.446835 
L 333.166388 295.448456 
L 333.491368 295.092182 
L 333.816347 292.235238 
L 334.466306 294.785872 
L 334.791286 295.289098 
L 336.416183 295.446574 
L 341.940835 295.478046 
L 345.190631 295.473726 
L 345.84059 290.549104 
L 346.165569 293.975111 
L 346.490549 292.113669 
L 346.815528 295.310939 
L 347.465487 295.41295 
L 352.34018 295.463064 
L 360.139689 295.464363 
L 360.464668 277.140644 
L 360.789648 292.501998 
L 361.114627 294.688398 
L 362.089566 295.402018 
L 363.714464 295.452766 
L 373.788829 295.474695 
L 374.113808 291.821784 
L 374.438788 292.702417 
L 374.763767 294.417637 
L 375.088747 295.34368 
L 377.038624 295.430122 
L 378.988501 295.472071 
L 386.78801 295.478296 
L 387.437969 285.413649 
L 387.762948 294.477719 
L 388.087928 295.120659 
L 388.412907 295.346631 
L 389.062867 295.431994 
L 397.512334 295.472298 
L 398.487273 295.473379 
L 398.487273 295.473379 
" clip-path="url(#pbdfa6a4544)" style="fill: none; stroke-dasharray: 5.55,2.4; stroke-dashoffset: 0; stroke: #ff0000; stroke-width: 1.5"/>
   </g>
   <g id="line2d_15">
    <path d="M 73.832727 285.048343 
L 74.157707 285.103764 
L 74.482686 286.267308 
L 74.807666 286.807473 
L 75.132645 286.605793 
L 75.457625 286.55605 
L 75.782604 286.244344 
L 76.107584 287.101284 
L 76.432563 286.860807 
L 76.757543 286.187484 
L 77.082523 286.706447 
L 77.407502 286.992406 
L 78.057461 286.146237 
L 78.382441 286.413509 
L 78.70742 286.035026 
L 79.0324 286.310675 
L 79.357379 286.053113 
L 79.682359 286.44642 
L 80.332318 285.915124 
L 80.657297 285.379631 
L 81.307256 286.100309 
L 81.957215 286.2211 
L 82.282195 285.648282 
L 82.932154 285.107884 
L 83.257133 285.571114 
L 83.582113 285.831186 
L 83.907093 285.629243 
L 84.232072 284.773891 
L 84.882031 285.711173 
L 85.207011 285.810315 
L 85.53199 286.422547 
L 85.85697 286.313654 
L 86.181949 285.409825 
L 86.506929 285.888755 
L 86.831908 286.068794 
L 87.481867 286.05432 
L 87.806847 284.383361 
L 88.131826 284.934455 
L 88.456806 285.815572 
L 88.781785 285.028895 
L 89.106765 285.815556 
L 89.431744 285.752359 
L 89.756724 284.960658 
L 90.081704 285.919171 
L 90.406683 285.790546 
L 90.731663 285.805289 
L 91.056642 285.428767 
L 91.381622 285.471349 
L 91.706601 284.516373 
L 92.35656 284.406022 
L 92.68154 285.038141 
L 93.006519 284.123149 
L 93.331499 284.478845 
L 93.656478 284.454673 
L 93.981458 284.929049 
L 94.306437 284.342053 
L 94.631417 285.372879 
L 94.956396 281.555601 
L 95.281376 283.718607 
L 95.606355 284.473507 
L 95.931335 283.134892 
L 96.256314 284.13283 
L 96.581294 283.971206 
L 97.231253 285.248837 
L 97.556233 284.686886 
L 97.881212 284.688736 
L 98.206192 284.031614 
L 98.856151 285.010228 
L 99.18113 281.790587 
L 99.50611 283.98638 
L 99.831089 284.598023 
L 100.156069 284.091742 
L 100.481048 285.066336 
L 100.806028 283.944188 
L 101.131007 283.740687 
L 101.780966 282.765338 
L 102.105946 284.181379 
L 102.430925 283.600517 
L 102.755905 283.286677 
L 103.080885 282.651168 
L 103.405864 283.046083 
L 103.730844 280.307996 
L 104.055823 281.276483 
L 104.380803 283.011412 
L 104.705782 282.685743 
L 105.030762 283.363416 
L 105.355741 282.608674 
L 105.680721 282.855108 
L 106.33068 281.571163 
L 106.655659 281.373745 
L 106.980639 282.126068 
L 107.305618 281.961705 
L 107.955577 282.040733 
L 108.605536 282.159592 
L 108.930516 280.971901 
L 109.255495 280.296811 
L 109.580475 279.901745 
L 109.905455 279.00344 
L 110.230434 278.920781 
L 110.880393 281.004247 
L 111.205373 280.900965 
L 111.530352 279.34648 
L 111.855332 278.901064 
L 112.180311 278.715872 
L 112.83027 279.500609 
L 113.480229 276.905204 
L 113.805209 278.663862 
L 114.130188 276.901771 
L 114.455168 277.007069 
L 114.780147 275.310503 
L 115.105127 276.486346 
L 115.430106 275.232584 
L 115.755086 275.938035 
L 116.080066 276.082629 
L 116.405045 275.245675 
L 116.730025 275.505863 
L 117.055004 274.036155 
L 117.379984 274.085174 
L 117.704963 272.936708 
L 118.029943 273.513769 
L 118.354922 274.417942 
L 118.679902 272.30797 
L 119.004881 272.582001 
L 119.329861 272.330867 
L 119.65484 273.302963 
L 119.97982 272.661147 
L 120.304799 273.859809 
L 120.629779 273.879652 
L 120.954758 272.468605 
L 121.279738 273.408913 
L 121.929697 270.60534 
L 122.579656 272.371625 
L 122.904636 271.376085 
L 123.229615 269.991032 
L 123.554595 269.126466 
L 123.879574 271.562579 
L 124.204554 271.303051 
L 124.529533 269.922828 
L 124.854513 266.133274 
L 125.179492 269.491661 
L 125.504472 268.798238 
L 125.829451 274.750254 
L 126.154431 270.890074 
L 126.47941 270.632328 
L 126.80439 270.647278 
L 127.129369 270.846177 
L 127.454349 270.479249 
L 127.779328 269.325932 
L 128.429287 267.95128 
L 128.754267 268.437302 
L 129.079247 267.987428 
L 129.404226 264.916743 
L 129.729206 267.086783 
L 130.054185 266.767759 
L 130.379165 268.171897 
L 130.704144 265.448714 
L 131.029124 265.745636 
L 131.354103 266.375065 
L 131.679083 266.009405 
L 132.004062 266.421917 
L 132.329042 261.736524 
L 132.654021 265.589613 
L 132.979001 267.66837 
L 133.30398 265.926822 
L 133.62896 267.177191 
L 133.953939 266.03215 
L 134.278919 230.498321 
L 134.603898 263.986683 
L 134.928878 233.807538 
L 135.253857 264.352953 
L 135.578837 264.438885 
L 135.903817 261.74186 
L 136.228796 266.271895 
L 136.553776 232.593106 
L 136.878755 264.742986 
L 137.203735 265.41134 
L 137.528714 229.363488 
L 137.853694 263.601522 
L 138.178673 263.081912 
L 138.503653 263.855432 
L 138.828632 232.183851 
L 139.153612 262.137835 
L 139.478591 263.369101 
L 139.803571 228.219634 
L 140.12855 261.43017 
L 140.45353 262.956288 
L 140.778509 261.985781 
L 141.103489 263.115783 
L 141.428468 262.494516 
L 141.753448 262.462711 
L 142.078428 261.31634 
L 142.403407 261.555782 
L 142.728387 231.147185 
L 143.053366 229.081074 
L 143.378346 261.415104 
L 143.703325 229.995923 
L 144.028305 228.278651 
L 144.353284 227.703911 
L 145.003243 229.737097 
L 145.328223 230.992736 
L 145.653202 230.162733 
L 145.978182 232.076334 
L 146.303161 230.240446 
L 146.628141 229.850896 
L 146.95312 230.557272 
L 147.2781 230.91369 
L 147.603079 229.978326 
L 147.928059 229.543915 
L 148.253038 227.913047 
L 148.578018 230.35985 
L 148.902998 261.843385 
L 149.227977 231.026019 
L 149.877936 229.406108 
L 150.202916 227.975691 
L 150.527895 227.137187 
L 150.852875 228.841018 
L 151.177854 228.646381 
L 151.502834 227.211934 
L 151.827813 227.482608 
L 152.152793 227.077514 
L 152.477772 225.954086 
L 152.802752 226.95417 
L 153.127731 227.161669 
L 153.77769 225.779941 
L 154.10267 227.859134 
L 154.427649 227.422501 
L 154.752629 225.748672 
L 155.077609 226.517356 
L 155.402588 257.506388 
L 155.727568 225.57694 
L 156.052547 222.823299 
L 156.377527 222.791521 
L 157.027486 224.414686 
L 158.002424 224.445654 
L 158.327404 224.722481 
L 158.652383 225.22317 
L 158.977363 226.035328 
L 159.302342 225.068456 
L 159.627322 227.220457 
L 159.952301 223.753316 
L 160.277281 225.76782 
L 160.60226 223.703852 
L 160.92724 224.406027 
L 161.577199 222.08959 
L 161.902179 226.432599 
L 162.227158 226.777573 
L 162.552138 228.592693 
L 162.877117 226.978466 
L 163.202097 227.343969 
L 164.177035 225.673044 
L 164.502015 227.005091 
L 164.826994 227.542976 
L 165.151974 225.872082 
L 165.476953 226.010899 
L 166.126912 224.278088 
L 166.451892 224.366772 
L 166.776871 224.873981 
L 167.101851 220.289331 
L 167.42683 220.537356 
L 167.75181 223.188908 
L 168.07679 223.224325 
L 168.401769 222.016086 
L 168.726749 222.464827 
L 169.051728 224.12093 
L 169.376708 217.27469 
L 170.351646 222.519661 
L 170.676626 221.541062 
L 171.326585 221.818486 
L 172.301523 221.068618 
L 172.626503 222.018526 
L 172.951482 221.490885 
L 173.276462 219.50274 
L 173.601441 221.433421 
L 173.926421 218.673763 
L 174.2514 184.976663 
L 174.57638 220.906639 
L 175.226339 222.566111 
L 175.551319 220.887602 
L 175.876298 221.385218 
L 176.201278 221.181952 
L 176.851237 222.586692 
L 177.176216 221.303875 
L 177.501196 218.886645 
L 177.826175 220.438596 
L 178.151155 219.138725 
L 178.476134 221.549774 
L 178.801114 220.546086 
L 179.126093 221.111233 
L 179.451073 221.319263 
L 179.776052 222.445799 
L 180.101032 220.568709 
L 180.426011 216.941789 
L 180.750991 218.745093 
L 181.075971 215.156228 
L 181.40095 220.395378 
L 181.72593 222.314633 
L 182.050909 220.505941 
L 182.375889 220.110396 
L 182.700868 220.030602 
L 183.025848 219.569306 
L 183.350827 220.150851 
L 183.675807 218.955478 
L 184.000786 219.400783 
L 184.325766 219.10901 
L 184.975725 218.886716 
L 185.300704 218.945402 
L 185.625684 219.284439 
L 185.950663 218.007332 
L 186.275643 219.328374 
L 186.600622 218.651628 
L 186.925602 217.042134 
L 187.250581 216.41382 
L 187.575561 185.08619 
L 187.900541 220.786213 
L 188.22552 217.396471 
L 188.875479 219.291522 
L 189.200459 219.590149 
L 189.525438 219.122628 
L 189.850418 219.624999 
L 190.175397 220.40657 
L 190.500377 219.608716 
L 190.825356 220.02088 
L 191.150336 218.658835 
L 191.475315 219.154007 
L 191.800295 218.601734 
L 192.125274 195.683588 
L 192.775233 218.838 
L 193.100213 219.460487 
L 193.425192 219.049032 
L 193.750172 217.806873 
L 194.075152 218.107784 
L 194.400131 218.612669 
L 194.725111 218.621382 
L 195.05009 218.472126 
L 195.37507 218.612182 
L 195.700049 218.067931 
L 196.350008 217.566011 
L 196.674988 217.727875 
L 196.999967 216.998473 
L 197.324947 217.812513 
L 197.649926 217.850135 
L 197.974906 218.621072 
L 198.299885 217.736597 
L 198.624865 215.276035 
L 198.949844 214.752511 
L 199.274824 178.976095 
L 199.599803 218.414476 
L 199.924783 216.571567 
L 200.249762 216.387018 
L 201.224701 217.102156 
L 201.549681 216.698802 
L 201.87466 218.748989 
L 202.19964 218.862827 
L 202.524619 218.23006 
L 202.849599 218.197982 
L 203.174578 218.031673 
L 203.824537 216.045715 
L 204.149517 214.796464 
L 204.474496 217.44423 
L 205.124455 215.884453 
L 205.449435 217.750002 
L 206.099394 215.199561 
L 206.424373 216.375836 
L 206.749353 218.592083 
L 207.074333 211.205102 
L 207.399312 207.344582 
L 208.049271 210.664649 
L 208.374251 210.881277 
L 209.02421 211.02074 
L 209.349189 211.297115 
L 209.674169 211.334188 
L 210.324128 211.73501 
L 210.649107 210.825035 
L 210.974087 210.86479 
L 211.299066 211.601532 
L 211.624046 210.963285 
L 211.949025 211.400382 
L 212.274005 211.008441 
L 212.598984 209.689348 
L 212.923964 213.314993 
L 213.248943 210.960699 
L 213.573923 211.476148 
L 213.898903 181.181699 
L 214.223882 200.762583 
L 214.548862 178.799178 
L 214.873841 179.283531 
L 215.198821 211.275378 
L 215.5238 211.432585 
L 215.84878 210.646365 
L 216.173759 211.234489 
L 216.498739 210.620361 
L 216.823718 211.120111 
L 217.148698 211.364478 
L 217.473677 211.358254 
L 217.798657 210.979674 
L 218.448616 211.105058 
L 218.773595 210.311578 
L 219.098575 210.882233 
L 219.748534 209.994447 
L 220.073514 180.308788 
L 220.398493 210.238389 
L 221.048452 211.241511 
L 221.373432 210.688875 
L 221.698411 179.53948 
L 222.023391 210.587812 
L 222.34837 175.887325 
L 222.67335 211.666283 
L 222.998329 209.120473 
L 223.323309 181.086897 
L 223.648288 210.856795 
L 223.973268 180.681409 
L 224.298247 179.476633 
L 224.623227 211.001411 
L 224.948206 180.235962 
L 225.273186 179.049469 
L 225.598165 179.432556 
L 225.923145 210.410719 
L 226.573104 210.889299 
L 226.898084 179.398051 
L 227.223063 209.682858 
L 227.548043 179.540224 
L 227.873022 209.429423 
L 228.198002 178.786774 
L 228.522981 178.862114 
L 229.17294 178.264737 
L 229.49792 209.180416 
L 229.822899 208.283466 
L 230.147879 176.910112 
L 230.472858 177.521337 
L 230.797838 177.377535 
L 231.122817 207.844987 
L 231.447797 211.500417 
L 232.097756 128.30761 
L 232.422735 167.931142 
L 232.747715 169.37925 
L 233.072695 167.27168 
L 233.397674 168.139739 
L 233.722654 170.249213 
L 234.047633 169.416323 
L 234.372613 170.029106 
L 234.697592 170.241572 
L 235.022572 171.253388 
L 235.347551 171.523238 
L 235.672531 172.005616 
L 235.99751 172.277131 
L 236.32249 172.022732 
L 236.972449 172.824933 
L 237.297428 173.807991 
L 237.622408 173.994868 
L 237.947387 172.479176 
L 238.272367 173.229607 
L 238.597346 172.757216 
L 238.922326 174.245894 
L 239.247305 174.85394 
L 239.572285 171.134503 
L 239.897265 170.710722 
L 240.222244 171.849162 
L 240.547224 170.67867 
L 240.872203 172.204757 
L 241.197183 171.193401 
L 241.522162 173.486326 
L 241.847142 170.938656 
L 242.172121 172.521738 
L 242.497101 171.66843 
L 242.82208 172.576962 
L 243.14706 57.339279 
L 243.472039 186.263182 
L 243.797019 206.184112 
L 244.121998 177.373631 
L 244.446978 178.149801 
L 244.771957 177.11777 
L 245.096937 177.760968 
L 245.421916 177.739531 
L 246.071876 177.057623 
L 246.396855 177.563155 
L 246.721835 177.570434 
L 247.696773 176.071024 
L 248.021753 175.589948 
L 248.346732 176.273803 
L 248.996691 175.424126 
L 249.321671 174.683576 
L 249.64665 175.43344 
L 249.97163 174.074043 
L 250.296609 175.004196 
L 251.271548 176.114047 
L 251.596527 143.967118 
L 251.921507 223.720338 
L 252.246486 199.969191 
L 252.571466 113.411797 
L 252.896446 204.225752 
L 253.221425 204.374371 
L 253.546405 174.037156 
L 253.871384 175.48553 
L 254.196364 204.214614 
L 254.521343 204.349658 
L 254.846323 204.180401 
L 255.171302 174.564398 
L 255.496282 173.32517 
L 255.821261 174.306661 
L 256.146241 174.254642 
L 256.47122 174.340785 
L 256.7962 172.660847 
L 257.121179 174.226999 
L 257.446159 174.449568 
L 257.771138 173.159959 
L 258.096118 172.914556 
L 258.421097 173.985686 
L 258.746077 173.353557 
L 259.071057 173.058809 
L 259.396036 173.27826 
L 260.045995 174.731176 
L 260.370975 172.497894 
L 260.695954 172.705118 
L 261.020934 173.441355 
L 261.345913 142.542774 
L 261.670893 173.031954 
L 261.995872 172.960412 
L 262.320852 169.453334 
L 262.645831 170.702089 
L 262.970811 168.889807 
L 263.29579 170.997554 
L 263.62077 197.72005 
L 263.945749 171.469334 
L 264.270729 181.664396 
L 264.595708 175.063723 
L 264.920688 174.744042 
L 265.245667 175.279501 
L 265.570647 175.273064 
L 265.895627 174.889083 
L 266.220606 175.922928 
L 266.545586 175.401459 
L 266.870565 175.16807 
L 267.195545 175.972423 
L 267.520524 174.515904 
L 267.845504 175.189081 
L 268.820442 173.84038 
L 269.145422 175.154878 
L 269.795381 174.714991 
L 270.44534 173.763932 
L 270.770319 174.615337 
L 271.095299 173.692027 
L 271.420278 174.313115 
L 271.745258 173.743762 
L 272.070238 173.690124 
L 272.395217 172.949202 
L 272.720197 173.624425 
L 273.045176 173.58281 
L 273.695135 172.540775 
L 274.020115 172.43309 
L 274.345094 167.287662 
L 274.670074 176.902613 
L 274.995053 163.942306 
L 275.320033 173.096005 
L 275.645012 170.841711 
L 275.969992 172.282169 
L 276.619951 172.957888 
L 276.94493 173.907884 
L 277.26991 173.21281 
L 277.594889 173.813321 
L 277.919869 173.811471 
L 278.244848 173.561445 
L 278.569828 173.989777 
L 278.894808 174.102367 
L 279.219787 173.62385 
L 279.544767 173.99717 
L 279.869746 174.189032 
L 280.194726 174.037005 
L 280.519705 174.166436 
L 280.844685 173.985022 
L 281.169664 174.46338 
L 281.494644 175.328075 
L 281.819623 173.939051 
L 282.144603 174.728538 
L 282.469582 173.771565 
L 282.794562 174.253589 
L 283.119541 173.729782 
L 283.444521 173.908327 
L 283.7695 174.779007 
L 284.09448 172.948954 
L 284.744439 173.893115 
L 285.069419 170.995447 
L 285.394398 53.568 
L 286.044357 171.957326 
L 286.369337 172.406739 
L 286.694316 171.521255 
L 287.344275 172.365567 
L 288.319214 172.429486 
L 288.644193 173.014245 
L 288.969173 173.126676 
L 289.294152 173.043145 
L 289.944111 173.539788 
L 290.269091 173.369583 
L 290.59407 173.634271 
L 291.244029 173.420512 
L 291.569009 173.107144 
L 291.893989 172.546184 
L 292.218968 173.309259 
L 292.543948 173.139187 
L 292.868927 173.207223 
L 293.193907 172.504888 
L 293.518886 173.336176 
L 293.843866 172.494538 
L 294.168845 173.308427 
L 294.493825 172.413849 
L 294.818804 172.963679 
L 295.143784 172.828085 
L 295.468763 172.442139 
L 296.118722 172.386808 
L 296.443702 173.62122 
L 296.768681 167.86547 
L 297.093661 150.469535 
L 297.41864 200.677113 
L 297.74362 165.201509 
L 298.0686 198.462999 
L 298.393579 197.991583 
L 298.718559 198.222271 
L 299.043538 197.926628 
L 299.368518 198.001499 
L 299.693497 197.885164 
L 300.018477 198.555402 
L 300.343456 197.946382 
L 300.668436 198.386083 
L 300.993415 197.674398 
L 301.643374 197.959592 
L 301.968354 198.137854 
L 302.293333 197.942274 
L 302.618313 198.13665 
L 302.943292 197.976424 
L 303.268272 197.949242 
L 303.593251 197.716615 
L 303.918231 197.802988 
L 304.24321 197.353707 
L 304.56819 198.068039 
L 304.89317 166.446537 
L 305.218149 168.243112 
L 305.543129 197.445711 
L 305.868108 167.437431 
L 306.193088 167.103299 
L 306.518067 166.946712 
L 306.843047 197.049547 
L 307.168026 167.247738 
L 307.493006 197.605636 
L 307.817985 197.424523 
L 308.142965 189.8388 
L 308.467944 148.502472 
L 308.792924 146.669834 
L 309.117903 146.838507 
L 309.442883 176.07028 
L 309.767862 174.726705 
L 310.092842 175.543365 
L 310.742801 175.974973 
L 311.067781 175.400476 
L 311.71774 175.01306 
L 312.042719 173.780056 
L 312.367699 173.676267 
L 312.692678 174.17522 
L 313.017658 172.89953 
L 313.342637 173.499191 
L 313.667617 173.562685 
L 314.642555 173.011757 
L 314.967535 173.150476 
L 315.292514 173.770901 
L 315.617494 172.896121 
L 315.942473 172.987842 
L 316.267453 173.964764 
L 316.592432 176.021024 
L 316.917412 166.67572 
L 317.242391 170.80772 
L 317.567371 171.547065 
L 317.892351 171.391691 
L 318.21733 171.928284 
L 318.54231 171.550687 
L 318.867289 172.040945 
L 319.192269 170.721843 
L 319.517248 170.802478 
L 319.842228 170.183958 
L 320.167207 170.749636 
L 320.492187 169.569235 
L 320.817166 172.035225 
L 321.142146 170.751938 
L 321.792105 170.916343 
L 322.117084 171.432447 
L 322.442064 170.052747 
L 322.767043 169.703483 
L 323.092023 173.000114 
L 323.417002 183.989656 
L 323.741982 147.975522 
L 324.066962 175.766837 
L 324.391941 145.385192 
L 324.716921 145.530578 
L 325.0419 144.659252 
L 325.36688 145.305787 
L 325.691859 145.164934 
L 326.341818 143.930709 
L 326.666798 144.609155 
L 326.991777 143.35244 
L 327.641736 143.849976 
L 327.966716 143.85327 
L 328.291695 143.694868 
L 328.616675 142.5588 
L 328.941654 143.15028 
L 329.266634 142.608225 
L 329.591613 142.940453 
L 329.916593 142.476332 
L 330.241572 141.517012 
L 330.566552 142.337604 
L 330.891532 141.498117 
L 331.216511 141.542052 
L 331.541491 142.063176 
L 331.86647 141.731958 
L 332.841409 141.975041 
L 333.166388 141.096118 
L 333.491368 177.266344 
L 334.141327 103.840258 
L 334.466306 104.819836 
L 334.791286 165.165242 
L 335.116265 136.190418 
L 335.441245 134.180297 
L 335.766224 134.499031 
L 336.416183 134.716172 
L 336.741163 134.141604 
L 337.066143 134.440682 
L 337.391122 134.919766 
L 337.716102 135.666726 
L 338.366061 135.316807 
L 338.69104 135.003563 
L 339.01602 134.246173 
L 339.340999 134.834943 
L 339.665979 134.551803 
L 339.990958 134.77546 
L 340.315938 134.340346 
L 340.640917 134.198094 
L 340.965897 134.705052 
L 341.615856 133.719205 
L 342.265815 133.982848 
L 342.590794 133.123829 
L 342.915774 133.729086 
L 343.240753 132.234688 
L 343.565733 133.132825 
L 343.890713 132.36148 
L 344.215692 132.481207 
L 344.540672 163.38124 
L 344.865651 164.536354 
L 345.190631 134.330181 
L 345.51561 129.815006 
L 345.84059 141.176125 
L 346.165569 106.448269 
L 346.490549 156.790051 
L 346.815528 138.451025 
L 347.140508 137.387934 
L 347.465487 137.086713 
L 347.790467 136.350414 
L 348.115446 136.206303 
L 348.440426 135.315568 
L 348.765405 135.455376 
L 349.090385 135.42389 
L 349.740344 134.491877 
L 350.065324 134.42903 
L 350.390303 134.546632 
L 350.715283 133.748672 
L 351.040262 133.850389 
L 351.365242 133.098949 
L 352.015201 133.646582 
L 352.34018 133.3395 
L 352.66516 133.339996 
L 352.990139 133.650354 
L 353.315119 132.697498 
L 353.640098 132.957157 
L 353.965078 132.384324 
L 354.290057 132.277153 
L 354.615037 132.354893 
L 354.940016 131.285533 
L 355.264996 132.400864 
L 355.589975 132.753829 
L 355.914955 132.524062 
L 356.239934 132.94887 
L 356.564914 131.005616 
L 356.889894 131.787621 
L 357.214873 131.606038 
L 357.539853 131.857286 
L 357.864832 133.011522 
L 358.189812 132.607734 
L 358.514791 133.21439 
L 358.839771 132.685669 
L 359.16475 130.978274 
L 359.48973 132.199997 
L 359.814709 132.163766 
L 360.139689 134.448863 
L 360.464668 146.814883 
L 360.789648 103.615184 
L 361.439607 168.069755 
L 361.764586 164.489745 
L 362.089566 166.523764 
L 362.414545 167.565002 
L 363.064505 167.116749 
L 363.389484 167.031934 
L 364.039443 166.505595 
L 364.364423 166.629332 
L 365.664341 166.451929 
L 366.3143 165.475149 
L 366.639279 165.562717 
L 366.964259 134.947462 
L 367.289238 135.029417 
L 367.614218 134.884881 
L 367.939197 135.02136 
L 368.264177 134.287681 
L 368.589156 134.849269 
L 368.914136 134.686192 
L 369.239115 134.760603 
L 369.564095 134.234432 
L 369.889075 135.366391 
L 370.214054 135.671136 
L 370.864013 135.211247 
L 371.188993 134.108419 
L 371.513972 134.748862 
L 371.838952 133.986868 
L 372.163931 133.741376 
L 372.488911 134.531084 
L 372.81389 134.054355 
L 373.13887 132.68551 
L 373.463849 134.606398 
L 373.788829 135.036323 
L 374.113808 110.363624 
L 374.438788 155.608384 
L 374.763767 161.302942 
L 375.088747 99.519486 
L 375.738706 99.815819 
L 376.063686 99.440187 
L 376.388665 99.853857 
L 376.713645 99.45292 
L 377.038624 130.813036 
L 377.363604 130.190708 
L 377.688583 129.969955 
L 379.313481 130.267652 
L 380.288419 130.292178 
L 380.613399 130.210666 
L 381.263358 130.446879 
L 381.588337 130.716525 
L 382.238296 130.269245 
L 382.563276 129.25595 
L 382.888256 129.462024 
L 383.213235 129.446635 
L 383.863194 129.142457 
L 384.188174 129.263636 
L 384.513153 128.456078 
L 384.838133 129.043856 
L 385.163112 127.517955 
L 385.488092 128.589086 
L 385.813071 128.330737 
L 386.138051 128.519031 
L 386.46303 129.798502 
L 386.78801 162.798624 
L 387.112989 147.34797 
L 387.437969 112.973672 
L 387.762948 136.013475 
L 388.412907 143.603174 
L 388.737887 143.185591 
L 389.062867 143.52894 
L 389.387846 143.426496 
L 389.712826 143.482083 
L 390.037805 143.795399 
L 390.687764 143.763931 
L 391.012744 143.49795 
L 391.337723 143.783286 
L 391.662703 143.685234 
L 391.987682 143.829859 
L 392.312662 143.66896 
L 392.637641 143.673334 
L 392.962621 143.855413 
L 393.2876 144.262849 
L 393.61258 144.31732 
L 394.262539 144.018313 
L 394.587518 143.418227 
L 394.912498 143.397331 
L 395.237477 142.952831 
L 395.562457 143.281323 
L 395.887437 142.876277 
L 396.537396 142.853221 
L 396.862375 142.645359 
L 397.187355 142.060467 
L 397.837314 142.09259 
L 398.162293 141.947823 
L 398.487273 141.277807 
L 398.487273 141.277807 
" clip-path="url(#pbdfa6a4544)" style="fill: none; stroke: #0000ff; stroke-width: 1.5; stroke-linecap: square"/>
   </g>
   <g id="patch_3">
    <path d="M 57.6 307.584 
L 57.6 41.472 
" style="fill: none; stroke: #000000; stroke-width: 0.8; stroke-linejoin: miter; stroke-linecap: square"/>
   </g>
   <g id="patch_4">
    <path d="M 414.72 307.584 
L 414.72 41.472 
" style="fill: none; stroke: #000000; stroke-width: 0.8; stroke-linejoin: miter; stroke-linecap: square"/>
   </g>
   <g id="patch_5">
    <path d="M 57.6 307.584 
L 414.72 307.584 
" style="fill: none; stroke: #000000; stroke-width: 0.8; stroke-linejoin: miter; stroke-linecap: square"/>
   </g>
   <g id="patch_6">
    <path d="M 57.6 41.472 
L 414.72 41.472 
" style="fill: none; stroke: #000000; stroke-width: 0.8; stroke-linejoin: miter; stroke-linecap: square"/>
   </g>
   <g id="legend_1">
    <g id="patch_7">
     <path d="M 311.155937 78.82825 
L 407.72 78.82825 
Q 409.72 78.82825 409.72 76.82825 
L 409.72 48.472 
Q 409.72 46.472 407.72 46.472 
L 311.155937 46.472 
Q 309.155937 46.472 309.155937 48.472 
L 309.155937 76.82825 
Q 309.155937 78.82825 311.155937 78.82825 
z
" style="fill: #ffffff; opacity: 0.8; stroke: #cccccc; stroke-linejoin: miter"/>
    </g>
    <g id="line2d_16">
     <path d="M 313.155937 54.570437 
L 323.155937 54.570437 
L 333.155937 54.570437 
" style="fill: none; stroke-dasharray: 5.55,2.4; stroke-dashoffset: 0; stroke: #ff0000; stroke-width: 1.5"/>
    </g>
    <g id="text_16">
     <!-- Training Loss -->
     <g transform="translate(341.155937 58.070437) scale(0.1 -0.1)">
      <defs>
       <path id="DejaVuSans-54" d="M -19 4666 
L 3928 4666 
L 3928 4134 
L 2272 4134 
L 2272 0 
L 1638 0 
L 1638 4134 
L -19 4134 
L -19 4666 
z
" transform="scale(0.015625)"/>
       <path id="DejaVuSans-72" d="M 2631 2963 
Q 2534 3019 2420 3045 
Q 2306 3072 2169 3072 
Q 1681 3072 1420 2755 
Q 1159 2438 1159 1844 
L 1159 0 
L 581 0 
L 581 3500 
L 1159 3500 
L 1159 2956 
Q 1341 3275 1631 3429 
Q 1922 3584 2338 3584 
Q 2397 3584 2469 3576 
Q 2541 3569 2628 3553 
L 2631 2963 
z
" transform="scale(0.015625)"/>
       <path id="DejaVuSans-61" d="M 2194 1759 
Q 1497 1759 1228 1600 
Q 959 1441 959 1056 
Q 959 750 1161 570 
Q 1363 391 1709 391 
Q 2188 391 2477 730 
Q 2766 1069 2766 1631 
L 2766 1759 
L 2194 1759 
z
M 3341 1997 
L 3341 0 
L 2766 0 
L 2766 531 
Q 2569 213 2275 61 
Q 1981 -91 1556 -91 
Q 1019 -91 701 211 
Q 384 513 384 1019 
Q 384 1609 779 1909 
Q 1175 2209 1959 2209 
L 2766 2209 
L 2766 2266 
Q 2766 2663 2505 2880 
Q 2244 3097 1772 3097 
Q 1472 3097 1187 3025 
Q 903 2953 641 2809 
L 641 3341 
Q 956 3463 1253 3523 
Q 1550 3584 1831 3584 
Q 2591 3584 2966 3190 
Q 3341 2797 3341 1997 
z
" transform="scale(0.015625)"/>
       <path id="DejaVuSans-69" d="M 603 3500 
L 1178 3500 
L 1178 0 
L 603 0 
L 603 3500 
z
M 603 4863 
L 1178 4863 
L 1178 4134 
L 603 4134 
L 603 4863 
z
" transform="scale(0.015625)"/>
       <path id="DejaVuSans-6e" d="M 3513 2113 
L 3513 0 
L 2938 0 
L 2938 2094 
Q 2938 2591 2744 2837 
Q 2550 3084 2163 3084 
Q 1697 3084 1428 2787 
Q 1159 2491 1159 1978 
L 1159 0 
L 581 0 
L 581 3500 
L 1159 3500 
L 1159 2956 
Q 1366 3272 1645 3428 
Q 1925 3584 2291 3584 
Q 2894 3584 3203 3211 
Q 3513 2838 3513 2113 
z
" transform="scale(0.015625)"/>
       <path id="DejaVuSans-67" d="M 2906 1791 
Q 2906 2416 2648 2759 
Q 2391 3103 1925 3103 
Q 1463 3103 1205 2759 
Q 947 2416 947 1791 
Q 947 1169 1205 825 
Q 1463 481 1925 481 
Q 2391 481 2648 825 
Q 2906 1169 2906 1791 
z
M 3481 434 
Q 3481 -459 3084 -895 
Q 2688 -1331 1869 -1331 
Q 1566 -1331 1297 -1286 
Q 1028 -1241 775 -1147 
L 775 -588 
Q 1028 -725 1275 -790 
Q 1522 -856 1778 -856 
Q 2344 -856 2625 -561 
Q 2906 -266 2906 331 
L 2906 616 
Q 2728 306 2450 153 
Q 2172 0 1784 0 
Q 1141 0 747 490 
Q 353 981 353 1791 
Q 353 2603 747 3093 
Q 1141 3584 1784 3584 
Q 2172 3584 2450 3431 
Q 2728 3278 2906 2969 
L 2906 3500 
L 3481 3500 
L 3481 434 
z
" transform="scale(0.015625)"/>
       <path id="DejaVuSans-20" transform="scale(0.015625)"/>
      </defs>
      <use xlink:href="#DejaVuSans-54"/>
      <use xlink:href="#DejaVuSans-72" x="46.333984"/>
      <use xlink:href="#DejaVuSans-61" x="87.447266"/>
      <use xlink:href="#DejaVuSans-69" x="148.726562"/>
      <use xlink:href="#DejaVuSans-6e" x="176.509766"/>
      <use xlink:href="#DejaVuSans-69" x="239.888672"/>
      <use xlink:href="#DejaVuSans-6e" x="267.671875"/>
      <use xlink:href="#DejaVuSans-67" x="331.050781"/>
      <use xlink:href="#DejaVuSans-20" x="394.527344"/>
      <use xlink:href="#DejaVuSans-4c" x="426.314453"/>
      <use xlink:href="#DejaVuSans-6f" x="480.277344"/>
      <use xlink:href="#DejaVuSans-73" x="541.458984"/>
      <use xlink:href="#DejaVuSans-73" x="593.558594"/>
     </g>
    </g>
    <g id="line2d_17">
     <path d="M 313.155937 69.248562 
L 323.155937 69.248562 
L 333.155937 69.248562 
" style="fill: none; stroke: #0000ff; stroke-width: 1.5; stroke-linecap: square"/>
    </g>
    <g id="text_17">
     <!-- Test Loss -->
     <g transform="translate(341.155937 72.748562) scale(0.1 -0.1)">
      <defs>
       <path id="DejaVuSans-65" d="M 3597 1894 
L 3597 1613 
L 953 1613 
Q 991 1019 1311 708 
Q 1631 397 2203 397 
Q 2534 397 2845 478 
Q 3156 559 3463 722 
L 3463 178 
Q 3153 47 2828 -22 
Q 2503 -91 2169 -91 
Q 1331 -91 842 396 
Q 353 884 353 1716 
Q 353 2575 817 3079 
Q 1281 3584 2069 3584 
Q 2775 3584 3186 3129 
Q 3597 2675 3597 1894 
z
M 3022 2063 
Q 3016 2534 2758 2815 
Q 2500 3097 2075 3097 
Q 1594 3097 1305 2825 
Q 1016 2553 972 2059 
L 3022 2063 
z
" transform="scale(0.015625)"/>
       <path id="DejaVuSans-74" d="M 1172 4494 
L 1172 3500 
L 2356 3500 
L 2356 3053 
L 1172 3053 
L 1172 1153 
Q 1172 725 1289 603 
Q 1406 481 1766 481 
L 2356 481 
L 2356 0 
L 1766 0 
Q 1100 0 847 248 
Q 594 497 594 1153 
L 594 3053 
L 172 3053 
L 172 3500 
L 594 3500 
L 594 4494 
L 1172 4494 
z
" transform="scale(0.015625)"/>
      </defs>
      <use xlink:href="#DejaVuSans-54"/>
      <use xlink:href="#DejaVuSans-65" x="44.083984"/>
      <use xlink:href="#DejaVuSans-73" x="105.607422"/>
      <use xlink:href="#DejaVuSans-74" x="157.707031"/>
      <use xlink:href="#DejaVuSans-20" x="196.916016"/>
      <use xlink:href="#DejaVuSans-4c" x="228.703125"/>
      <use xlink:href="#DejaVuSans-6f" x="282.666016"/>
      <use xlink:href="#DejaVuSans-73" x="343.847656"/>
      <use xlink:href="#DejaVuSans-73" x="395.947266"/>
     </g>
    </g>
   </g>
  </g>
 </g>
 <defs>
  <clipPath id="pbdfa6a4544">
   <rect x="57.6" y="41.472" width="357.12" height="266.112"/>
  </clipPath>
 </defs>
</svg>
