<?xml version="1.0" encoding="utf-8" standalone="no"?>
<!DOCTYPE svg PUBLIC "-//W3C//DTD SVG 1.1//EN"
  "http://www.w3.org/Graphics/SVG/1.1/DTD/svg11.dtd">
<svg xmlns:xlink="http://www.w3.org/1999/xlink" width="460.8pt" height="345.6pt" viewBox="0 0 460.8 345.6" xmlns="http://www.w3.org/2000/svg" version="1.1">
 <metadata>
  <rdf:RDF xmlns:dc="http://purl.org/dc/elements/1.1/" xmlns:cc="http://creativecommons.org/ns#" xmlns:rdf="http://www.w3.org/1999/02/22-rdf-syntax-ns#">
   <cc:Work>
    <dc:type rdf:resource="http://purl.org/dc/dcmitype/StillImage"/>
    <dc:date>2024-08-18T18:59:49.258788</dc:date>
    <dc:format>image/svg+xml</dc:format>
    <dc:creator>
     <cc:Agent>
      <dc:title>Matplotlib v3.8.3, https://matplotlib.org/</dc:title>
     </cc:Agent>
    </dc:creator>
   </cc:Work>
  </rdf:RDF>
 </metadata>
 <defs>
  <style type="text/css">*{stroke-linejoin: round; stroke-linecap: butt}</style>
 </defs>
 <g id="figure_1">
  <g id="patch_1">
   <path d="M 0 345.6 
L 460.8 345.6 
L 460.8 0 
L 0 0 
z
" style="fill: #ffffff"/>
  </g>
  <g id="axes_1">
   <g id="patch_2">
    <path d="M 57.6 307.584 
L 414.72 307.584 
L 414.72 41.472 
L 57.6 41.472 
z
" style="fill: #ffffff"/>
   </g>
   <g id="matplotlib.axis_1">
    <g id="xtick_1">
     <g id="line2d_1">
      <defs>
       <path id="m1a13736868" d="M 0 0 
L 0 3.5 
" style="stroke: #000000; stroke-width: 0.8"/>
      </defs>
      <g>
       <use xlink:href="#m1a13736868" x="73.507748" y="307.584" style="stroke: #000000; stroke-width: 0.8"/>
      </g>
     </g>
     <g id="text_1">
      <!-- 0 -->
      <g transform="translate(70.326498 322.182437) scale(0.1 -0.1)">
       <defs>
        <path id="DejaVuSans-30" d="M 2034 4250 
Q 1547 4250 1301 3770 
Q 1056 3291 1056 2328 
Q 1056 1369 1301 889 
Q 1547 409 2034 409 
Q 2525 409 2770 889 
Q 3016 1369 3016 2328 
Q 3016 3291 2770 3770 
Q 2525 4250 2034 4250 
z
M 2034 4750 
Q 2819 4750 3233 4129 
Q 3647 3509 3647 2328 
Q 3647 1150 3233 529 
Q 2819 -91 2034 -91 
Q 1250 -91 836 529 
Q 422 1150 422 2328 
Q 422 3509 836 4129 
Q 1250 4750 2034 4750 
z
" transform="scale(0.015625)"/>
       </defs>
       <use xlink:href="#DejaVuSans-30"/>
      </g>
     </g>
    </g>
    <g id="xtick_2">
     <g id="line2d_2">
      <g>
       <use xlink:href="#m1a13736868" x="138.503653" y="307.584" style="stroke: #000000; stroke-width: 0.8"/>
      </g>
     </g>
     <g id="text_2">
      <!-- 200 -->
      <g transform="translate(128.959903 322.182437) scale(0.1 -0.1)">
       <defs>
        <path id="DejaVuSans-32" d="M 1228 531 
L 3431 531 
L 3431 0 
L 469 0 
L 469 531 
Q 828 903 1448 1529 
Q 2069 2156 2228 2338 
Q 2531 2678 2651 2914 
Q 2772 3150 2772 3378 
Q 2772 3750 2511 3984 
Q 2250 4219 1831 4219 
Q 1534 4219 1204 4116 
Q 875 4013 500 3803 
L 500 4441 
Q 881 4594 1212 4672 
Q 1544 4750 1819 4750 
Q 2544 4750 2975 4387 
Q 3406 4025 3406 3419 
Q 3406 3131 3298 2873 
Q 3191 2616 2906 2266 
Q 2828 2175 2409 1742 
Q 1991 1309 1228 531 
z
" transform="scale(0.015625)"/>
       </defs>
       <use xlink:href="#DejaVuSans-32"/>
       <use xlink:href="#DejaVuSans-30" x="63.623047"/>
       <use xlink:href="#DejaVuSans-30" x="127.246094"/>
      </g>
     </g>
    </g>
    <g id="xtick_3">
     <g id="line2d_3">
      <g>
       <use xlink:href="#m1a13736868" x="203.499558" y="307.584" style="stroke: #000000; stroke-width: 0.8"/>
      </g>
     </g>
     <g id="text_3">
      <!-- 400 -->
      <g transform="translate(193.955808 322.182437) scale(0.1 -0.1)">
       <defs>
        <path id="DejaVuSans-34" d="M 2419 4116 
L 825 1625 
L 2419 1625 
L 2419 4116 
z
M 2253 4666 
L 3047 4666 
L 3047 1625 
L 3713 1625 
L 3713 1100 
L 3047 1100 
L 3047 0 
L 2419 0 
L 2419 1100 
L 313 1100 
L 313 1709 
L 2253 4666 
z
" transform="scale(0.015625)"/>
       </defs>
       <use xlink:href="#DejaVuSans-34"/>
       <use xlink:href="#DejaVuSans-30" x="63.623047"/>
       <use xlink:href="#DejaVuSans-30" x="127.246094"/>
      </g>
     </g>
    </g>
    <g id="xtick_4">
     <g id="line2d_4">
      <g>
       <use xlink:href="#m1a13736868" x="268.495463" y="307.584" style="stroke: #000000; stroke-width: 0.8"/>
      </g>
     </g>
     <g id="text_4">
      <!-- 600 -->
      <g transform="translate(258.951713 322.182437) scale(0.1 -0.1)">
       <defs>
        <path id="DejaVuSans-36" d="M 2113 2584 
Q 1688 2584 1439 2293 
Q 1191 2003 1191 1497 
Q 1191 994 1439 701 
Q 1688 409 2113 409 
Q 2538 409 2786 701 
Q 3034 994 3034 1497 
Q 3034 2003 2786 2293 
Q 2538 2584 2113 2584 
z
M 3366 4563 
L 3366 3988 
Q 3128 4100 2886 4159 
Q 2644 4219 2406 4219 
Q 1781 4219 1451 3797 
Q 1122 3375 1075 2522 
Q 1259 2794 1537 2939 
Q 1816 3084 2150 3084 
Q 2853 3084 3261 2657 
Q 3669 2231 3669 1497 
Q 3669 778 3244 343 
Q 2819 -91 2113 -91 
Q 1303 -91 875 529 
Q 447 1150 447 2328 
Q 447 3434 972 4092 
Q 1497 4750 2381 4750 
Q 2619 4750 2861 4703 
Q 3103 4656 3366 4563 
z
" transform="scale(0.015625)"/>
       </defs>
       <use xlink:href="#DejaVuSans-36"/>
       <use xlink:href="#DejaVuSans-30" x="63.623047"/>
       <use xlink:href="#DejaVuSans-30" x="127.246094"/>
      </g>
     </g>
    </g>
    <g id="xtick_5">
     <g id="line2d_5">
      <g>
       <use xlink:href="#m1a13736868" x="333.491368" y="307.584" style="stroke: #000000; stroke-width: 0.8"/>
      </g>
     </g>
     <g id="text_5">
      <!-- 800 -->
      <g transform="translate(323.947618 322.182437) scale(0.1 -0.1)">
       <defs>
        <path id="DejaVuSans-38" d="M 2034 2216 
Q 1584 2216 1326 1975 
Q 1069 1734 1069 1313 
Q 1069 891 1326 650 
Q 1584 409 2034 409 
Q 2484 409 2743 651 
Q 3003 894 3003 1313 
Q 3003 1734 2745 1975 
Q 2488 2216 2034 2216 
z
M 1403 2484 
Q 997 2584 770 2862 
Q 544 3141 544 3541 
Q 544 4100 942 4425 
Q 1341 4750 2034 4750 
Q 2731 4750 3128 4425 
Q 3525 4100 3525 3541 
Q 3525 3141 3298 2862 
Q 3072 2584 2669 2484 
Q 3125 2378 3379 2068 
Q 3634 1759 3634 1313 
Q 3634 634 3220 271 
Q 2806 -91 2034 -91 
Q 1263 -91 848 271 
Q 434 634 434 1313 
Q 434 1759 690 2068 
Q 947 2378 1403 2484 
z
M 1172 3481 
Q 1172 3119 1398 2916 
Q 1625 2713 2034 2713 
Q 2441 2713 2670 2916 
Q 2900 3119 2900 3481 
Q 2900 3844 2670 4047 
Q 2441 4250 2034 4250 
Q 1625 4250 1398 4047 
Q 1172 3844 1172 3481 
z
" transform="scale(0.015625)"/>
       </defs>
       <use xlink:href="#DejaVuSans-38"/>
       <use xlink:href="#DejaVuSans-30" x="63.623047"/>
       <use xlink:href="#DejaVuSans-30" x="127.246094"/>
      </g>
     </g>
    </g>
    <g id="xtick_6">
     <g id="line2d_6">
      <g>
       <use xlink:href="#m1a13736868" x="398.487273" y="307.584" style="stroke: #000000; stroke-width: 0.8"/>
      </g>
     </g>
     <g id="text_6">
      <!-- 1000 -->
      <g transform="translate(385.762273 322.182437) scale(0.1 -0.1)">
       <defs>
        <path id="DejaVuSans-31" d="M 794 531 
L 1825 531 
L 1825 4091 
L 703 3866 
L 703 4441 
L 1819 4666 
L 2450 4666 
L 2450 531 
L 3481 531 
L 3481 0 
L 794 0 
L 794 531 
z
" transform="scale(0.015625)"/>
       </defs>
       <use xlink:href="#DejaVuSans-31"/>
       <use xlink:href="#DejaVuSans-30" x="63.623047"/>
       <use xlink:href="#DejaVuSans-30" x="127.246094"/>
       <use xlink:href="#DejaVuSans-30" x="190.869141"/>
      </g>
     </g>
    </g>
    <g id="text_7">
     <!-- Epoch -->
     <g transform="translate(220.849063 335.860562) scale(0.1 -0.1)">
      <defs>
       <path id="DejaVuSans-45" d="M 628 4666 
L 3578 4666 
L 3578 4134 
L 1259 4134 
L 1259 2753 
L 3481 2753 
L 3481 2222 
L 1259 2222 
L 1259 531 
L 3634 531 
L 3634 0 
L 628 0 
L 628 4666 
z
" transform="scale(0.015625)"/>
       <path id="DejaVuSans-70" d="M 1159 525 
L 1159 -1331 
L 581 -1331 
L 581 3500 
L 1159 3500 
L 1159 2969 
Q 1341 3281 1617 3432 
Q 1894 3584 2278 3584 
Q 2916 3584 3314 3078 
Q 3713 2572 3713 1747 
Q 3713 922 3314 415 
Q 2916 -91 2278 -91 
Q 1894 -91 1617 61 
Q 1341 213 1159 525 
z
M 3116 1747 
Q 3116 2381 2855 2742 
Q 2594 3103 2138 3103 
Q 1681 3103 1420 2742 
Q 1159 2381 1159 1747 
Q 1159 1113 1420 752 
Q 1681 391 2138 391 
Q 2594 391 2855 752 
Q 3116 1113 3116 1747 
z
" transform="scale(0.015625)"/>
       <path id="DejaVuSans-6f" d="M 1959 3097 
Q 1497 3097 1228 2736 
Q 959 2375 959 1747 
Q 959 1119 1226 758 
Q 1494 397 1959 397 
Q 2419 397 2687 759 
Q 2956 1122 2956 1747 
Q 2956 2369 2687 2733 
Q 2419 3097 1959 3097 
z
M 1959 3584 
Q 2709 3584 3137 3096 
Q 3566 2609 3566 1747 
Q 3566 888 3137 398 
Q 2709 -91 1959 -91 
Q 1206 -91 779 398 
Q 353 888 353 1747 
Q 353 2609 779 3096 
Q 1206 3584 1959 3584 
z
" transform="scale(0.015625)"/>
       <path id="DejaVuSans-63" d="M 3122 3366 
L 3122 2828 
Q 2878 2963 2633 3030 
Q 2388 3097 2138 3097 
Q 1578 3097 1268 2742 
Q 959 2388 959 1747 
Q 959 1106 1268 751 
Q 1578 397 2138 397 
Q 2388 397 2633 464 
Q 2878 531 3122 666 
L 3122 134 
Q 2881 22 2623 -34 
Q 2366 -91 2075 -91 
Q 1284 -91 818 406 
Q 353 903 353 1747 
Q 353 2603 823 3093 
Q 1294 3584 2113 3584 
Q 2378 3584 2631 3529 
Q 2884 3475 3122 3366 
z
" transform="scale(0.015625)"/>
       <path id="DejaVuSans-68" d="M 3513 2113 
L 3513 0 
L 2938 0 
L 2938 2094 
Q 2938 2591 2744 2837 
Q 2550 3084 2163 3084 
Q 1697 3084 1428 2787 
Q 1159 2491 1159 1978 
L 1159 0 
L 581 0 
L 581 4863 
L 1159 4863 
L 1159 2956 
Q 1366 3272 1645 3428 
Q 1925 3584 2291 3584 
Q 2894 3584 3203 3211 
Q 3513 2838 3513 2113 
z
" transform="scale(0.015625)"/>
      </defs>
      <use xlink:href="#DejaVuSans-45"/>
      <use xlink:href="#DejaVuSans-70" x="63.183594"/>
      <use xlink:href="#DejaVuSans-6f" x="126.660156"/>
      <use xlink:href="#DejaVuSans-63" x="187.841797"/>
      <use xlink:href="#DejaVuSans-68" x="242.822266"/>
     </g>
    </g>
   </g>
   <g id="matplotlib.axis_2">
    <g id="ytick_1">
     <g id="line2d_7">
      <defs>
       <path id="m862d1b1f4c" d="M 0 0 
L -3.5 0 
" style="stroke: #000000; stroke-width: 0.8"/>
      </defs>
      <g>
       <use xlink:href="#m862d1b1f4c" x="57.6" y="298.178351" style="stroke: #000000; stroke-width: 0.8"/>
      </g>
     </g>
     <g id="text_8">
      <!-- 0.2 -->
      <g transform="translate(34.696875 301.977569) scale(0.1 -0.1)">
       <defs>
        <path id="DejaVuSans-2e" d="M 684 794 
L 1344 794 
L 1344 0 
L 684 0 
L 684 794 
z
" transform="scale(0.015625)"/>
       </defs>
       <use xlink:href="#DejaVuSans-30"/>
       <use xlink:href="#DejaVuSans-2e" x="63.623047"/>
       <use xlink:href="#DejaVuSans-32" x="95.410156"/>
      </g>
     </g>
    </g>
    <g id="ytick_2">
     <g id="line2d_8">
      <g>
       <use xlink:href="#m862d1b1f4c" x="57.6" y="249.876954" style="stroke: #000000; stroke-width: 0.8"/>
      </g>
     </g>
     <g id="text_9">
      <!-- 0.3 -->
      <g transform="translate(34.696875 253.676173) scale(0.1 -0.1)">
       <defs>
        <path id="DejaVuSans-33" d="M 2597 2516 
Q 3050 2419 3304 2112 
Q 3559 1806 3559 1356 
Q 3559 666 3084 287 
Q 2609 -91 1734 -91 
Q 1441 -91 1130 -33 
Q 819 25 488 141 
L 488 750 
Q 750 597 1062 519 
Q 1375 441 1716 441 
Q 2309 441 2620 675 
Q 2931 909 2931 1356 
Q 2931 1769 2642 2001 
Q 2353 2234 1838 2234 
L 1294 2234 
L 1294 2753 
L 1863 2753 
Q 2328 2753 2575 2939 
Q 2822 3125 2822 3475 
Q 2822 3834 2567 4026 
Q 2313 4219 1838 4219 
Q 1578 4219 1281 4162 
Q 984 4106 628 3988 
L 628 4550 
Q 988 4650 1302 4700 
Q 1616 4750 1894 4750 
Q 2613 4750 3031 4423 
Q 3450 4097 3450 3541 
Q 3450 3153 3228 2886 
Q 3006 2619 2597 2516 
z
" transform="scale(0.015625)"/>
       </defs>
       <use xlink:href="#DejaVuSans-30"/>
       <use xlink:href="#DejaVuSans-2e" x="63.623047"/>
       <use xlink:href="#DejaVuSans-33" x="95.410156"/>
      </g>
     </g>
    </g>
    <g id="ytick_3">
     <g id="line2d_9">
      <g>
       <use xlink:href="#m862d1b1f4c" x="57.6" y="201.575558" style="stroke: #000000; stroke-width: 0.8"/>
      </g>
     </g>
     <g id="text_10">
      <!-- 0.4 -->
      <g transform="translate(34.696875 205.374777) scale(0.1 -0.1)">
       <use xlink:href="#DejaVuSans-30"/>
       <use xlink:href="#DejaVuSans-2e" x="63.623047"/>
       <use xlink:href="#DejaVuSans-34" x="95.410156"/>
      </g>
     </g>
    </g>
    <g id="ytick_4">
     <g id="line2d_10">
      <g>
       <use xlink:href="#m862d1b1f4c" x="57.6" y="153.274162" style="stroke: #000000; stroke-width: 0.8"/>
      </g>
     </g>
     <g id="text_11">
      <!-- 0.5 -->
      <g transform="translate(34.696875 157.073381) scale(0.1 -0.1)">
       <defs>
        <path id="DejaVuSans-35" d="M 691 4666 
L 3169 4666 
L 3169 4134 
L 1269 4134 
L 1269 2991 
Q 1406 3038 1543 3061 
Q 1681 3084 1819 3084 
Q 2600 3084 3056 2656 
Q 3513 2228 3513 1497 
Q 3513 744 3044 326 
Q 2575 -91 1722 -91 
Q 1428 -91 1123 -41 
Q 819 9 494 109 
L 494 744 
Q 775 591 1075 516 
Q 1375 441 1709 441 
Q 2250 441 2565 725 
Q 2881 1009 2881 1497 
Q 2881 1984 2565 2268 
Q 2250 2553 1709 2553 
Q 1456 2553 1204 2497 
Q 953 2441 691 2322 
L 691 4666 
z
" transform="scale(0.015625)"/>
       </defs>
       <use xlink:href="#DejaVuSans-30"/>
       <use xlink:href="#DejaVuSans-2e" x="63.623047"/>
       <use xlink:href="#DejaVuSans-35" x="95.410156"/>
      </g>
     </g>
    </g>
    <g id="ytick_5">
     <g id="line2d_11">
      <g>
       <use xlink:href="#m862d1b1f4c" x="57.6" y="104.972766" style="stroke: #000000; stroke-width: 0.8"/>
      </g>
     </g>
     <g id="text_12">
      <!-- 0.6 -->
      <g transform="translate(34.696875 108.771985) scale(0.1 -0.1)">
       <use xlink:href="#DejaVuSans-30"/>
       <use xlink:href="#DejaVuSans-2e" x="63.623047"/>
       <use xlink:href="#DejaVuSans-36" x="95.410156"/>
      </g>
     </g>
    </g>
    <g id="ytick_6">
     <g id="line2d_12">
      <g>
       <use xlink:href="#m862d1b1f4c" x="57.6" y="56.67137" style="stroke: #000000; stroke-width: 0.8"/>
      </g>
     </g>
     <g id="text_13">
      <!-- 0.7 -->
      <g transform="translate(34.696875 60.470589) scale(0.1 -0.1)">
       <defs>
        <path id="DejaVuSans-37" d="M 525 4666 
L 3525 4666 
L 3525 4397 
L 1831 0 
L 1172 0 
L 2766 4134 
L 525 4134 
L 525 4666 
z
" transform="scale(0.015625)"/>
       </defs>
       <use xlink:href="#DejaVuSans-30"/>
       <use xlink:href="#DejaVuSans-2e" x="63.623047"/>
       <use xlink:href="#DejaVuSans-37" x="95.410156"/>
      </g>
     </g>
    </g>
    <g id="text_14">
     <!-- Loss -->
     <g transform="translate(28.617188 185.495187) rotate(-90) scale(0.1 -0.1)">
      <defs>
       <path id="DejaVuSans-4c" d="M 628 4666 
L 1259 4666 
L 1259 531 
L 3531 531 
L 3531 0 
L 628 0 
L 628 4666 
z
" transform="scale(0.015625)"/>
       <path id="DejaVuSans-73" d="M 2834 3397 
L 2834 2853 
Q 2591 2978 2328 3040 
Q 2066 3103 1784 3103 
Q 1356 3103 1142 2972 
Q 928 2841 928 2578 
Q 928 2378 1081 2264 
Q 1234 2150 1697 2047 
L 1894 2003 
Q 2506 1872 2764 1633 
Q 3022 1394 3022 966 
Q 3022 478 2636 193 
Q 2250 -91 1575 -91 
Q 1294 -91 989 -36 
Q 684 19 347 128 
L 347 722 
Q 666 556 975 473 
Q 1284 391 1588 391 
Q 1994 391 2212 530 
Q 2431 669 2431 922 
Q 2431 1156 2273 1281 
Q 2116 1406 1581 1522 
L 1381 1569 
Q 847 1681 609 1914 
Q 372 2147 372 2553 
Q 372 3047 722 3315 
Q 1072 3584 1716 3584 
Q 2034 3584 2315 3537 
Q 2597 3491 2834 3397 
z
" transform="scale(0.015625)"/>
      </defs>
      <use xlink:href="#DejaVuSans-4c"/>
      <use xlink:href="#DejaVuSans-6f" x="53.962891"/>
      <use xlink:href="#DejaVuSans-73" x="115.144531"/>
      <use xlink:href="#DejaVuSans-73" x="167.244141"/>
     </g>
    </g>
   </g>
   <g id="line2d_13">
    <path d="M 73.832727 59.863626 
L 74.157707 60.734865 
L 74.482686 60.929658 
L 74.807666 61.60622 
L 75.132645 61.825829 
L 75.457625 63.076231 
L 75.782604 63.161276 
L 76.107584 63.911569 
L 76.432563 64.201828 
L 76.757543 64.32479 
L 77.082523 65.233917 
L 77.732482 66.20307 
L 78.057461 68.004366 
L 78.382441 68.056735 
L 78.70742 67.867298 
L 79.0324 68.136166 
L 79.357379 69.74411 
L 80.007338 71.629184 
L 80.332318 71.381678 
L 80.657297 71.704959 
L 80.982277 72.946436 
L 81.307256 72.594365 
L 81.957215 74.668445 
L 82.282195 75.730043 
L 82.607174 75.859655 
L 83.257133 77.612124 
L 83.582113 77.384223 
L 84.232072 79.682404 
L 84.557052 80.954081 
L 84.882031 81.468931 
L 85.207011 81.744622 
L 85.53199 82.283943 
L 85.85697 83.926463 
L 86.181949 83.651894 
L 86.831908 87.022872 
L 87.156888 88.014856 
L 87.481867 87.863565 
L 87.806847 86.882636 
L 88.131826 89.960562 
L 88.456806 90.577241 
L 88.781785 92.607877 
L 89.106765 93.671375 
L 89.431744 93.810344 
L 89.756724 94.16135 
L 90.081704 95.758555 
L 90.406683 96.344487 
L 90.731663 98.830147 
L 91.056642 97.492771 
L 91.381622 100.153646 
L 92.031581 103.443379 
L 92.35656 102.246411 
L 92.68154 105.289415 
L 93.006519 105.043837 
L 94.306437 113.445615 
L 94.631417 112.934019 
L 95.281376 112.57167 
L 95.606355 115.402636 
L 95.931335 116.3261 
L 96.256314 119.825883 
L 96.581294 121.826348 
L 96.906274 122.110302 
L 97.556233 125.038233 
L 97.881212 124.259783 
L 98.206192 129.086377 
L 98.531171 128.549475 
L 98.856151 131.003754 
L 99.18113 131.473374 
L 99.50611 133.421125 
L 99.831089 133.821189 
L 100.156069 135.72371 
L 100.481048 134.272182 
L 100.806028 140.252703 
L 101.131007 138.173354 
L 101.455987 139.103901 
L 101.780966 139.337387 
L 102.105946 137.310925 
L 102.755905 143.481372 
L 103.080885 148.197442 
L 103.405864 147.840678 
L 103.730844 145.838486 
L 104.055823 145.318598 
L 104.380803 151.184132 
L 104.705782 150.327806 
L 105.355741 155.313666 
L 105.680721 153.490475 
L 106.0057 155.535765 
L 106.33068 152.519695 
L 106.980639 159.513518 
L 107.305618 157.544939 
L 107.630598 162.486044 
L 107.955577 161.519986 
L 108.280557 165.104268 
L 108.605536 162.363443 
L 108.930516 166.001821 
L 109.255495 166.162857 
L 109.580475 169.960702 
L 109.905455 165.150662 
L 110.230434 167.178204 
L 110.555414 171.688426 
L 110.880393 168.685066 
L 111.530352 173.765615 
L 111.855332 178.109461 
L 112.180311 175.078477 
L 112.505291 175.378726 
L 112.83027 176.712993 
L 113.15525 178.733438 
L 113.480229 174.161131 
L 113.805209 175.42587 
L 114.130188 179.246171 
L 114.455168 178.583803 
L 114.780147 181.286654 
L 115.105127 176.261971 
L 115.430106 182.346682 
L 115.755086 179.864131 
L 116.080066 183.226602 
L 116.405045 182.460345 
L 116.730025 184.00485 
L 117.055004 181.274303 
L 117.379984 181.69773 
L 117.704963 188.656171 
L 118.029943 185.141791 
L 118.354922 187.111364 
L 118.679902 186.22239 
L 119.97982 192.66542 
L 120.304799 187.366413 
L 120.629779 185.183881 
L 120.954758 186.593779 
L 121.279738 193.587977 
L 121.604717 190.138749 
L 121.929697 193.72732 
L 122.579656 195.308762 
L 122.904636 189.772397 
L 123.229615 191.337386 
L 123.554595 196.174704 
L 123.879574 197.987704 
L 124.204554 195.256998 
L 124.529533 194.753463 
L 124.854513 199.24074 
L 125.504472 192.20399 
L 125.829451 197.161938 
L 126.154431 196.170328 
L 126.47941 196.032785 
L 126.80439 194.062636 
L 127.129369 196.130929 
L 127.454349 199.088139 
L 127.779328 196.020031 
L 128.104308 198.407129 
L 128.429287 198.262503 
L 128.754267 203.148908 
L 129.079247 199.069915 
L 129.404226 201.105287 
L 129.729206 197.43632 
L 130.054185 196.835087 
L 130.379165 197.458776 
L 130.704144 199.486461 
L 131.029124 204.858537 
L 131.354103 201.840653 
L 131.679083 203.707331 
L 132.004062 201.601106 
L 132.329042 196.60805 
L 132.654021 201.639757 
L 132.979001 203.885641 
L 133.30398 200.849173 
L 133.62896 203.41317 
L 133.953939 198.301412 
L 134.278919 206.876822 
L 134.603898 206.529832 
L 134.928878 200.885102 
L 135.253857 204.248177 
L 135.903817 203.7824 
L 136.228796 204.163837 
L 136.553776 205.199409 
L 136.878755 208.774953 
L 137.203735 206.874188 
L 137.528714 205.801765 
L 137.853694 202.268974 
L 138.178673 202.740293 
L 138.503653 205.30455 
L 138.828632 206.440958 
L 139.153612 197.549824 
L 139.478591 205.804918 
L 139.803571 202.097156 
L 140.12855 206.605967 
L 140.45353 208.04405 
L 140.778509 210.23437 
L 141.428468 206.052108 
L 141.753448 210.254796 
L 142.078428 207.555875 
L 142.403407 208.464311 
L 142.728387 210.059486 
L 143.053366 208.475006 
L 143.378346 208.373982 
L 143.703325 210.59849 
L 144.028305 210.780888 
L 144.353284 211.921687 
L 144.678264 210.412262 
L 145.003243 211.668465 
L 145.328223 206.710215 
L 145.653202 208.838723 
L 145.978182 207.050843 
L 146.303161 209.034897 
L 146.628141 206.551324 
L 146.95312 208.973402 
L 147.2781 212.618819 
L 147.928059 206.564265 
L 148.253038 207.191294 
L 148.578018 209.653779 
L 148.902998 207.04186 
L 149.227977 206.433645 
L 149.552957 209.517603 
L 149.877936 210.898595 
L 150.202916 208.833901 
L 150.527895 213.053402 
L 150.852875 209.384593 
L 151.177854 213.651958 
L 151.502834 214.305575 
L 151.827813 211.692951 
L 152.152793 212.074561 
L 152.477772 210.40993 
L 152.802752 215.137919 
L 153.127731 215.15764 
L 153.452711 208.299661 
L 153.77769 214.584707 
L 154.10267 209.904092 
L 154.427649 210.865876 
L 154.752629 208.246803 
L 155.077609 212.591397 
L 155.402588 213.045888 
L 155.727568 209.525405 
L 156.052547 211.781106 
L 156.377527 212.655771 
L 156.702506 216.135574 
L 157.027486 218.015611 
L 157.352465 213.328965 
L 157.677445 210.328916 
L 158.002424 213.885487 
L 158.327404 211.243037 
L 158.652383 220.392517 
L 158.977363 211.079784 
L 159.302342 207.901828 
L 159.627322 209.462527 
L 159.952301 212.564046 
L 160.277281 213.302607 
L 160.60226 208.541568 
L 160.92724 216.492569 
L 161.252219 221.532611 
L 161.577199 207.726915 
L 161.902179 217.373194 
L 162.227158 217.220377 
L 162.552138 213.504381 
L 162.877117 217.76714 
L 163.202097 211.413862 
L 163.527076 212.967839 
L 164.177035 217.839115 
L 164.826994 208.741442 
L 165.151974 217.25052 
L 165.801933 216.056589 
L 166.451892 207.981245 
L 166.776871 213.40248 
L 167.101851 215.892257 
L 167.42683 212.560476 
L 167.75181 207.424391 
L 168.07679 213.501344 
L 168.401769 214.530683 
L 168.726749 218.597728 
L 169.051728 217.07578 
L 169.376708 210.027529 
L 169.701687 214.085879 
L 170.026667 215.4028 
L 170.676626 208.40342 
L 171.001605 216.245293 
L 171.326585 211.381243 
L 171.651564 218.941752 
L 171.976544 212.470235 
L 172.301523 212.025647 
L 172.626503 215.618638 
L 172.951482 215.135097 
L 173.276462 220.907986 
L 173.601441 215.376875 
L 174.2514 222.484793 
L 174.57638 213.268276 
L 174.90136 214.429127 
L 175.226339 213.774042 
L 175.551319 218.156926 
L 175.876298 210.977552 
L 176.526257 216.653951 
L 176.851237 215.633393 
L 177.176216 217.703673 
L 177.501196 218.696175 
L 177.826175 214.248168 
L 178.151155 215.538242 
L 178.476134 215.522753 
L 178.801114 210.564359 
L 179.126093 218.610438 
L 179.451073 218.76838 
L 179.776052 214.779399 
L 180.101032 215.29609 
L 180.426011 217.581819 
L 180.750991 222.981332 
L 181.075971 210.40541 
L 181.40095 215.366367 
L 181.72593 216.735671 
L 182.050909 216.835125 
L 182.375889 212.352815 
L 182.700868 219.54896 
L 183.025848 222.365084 
L 183.350827 220.231668 
L 183.675807 216.205534 
L 184.000786 222.315767 
L 184.325766 209.636793 
L 184.650745 210.141652 
L 185.300704 219.134141 
L 185.625684 215.727751 
L 186.275643 218.126481 
L 186.600622 217.018258 
L 186.925602 210.620053 
L 187.575561 223.327991 
L 187.900541 216.930276 
L 188.22552 217.593062 
L 188.5505 222.815977 
L 188.875479 217.874397 
L 189.525438 214.305085 
L 189.850418 222.556638 
L 190.175397 216.552308 
L 190.500377 215.038392 
L 190.825356 218.186997 
L 191.150336 215.266955 
L 191.475315 223.745617 
L 191.800295 216.233733 
L 192.125274 219.517392 
L 192.450254 215.009084 
L 192.775233 208.856011 
L 193.425192 215.778594 
L 194.075152 217.296641 
L 194.725111 220.811856 
L 195.37507 211.217645 
L 195.700049 217.524715 
L 196.025029 219.526907 
L 196.350008 213.186426 
L 196.674988 216.62542 
L 196.999967 216.915276 
L 197.324947 217.80484 
L 197.649926 225.22271 
L 197.974906 219.901405 
L 198.299885 220.352427 
L 198.624865 219.055674 
L 198.949844 218.431639 
L 199.274824 222.662858 
L 199.599803 219.10322 
L 199.924783 217.78247 
L 200.249762 214.11559 
L 200.574742 217.157428 
L 200.899722 212.49259 
L 201.224701 222.283321 
L 201.549681 212.696868 
L 201.87466 221.366464 
L 202.19964 216.743444 
L 202.524619 216.752326 
L 202.849599 217.463896 
L 203.499558 224.911822 
L 203.824537 218.254869 
L 204.149517 214.717803 
L 204.474496 216.240974 
L 204.799476 216.724774 
L 205.124455 219.827458 
L 205.449435 217.120836 
L 205.774414 216.377798 
L 206.099394 213.297612 
L 206.424373 216.761869 
L 206.749353 217.665281 
L 207.074333 221.955448 
L 207.399312 222.393601 
L 207.724292 219.077569 
L 208.049271 223.048902 
L 208.374251 220.414383 
L 208.69923 222.706374 
L 209.349189 218.954103 
L 209.674169 220.636526 
L 209.999148 217.020115 
L 210.324128 220.35142 
L 210.974087 217.718514 
L 211.299066 214.975011 
L 211.624046 219.441703 
L 211.949025 227.210089 
L 212.274005 218.591898 
L 212.598984 221.915487 
L 212.923964 222.294938 
L 213.248943 215.672561 
L 213.573923 217.258725 
L 213.898903 220.123102 
L 214.223882 219.066672 
L 214.548862 221.446241 
L 214.873841 222.749213 
L 215.198821 220.879412 
L 215.5238 222.688467 
L 215.84878 222.845156 
L 216.173759 223.70734 
L 216.498739 227.038804 
L 216.823718 219.99182 
L 217.148698 218.502361 
L 217.473677 220.645839 
L 217.798657 217.745821 
L 218.123636 216.600459 
L 218.448616 217.647115 
L 218.773595 223.558497 
L 219.423554 217.166209 
L 219.748534 229.279059 
L 220.073514 224.270111 
L 220.398493 224.168108 
L 220.723473 220.070359 
L 221.048452 219.733244 
L 221.373432 220.137799 
L 221.698411 220.750044 
L 222.023391 219.118508 
L 222.34837 218.493696 
L 222.67335 216.219209 
L 222.998329 222.541264 
L 223.323309 216.896692 
L 223.648288 215.04166 
L 223.973268 217.180661 
L 224.298247 225.497524 
L 224.623227 221.945083 
L 224.948206 223.086458 
L 225.273186 223.01896 
L 225.598165 215.674792 
L 226.248124 226.566103 
L 226.573104 224.912312 
L 226.898084 221.164503 
L 227.548043 225.817941 
L 227.873022 221.915387 
L 228.198002 215.244499 
L 228.522981 222.04176 
L 228.847961 224.586914 
L 229.17294 219.198817 
L 229.49792 219.729472 
L 229.822899 218.076242 
L 230.147879 221.254932 
L 230.472858 220.934444 
L 230.797838 219.475661 
L 231.122817 215.156488 
L 231.447797 223.179046 
L 231.772776 216.700835 
L 232.097756 221.830658 
L 232.422735 221.132604 
L 232.747715 222.960531 
L 233.072695 215.874047 
L 233.397674 223.284993 
L 233.722654 221.366997 
L 234.047633 226.871261 
L 234.372613 225.738293 
L 234.697592 223.038177 
L 235.022572 223.098722 
L 235.347551 216.583027 
L 235.672531 222.407924 
L 235.99751 219.73677 
L 236.32249 219.897188 
L 236.647469 218.288237 
L 236.972449 219.396604 
L 237.297428 216.91922 
L 237.622408 220.77417 
L 237.947387 226.457911 
L 238.272367 219.206403 
L 238.597346 228.21084 
L 238.922326 220.266231 
L 239.247305 221.855273 
L 239.572285 220.296661 
L 239.897265 219.484672 
L 240.222244 217.559306 
L 240.547224 221.421856 
L 240.872203 222.053535 
L 241.197183 223.078238 
L 241.522162 219.909207 
L 241.847142 220.231093 
L 242.172121 219.944705 
L 242.497101 225.993876 
L 242.82208 223.654914 
L 243.14706 226.547721 
L 243.472039 220.463211 
L 244.121998 224.73665 
L 244.446978 222.523314 
L 244.771957 217.048429 
L 245.096937 221.99643 
L 245.421916 223.743299 
L 245.746896 217.022087 
L 246.071876 221.056498 
L 246.396855 227.88252 
L 246.721835 219.006933 
L 247.046814 223.385153 
L 247.371794 224.498414 
L 247.696773 224.264525 
L 248.021753 220.978708 
L 248.346732 223.275118 
L 248.671712 218.892507 
L 248.996691 224.148243 
L 249.321671 225.244633 
L 249.64665 227.365281 
L 249.97163 219.597974 
L 250.296609 220.862066 
L 250.621589 217.273681 
L 250.946568 221.185635 
L 251.271548 221.515769 
L 251.596527 217.264699 
L 251.921507 221.845183 
L 252.246486 221.641825 
L 252.571466 225.06104 
L 252.896446 224.053942 
L 253.221425 226.637588 
L 253.546405 219.239828 
L 253.871384 221.214598 
L 254.196364 224.922374 
L 254.521343 226.838124 
L 254.846323 224.515803 
L 255.171302 226.60317 
L 255.496282 222.689014 
L 255.821261 227.809883 
L 256.146241 221.791115 
L 256.47122 225.756733 
L 256.7962 221.543853 
L 257.121179 224.091973 
L 257.446159 221.328016 
L 257.771138 222.092214 
L 258.096118 216.99072 
L 258.421097 216.847793 
L 259.071057 226.018851 
L 259.396036 228.283261 
L 259.721016 219.062655 
L 260.045995 217.073851 
L 260.370975 229.051 
L 260.695954 221.587643 
L 261.020934 226.52836 
L 261.345913 222.414805 
L 261.670893 227.805622 
L 261.995872 219.415936 
L 262.320852 225.883164 
L 262.645831 226.357736 
L 262.970811 221.228431 
L 263.29579 225.534447 
L 263.62077 223.068133 
L 263.945749 222.41181 
L 264.270729 223.934478 
L 264.595708 222.829235 
L 264.920688 221.214756 
L 265.245667 225.148072 
L 265.570647 221.90495 
L 265.895627 222.05722 
L 266.220606 221.090585 
L 266.545586 219.132802 
L 267.195545 224.922935 
L 267.520524 226.847308 
L 267.845504 224.739861 
L 268.170483 221.879111 
L 268.495463 227.976534 
L 268.820442 225.379888 
L 269.145422 226.238993 
L 269.470401 222.929553 
L 269.795381 224.673557 
L 270.12036 220.8345 
L 270.770319 227.45119 
L 271.095299 226.009652 
L 271.420278 217.894737 
L 271.745258 222.634443 
L 272.070238 223.271692 
L 272.395217 232.052935 
L 272.720197 221.65776 
L 273.045176 220.546486 
L 273.370156 217.148186 
L 273.695135 230.896907 
L 274.345094 220.42672 
L 274.670074 224.540591 
L 274.995053 221.756308 
L 275.320033 224.496399 
L 275.645012 231.364325 
L 275.969992 218.215557 
L 276.294971 225.747175 
L 276.619951 220.458245 
L 276.94493 225.082834 
L 277.26991 227.971481 
L 277.594889 215.554695 
L 277.919869 226.156884 
L 278.244848 227.24684 
L 278.569828 218.225345 
L 278.894808 219.631975 
L 279.219787 217.854877 
L 279.544767 222.206697 
L 279.869746 220.943887 
L 280.194726 223.096866 
L 280.519705 227.981212 
L 280.844685 222.990343 
L 281.169664 224.175363 
L 281.494644 222.353094 
L 282.144603 230.141057 
L 282.469582 223.796215 
L 282.794562 230.512706 
L 283.119541 217.091096 
L 283.444521 225.761181 
L 283.7695 221.549511 
L 284.09448 233.325592 
L 284.419459 221.734817 
L 284.744439 221.793548 
L 285.069419 220.65213 
L 285.394398 218.586816 
L 285.719378 226.553493 
L 286.044357 224.128205 
L 286.369337 224.700418 
L 286.694316 221.805136 
L 287.019296 226.524113 
L 287.669255 224.634648 
L 287.994234 220.708515 
L 288.319214 229.135355 
L 288.644193 227.089388 
L 288.969173 221.701391 
L 289.294152 229.431977 
L 289.619132 222.006924 
L 289.944111 220.238132 
L 290.269091 224.608521 
L 290.59407 223.15446 
L 290.91905 227.181256 
L 291.244029 219.016822 
L 291.569009 224.5681 
L 291.893989 225.625725 
L 292.218968 222.11028 
L 292.543948 225.097575 
L 292.868927 220.974087 
L 293.193907 223.3481 
L 293.518886 218.457823 
L 293.843866 227.222512 
L 294.168845 225.451517 
L 294.818804 227.14049 
L 295.143784 228.534049 
L 295.468763 226.246161 
L 295.793743 230.370858 
L 296.118722 221.435517 
L 296.443702 222.441694 
L 296.768681 218.276519 
L 297.093661 225.7844 
L 297.41864 228.322645 
L 297.74362 229.626884 
L 298.0686 232.444319 
L 298.393579 230.268467 
L 298.718559 219.042215 
L 299.368518 229.835597 
L 299.693497 220.261639 
L 300.018477 227.707334 
L 300.343456 230.149723 
L 300.668436 225.377873 
L 300.993415 232.30155 
L 301.318395 221.525701 
L 301.643374 223.114384 
L 301.968354 219.473127 
L 302.293333 221.800457 
L 302.618313 227.58918 
L 302.943292 229.281651 
L 303.268272 218.286754 
L 303.918231 227.736426 
L 304.24321 223.935558 
L 304.56819 221.972074 
L 304.89317 224.813606 
L 305.218149 230.5101 
L 305.543129 221.13413 
L 305.868108 228.251635 
L 306.193088 227.844215 
L 306.518067 228.975341 
L 306.843047 229.595547 
L 307.168026 220.182524 
L 307.493006 227.554762 
L 307.817985 223.986761 
L 308.142965 224.219052 
L 308.467944 230.597938 
L 308.792924 227.68731 
L 309.117903 226.005291 
L 309.442883 227.772672 
L 309.767862 223.60898 
L 310.417821 221.658048 
L 310.742801 225.065604 
L 311.067781 222.351827 
L 311.39276 228.161926 
L 311.71774 225.275885 
L 312.042719 226.439169 
L 312.367699 226.119802 
L 312.692678 230.390449 
L 313.017658 222.223093 
L 313.342637 227.886594 
L 313.667617 223.842984 
L 313.992596 223.060504 
L 314.317576 227.702483 
L 314.642555 218.661483 
L 314.967535 227.191088 
L 315.292514 223.476201 
L 315.617494 225.272387 
L 315.942473 230.189554 
L 316.267453 230.098031 
L 316.592432 228.402365 
L 316.917412 225.940888 
L 317.242391 231.296769 
L 317.567371 224.040425 
L 317.892351 227.475921 
L 318.21733 226.059387 
L 318.54231 222.853015 
L 318.867289 223.984198 
L 319.192269 226.96752 
L 319.842228 226.713176 
L 320.167207 225.440664 
L 320.492187 225.997791 
L 320.817166 224.36385 
L 321.142146 230.207259 
L 321.467125 226.771389 
L 321.792105 233.036613 
L 322.117084 232.59764 
L 322.442064 228.223695 
L 322.767043 228.509794 
L 323.092023 226.914144 
L 323.417002 224.613617 
L 323.741982 231.366225 
L 324.066962 225.499323 
L 324.391941 228.899969 
L 324.716921 224.991513 
L 325.0419 225.999878 
L 325.36688 221.39773 
L 325.691859 227.160384 
L 326.016839 220.249504 
L 326.341818 228.364261 
L 326.666798 228.248511 
L 326.991777 224.434285 
L 327.316757 224.617907 
L 327.641736 229.505909 
L 327.966716 224.427332 
L 328.291695 226.685049 
L 328.616675 226.538407 
L 328.941654 221.886208 
L 329.266634 224.938122 
L 329.591613 223.194578 
L 329.916593 229.635809 
L 330.566552 218.80752 
L 330.891532 229.318545 
L 331.216511 220.735362 
L 331.541491 221.839813 
L 331.86647 230.63073 
L 332.516429 217.580639 
L 332.841409 227.495181 
L 333.166388 225.801861 
L 333.491368 226.620646 
L 333.816347 230.656238 
L 334.141327 226.261621 
L 334.466306 230.230003 
L 334.791286 227.023949 
L 335.116265 226.244621 
L 335.441245 222.296377 
L 335.766224 223.000621 
L 336.091204 228.14566 
L 336.416183 227.89192 
L 336.741163 231.067112 
L 337.066143 231.335823 
L 337.391122 224.975218 
L 337.716102 231.870681 
L 338.041081 222.923421 
L 338.366061 227.708586 
L 338.69104 226.424644 
L 339.01602 228.48597 
L 339.340999 227.216812 
L 339.665979 223.32789 
L 339.990958 229.314054 
L 340.315938 229.521024 
L 340.640917 226.491278 
L 340.965897 228.387955 
L 341.290876 227.508036 
L 341.615856 228.992399 
L 341.940835 231.9222 
L 342.265815 232.081192 
L 342.590794 226.81954 
L 342.915774 230.07484 
L 343.240753 232.051798 
L 343.565733 228.491743 
L 343.890713 228.576428 
L 344.215692 226.542827 
L 344.540672 228.649094 
L 344.865651 222.279478 
L 345.190631 221.215289 
L 345.51561 226.382712 
L 345.84059 228.224256 
L 346.165569 228.099639 
L 346.490549 223.781877 
L 346.815528 230.173143 
L 347.465487 225.528386 
L 347.790467 229.718753 
L 348.115446 230.915706 
L 348.440426 228.337069 
L 348.765405 227.769635 
L 349.090385 229.621486 
L 349.415364 230.417094 
L 349.740344 227.030081 
L 350.065324 228.026542 
L 350.390303 225.571586 
L 350.715283 230.558194 
L 351.040262 227.458114 
L 351.365242 225.750371 
L 351.690221 227.339601 
L 352.015201 230.318273 
L 352.34018 227.748129 
L 352.66516 231.454192 
L 352.990139 223.936637 
L 353.315119 223.003011 
L 353.640098 225.235896 
L 353.965078 230.52641 
L 354.290057 230.048757 
L 354.940016 220.512643 
L 355.264996 229.409334 
L 355.589975 226.961345 
L 356.239934 219.1118 
L 356.889894 233.624877 
L 357.214873 223.625376 
L 357.539853 228.383147 
L 357.864832 226.26201 
L 358.189812 229.350286 
L 358.514791 227.517349 
L 358.839771 227.005221 
L 359.16475 223.231689 
L 359.48973 226.952233 
L 359.814709 224.003891 
L 360.139689 231.061988 
L 360.464668 225.579359 
L 360.789648 229.559718 
L 361.439607 224.795339 
L 361.764586 231.502099 
L 362.089566 219.697199 
L 362.414545 226.100715 
L 362.739525 228.695993 
L 363.064505 228.121246 
L 363.714464 231.081421 
L 364.039443 225.491607 
L 364.364423 229.886684 
L 364.689402 231.402572 
L 365.014382 228.19371 
L 365.339361 223.005199 
L 365.664341 221.80243 
L 365.98932 228.820595 
L 366.3143 225.754329 
L 366.639279 218.323346 
L 366.964259 224.640334 
L 367.289238 233.14233 
L 367.614218 232.357115 
L 367.939197 232.630633 
L 368.264177 235.927333 
L 368.589156 224.811706 
L 368.914136 224.787681 
L 369.239115 226.740886 
L 369.564095 226.843954 
L 369.889075 228.780059 
L 370.214054 227.154554 
L 370.539034 231.846987 
L 370.864013 224.625018 
L 371.188993 234.630694 
L 371.513972 226.427005 
L 371.838952 231.531018 
L 372.163931 227.045872 
L 372.488911 235.24245 
L 372.81389 227.569574 
L 373.13887 231.608981 
L 373.463849 230.799928 
L 374.113808 235.02952 
L 374.438788 226.560748 
L 374.763767 226.329609 
L 375.088747 231.686728 
L 375.413726 225.595251 
L 375.738706 227.735965 
L 376.063686 225.251111 
L 376.713645 231.182934 
L 377.038624 228.353652 
L 377.363604 231.360683 
L 377.688583 225.643733 
L 378.013563 230.106797 
L 378.338542 230.178642 
L 378.663522 228.985288 
L 378.988501 225.125559 
L 379.313481 224.218922 
L 379.63846 229.253019 
L 379.96344 225.90742 
L 380.288419 228.029708 
L 380.613399 231.416952 
L 380.938378 225.924103 
L 381.263358 230.978713 
L 381.588337 231.107087 
L 381.913317 226.702855 
L 382.238296 230.849187 
L 382.563276 225.726015 
L 382.888256 230.544274 
L 383.213235 228.239011 
L 383.863194 231.525706 
L 384.188174 228.755861 
L 384.513153 229.998734 
L 384.838133 223.080974 
L 385.163112 228.671248 
L 385.488092 224.831556 
L 385.813071 223.76017 
L 386.138051 229.520635 
L 386.46303 229.240539 
L 386.78801 229.526897 
L 387.112989 227.761646 
L 387.437969 229.442442 
L 387.762948 222.551369 
L 388.087928 231.310833 
L 388.412907 232.319026 
L 388.737887 222.862228 
L 389.062867 223.782971 
L 389.387846 231.693623 
L 389.712826 227.052897 
L 390.037805 233.955457 
L 390.362785 221.002935 
L 390.687764 231.279697 
L 391.012744 226.923558 
L 391.337723 228.899854 
L 391.662703 233.582944 
L 391.987682 234.065276 
L 392.312662 225.066223 
L 392.637641 233.322482 
L 392.962621 227.080506 
L 393.2876 226.548412 
L 393.61258 219.783525 
L 393.937559 229.363169 
L 394.262539 230.233055 
L 394.587518 225.480091 
L 394.912498 226.783337 
L 395.237477 235.615869 
L 395.887437 223.578448 
L 396.537396 232.668909 
L 396.862375 233.490658 
L 397.187355 236.109371 
L 397.837314 226.336072 
L 398.162293 236.157882 
L 398.487273 228.410296 
L 398.487273 228.410296 
" clip-path="url(#p65d1c7ee44)" style="fill: none; stroke-dasharray: 5.55,2.4; stroke-dashoffset: 0; stroke: #ff0000; stroke-width: 1.5"/>
   </g>
   <g id="line2d_14">
    <path d="M 73.832727 55.536277 
L 74.157707 53.568 
L 74.482686 56.971453 
L 74.807666 55.562793 
L 75.132645 56.216035 
L 75.457625 56.358056 
L 75.782604 58.782048 
L 76.107584 59.995081 
L 76.432563 59.845143 
L 76.757543 59.248329 
L 77.082523 61.024808 
L 77.407502 59.891236 
L 77.732482 63.712314 
L 78.057461 61.407253 
L 78.382441 62.889471 
L 78.70742 62.339181 
L 79.0324 65.433747 
L 79.357379 62.313414 
L 79.682359 64.523584 
L 80.007338 67.979146 
L 80.332318 66.457055 
L 80.657297 66.904766 
L 81.307256 72.007455 
L 81.957215 67.810956 
L 82.282195 73.74668 
L 82.607174 72.844261 
L 82.932154 74.709298 
L 83.257133 72.334277 
L 83.582113 75.698864 
L 83.907093 77.161591 
L 84.232072 73.496237 
L 84.557052 80.787071 
L 84.882031 77.547865 
L 85.207011 78.768584 
L 85.53199 82.256017 
L 85.85697 77.835044 
L 86.181949 83.602548 
L 86.506929 84.605271 
L 86.831908 84.477444 
L 87.156888 86.713122 
L 87.481867 82.402644 
L 87.806847 90.277538 
L 88.131826 90.92105 
L 88.456806 95.365458 
L 88.781785 92.055947 
L 89.106765 87.528393 
L 89.431744 94.353983 
L 89.756724 97.058418 
L 90.081704 96.591245 
L 90.406683 95.485022 
L 90.731663 98.222882 
L 91.056642 98.468546 
L 91.381622 101.582516 
L 91.706601 107.322786 
L 92.031581 107.966153 
L 92.35656 100.320944 
L 92.68154 103.623402 
L 93.006519 109.622291 
L 93.331499 112.496125 
L 93.656478 111.99259 
L 93.981458 111.963311 
L 94.306437 117.08146 
L 94.631417 114.57818 
L 94.956396 119.049622 
L 95.281376 119.330697 
L 95.606355 117.890513 
L 95.931335 121.883179 
L 96.256314 128.130812 
L 96.581294 119.355226 
L 96.906274 125.693116 
L 97.231253 128.634549 
L 97.556233 132.870893 
L 97.881212 125.38492 
L 98.206192 137.729846 
L 98.531171 132.069987 
L 98.856151 137.7031 
L 99.18113 135.662215 
L 99.50611 141.899772 
L 99.831089 141.948542 
L 100.156069 143.254192 
L 100.481048 146.074678 
L 100.806028 147.767148 
L 101.131007 148.021421 
L 101.455987 154.324618 
L 101.780966 146.128227 
L 102.105946 161.97583 
L 102.430925 151.020635 
L 102.755905 151.538593 
L 103.080885 163.758413 
L 103.405864 149.549011 
L 103.730844 165.134627 
L 104.055823 165.031861 
L 104.380803 169.107845 
L 104.705782 165.492787 
L 105.030762 173.951742 
L 105.355741 158.768278 
L 105.680721 165.827009 
L 106.0057 177.790872 
L 106.33068 165.661654 
L 106.655659 171.366512 
L 106.980639 170.524394 
L 107.305618 173.643431 
L 107.630598 184.295584 
L 107.955577 178.054832 
L 108.280557 177.531993 
L 108.605536 182.852794 
L 108.930516 181.445286 
L 109.255495 191.992615 
L 109.580475 181.407873 
L 109.905455 180.920648 
L 110.230434 196.840758 
L 110.555414 185.684667 
L 110.880393 194.756342 
L 111.205373 191.804041 
L 111.530352 187.444506 
L 111.855332 196.646858 
L 112.180311 193.654208 
L 112.505291 196.701444 
L 112.83027 196.855628 
L 113.15525 203.237408 
L 113.480229 203.175423 
L 113.805209 201.1729 
L 114.130188 197.41038 
L 114.455168 215.826961 
L 114.780147 212.924726 
L 115.105127 211.617277 
L 115.430106 205.484861 
L 115.755086 206.277345 
L 116.080066 203.350408 
L 116.405045 209.779907 
L 116.730025 203.03526 
L 117.055004 213.47942 
L 117.379984 193.997585 
L 117.704963 209.874741 
L 118.029943 201.007661 
L 118.354922 213.515206 
L 118.679902 218.05894 
L 119.004881 206.657875 
L 119.329861 224.95161 
L 119.65484 220.59468 
L 119.97982 206.94373 
L 120.304799 205.732338 
L 120.629779 232.275639 
L 120.954758 227.354672 
L 121.279738 225.119038 
L 121.604717 229.983202 
L 121.929697 216.243133 
L 122.254676 226.527237 
L 122.579656 224.90523 
L 122.904636 218.5376 
L 123.229615 240.293001 
L 123.554595 223.860503 
L 123.879574 233.680585 
L 124.204554 221.948495 
L 124.529533 244.136161 
L 124.854513 232.96235 
L 125.179492 234.712659 
L 125.504472 228.689774 
L 125.829451 215.597233 
L 126.154431 244.456276 
L 126.47941 233.275468 
L 126.80439 217.412679 
L 127.129369 225.261159 
L 127.454349 238.416448 
L 127.779328 237.174265 
L 128.104308 231.879476 
L 128.429287 238.200927 
L 128.754267 251.676949 
L 129.079247 234.964614 
L 129.404226 238.408358 
L 129.729206 244.400193 
L 130.054185 238.58471 
L 130.379165 240.642826 
L 130.704144 226.493754 
L 131.029124 237.093582 
L 131.354103 223.31207 
L 131.679083 243.073987 
L 132.004062 233.061027 
L 132.654021 238.302627 
L 132.979001 238.505106 
L 133.62896 243.150079 
L 133.953939 253.897124 
L 134.278919 228.943226 
L 134.928878 249.652114 
L 135.253857 232.551432 
L 135.578837 238.665667 
L 135.903817 251.607998 
L 136.228796 245.929871 
L 136.553776 237.117852 
L 136.878755 246.426439 
L 137.203735 241.809925 
L 137.528714 252.342614 
L 137.853694 228.939339 
L 138.178673 222.300552 
L 138.503653 236.119318 
L 139.153612 249.09205 
L 139.478591 249.857372 
L 139.803571 245.73089 
L 140.12855 243.047947 
L 140.45353 235.773465 
L 140.778509 248.028595 
L 141.103489 248.697111 
L 141.428468 242.959648 
L 141.753448 253.199142 
L 142.078428 274.646455 
L 142.403407 244.808419 
L 142.728387 235.571173 
L 143.053366 235.536697 
L 143.378346 251.471447 
L 143.703325 243.394116 
L 144.028305 242.910447 
L 144.353284 241.426271 
L 144.678264 237.411393 
L 145.003243 246.634921 
L 145.328223 249.3866 
L 145.653202 254.693279 
L 146.303161 242.981241 
L 146.628141 247.163719 
L 146.95312 239.983135 
L 147.2781 243.083186 
L 147.603079 244.734213 
L 147.928059 246.99524 
L 148.253038 257.624088 
L 148.578018 253.000636 
L 148.902998 253.837572 
L 149.227977 252.815517 
L 149.552957 242.253476 
L 149.877936 248.222308 
L 150.202916 257.630192 
L 150.527895 234.550241 
L 150.852875 250.436091 
L 151.177854 240.78024 
L 151.502834 236.423094 
L 151.827813 239.410058 
L 152.152793 261.270427 
L 152.477772 258.838978 
L 152.802752 251.138996 
L 153.127731 257.768988 
L 153.452711 239.46925 
L 153.77769 271.272317 
L 154.10267 245.992892 
L 154.427649 254.241422 
L 155.077609 232.854589 
L 155.402588 250.087388 
L 155.727568 248.834323 
L 156.052547 250.181502 
L 156.377527 242.027 
L 156.702506 247.225142 
L 157.027486 247.208501 
L 157.352465 235.446254 
L 157.677445 253.055452 
L 158.002424 243.795131 
L 158.327404 246.138223 
L 158.652383 235.495485 
L 158.977363 249.784576 
L 159.302342 257.584876 
L 159.627322 249.543965 
L 159.952301 258.664857 
L 160.277281 249.573748 
L 160.60226 245.977274 
L 160.92724 252.463071 
L 161.252219 243.651757 
L 161.577199 256.129779 
L 161.902179 240.395493 
L 162.227158 281.933784 
L 162.552138 247.18688 
L 162.877117 249.579952 
L 163.202097 263.105911 
L 163.527076 257.695242 
L 163.852056 267.116945 
L 164.177035 239.913852 
L 164.826994 254.249483 
L 165.151974 251.021389 
L 165.801933 254.364758 
L 166.126912 259.534916 
L 166.451892 258.908908 
L 166.776871 248.672582 
L 167.101851 248.873348 
L 167.42683 242.31536 
L 167.75181 244.59903 
L 168.07679 260.184286 
L 168.726749 248.617766 
L 169.051728 254.446046 
L 169.376708 265.252153 
L 169.701687 236.439591 
L 170.026667 243.421078 
L 170.351646 238.844985 
L 170.676626 278.634659 
L 171.001605 257.953977 
L 171.326585 255.916949 
L 171.651564 255.45028 
L 171.976544 257.947874 
L 172.301523 251.666153 
L 172.626503 251.411118 
L 172.951482 269.444448 
L 173.276462 262.149886 
L 173.601441 260.273793 
L 173.926421 262.990046 
L 174.57638 240.645475 
L 174.90136 241.429942 
L 175.226339 258.83679 
L 175.551319 238.536228 
L 175.876298 265.898586 
L 176.526257 257.070301 
L 176.851237 252.511726 
L 177.176216 249.748431 
L 177.501196 267.645427 
L 177.826175 244.061682 
L 178.151155 259.059825 
L 178.476134 245.444359 
L 178.801114 266.610042 
L 179.451073 250.675594 
L 179.776052 248.726376 
L 180.101032 258.6932 
L 180.426011 258.570815 
L 180.750991 250.637951 
L 181.075971 258.193509 
L 181.40095 257.660435 
L 181.72593 255.466777 
L 182.050909 277.477471 
L 182.375889 247.29395 
L 182.700868 261.395965 
L 183.350827 258.538469 
L 183.675807 251.526033 
L 184.000786 260.711111 
L 184.650745 255.296153 
L 184.975725 256.4941 
L 185.300704 243.906418 
L 185.625684 243.979861 
L 185.950663 289.207021 
L 186.275643 258.862168 
L 186.600622 263.821066 
L 186.925602 252.787677 
L 187.250581 268.209507 
L 187.575561 262.944788 
L 187.900541 261.767743 
L 188.22552 272.366016 
L 188.5505 239.934524 
L 188.875479 248.365595 
L 189.200459 279.683834 
L 189.525438 248.975941 
L 189.850418 269.45916 
L 190.175397 265.526679 
L 190.500377 267.121278 
L 190.825356 276.333513 
L 191.150336 257.478887 
L 191.475315 246.333117 
L 191.800295 252.183824 
L 192.125274 242.351793 
L 192.450254 268.580752 
L 192.775233 256.47625 
L 193.100213 239.618123 
L 193.425192 256.440968 
L 193.750172 264.067118 
L 194.075152 262.291244 
L 194.400131 253.644536 
L 194.725111 254.731771 
L 195.05009 256.815784 
L 195.37507 253.221742 
L 195.700049 255.675042 
L 196.025029 260.940509 
L 196.350008 261.549286 
L 196.674988 261.455186 
L 196.999967 255.701515 
L 197.324947 253.753405 
L 197.649926 255.59551 
L 197.974906 258.812261 
L 198.299885 256.853081 
L 198.624865 265.203124 
L 198.949844 263.448626 
L 199.274824 245.53591 
L 199.599803 256.303281 
L 199.924783 245.955033 
L 200.249762 254.125053 
L 200.574742 269.601281 
L 200.899722 253.206354 
L 201.224701 256.498591 
L 201.549681 262.130337 
L 201.87466 257.446181 
L 202.19964 259.393399 
L 202.524619 263.43354 
L 202.849599 253.954444 
L 203.174578 265.127133 
L 203.499558 280.743085 
L 203.824537 237.717185 
L 204.149517 248.591481 
L 204.474496 250.805897 
L 204.799476 267.457313 
L 205.449435 257.247704 
L 206.099394 263.346925 
L 206.424373 246.765785 
L 206.749353 258.638284 
L 207.074333 249.503199 
L 207.399312 260.146499 
L 207.724292 267.105789 
L 208.049271 253.115421 
L 208.374251 260.28338 
L 208.69923 282.412704 
L 209.02421 258.119519 
L 209.349189 258.330606 
L 209.674169 272.519927 
L 209.999148 256.445978 
L 210.324128 264.269886 
L 210.649107 230.870434 
L 210.974087 247.607069 
L 211.299066 254.600403 
L 211.624046 255.580856 
L 211.949025 262.210459 
L 212.274005 251.752767 
L 212.598984 260.712839 
L 212.923964 258.218873 
L 213.248943 264.28775 
L 213.573923 232.222133 
L 213.898903 252.455168 
L 214.223882 252.21686 
L 214.548862 261.711617 
L 214.873841 250.503272 
L 215.198821 248.251213 
L 215.5238 258.037209 
L 215.84878 286.722714 
L 216.173759 258.997207 
L 216.498739 255.284724 
L 216.823718 267.502384 
L 217.148698 247.343857 
L 217.473677 265.206651 
L 217.798657 264.30629 
L 218.123636 278.631917 
L 218.448616 247.879147 
L 218.773595 258.367529 
L 219.098575 224.638966 
L 219.423554 267.080958 
L 219.748534 287.531227 
L 220.073514 254.249051 
L 220.723473 270.992609 
L 221.048452 265.300635 
L 221.698411 247.77857 
L 222.34837 261.105403 
L 222.67335 249.046318 
L 222.998329 252.873831 
L 223.323309 264.5938 
L 223.648288 249.779725 
L 223.973268 257.792739 
L 224.298247 257.264301 
L 224.623227 252.080468 
L 224.948206 248.676065 
L 225.273186 260.479411 
L 225.598165 263.692836 
L 226.248124 258.158486 
L 226.573104 259.498496 
L 226.898084 290.007768 
L 227.223063 255.359059 
L 227.548043 261.721075 
L 227.873022 284.256559 
L 228.198002 261.088518 
L 228.847961 247.009592 
L 229.17294 263.746932 
L 229.49792 254.325229 
L 229.822899 253.282445 
L 230.472858 264.749842 
L 230.797838 245.122675 
L 231.122817 262.46322 
L 231.447797 252.900433 
L 231.772776 252.470801 
L 232.097756 255.339828 
L 232.422735 253.719721 
L 232.747715 247.750039 
L 233.072695 247.684312 
L 233.722654 290.890581 
L 234.047633 261.162479 
L 234.372613 264.12205 
L 234.697592 282.077467 
L 235.022572 267.637711 
L 235.347551 261.723076 
L 235.672531 271.022479 
L 235.99751 254.096091 
L 236.32249 252.11303 
L 236.647469 255.00218 
L 236.972449 259.011818 
L 237.297428 274.587356 
L 237.622408 250.482976 
L 237.947387 293.615528 
L 238.272367 265.479075 
L 238.597346 273.856713 
L 238.922326 259.463243 
L 239.247305 258.903438 
L 239.572285 264.722779 
L 239.897265 255.054419 
L 240.222244 257.685699 
L 240.547224 267.206021 
L 240.872203 257.99008 
L 241.197183 253.036378 
L 241.522162 276.818514 
L 241.847142 252.106408 
L 242.172121 262.081797 
L 242.497101 286.152437 
L 243.14706 249.682358 
L 243.472039 256.699775 
L 243.797019 253.363489 
L 244.121998 255.259792 
L 244.446978 262.167966 
L 244.771957 252.472845 
L 245.096937 255.363579 
L 245.421916 251.779225 
L 245.746896 269.232137 
L 246.071876 254.35661 
L 246.396855 256.870571 
L 246.721835 268.617632 
L 247.046814 257.816376 
L 247.371794 272.242507 
L 247.696773 269.994076 
L 248.021753 279.404018 
L 248.346732 254.354523 
L 248.671712 259.237329 
L 248.996691 262.360224 
L 249.321671 263.629152 
L 249.64665 252.811731 
L 249.97163 253.383887 
L 250.296609 261.414319 
L 250.621589 246.582192 
L 250.946568 258.4107 
L 251.271548 263.70569 
L 251.596527 247.710208 
L 251.921507 253.273751 
L 252.246486 267.358593 
L 252.571466 263.760837 
L 252.896446 251.011111 
L 253.221425 257.621483 
L 253.546405 274.516936 
L 254.196364 247.388971 
L 254.846323 256.885973 
L 255.171302 246.588224 
L 255.496282 259.56739 
L 255.821261 264.82602 
L 256.146241 280.844462 
L 256.47122 288.109817 
L 256.7962 265.179948 
L 257.121179 254.533106 
L 257.446159 274.686574 
L 257.771138 246.669066 
L 258.096118 258.824425 
L 258.746077 243.522894 
L 259.396036 251.746981 
L 259.721016 273.211056 
L 260.045995 271.735244 
L 260.370975 254.316045 
L 260.695954 245.969486 
L 261.020934 243.970619 
L 261.345913 251.459341 
L 261.670893 239.269118 
L 261.995872 270.618816 
L 262.320852 253.503638 
L 262.645831 257.815325 
L 262.970811 243.943039 
L 263.29579 258.53893 
L 263.62077 262.617433 
L 263.945749 257.289924 
L 264.595708 264.344826 
L 264.920688 262.037331 
L 265.245667 257.716072 
L 265.570647 292.731038 
L 265.895627 260.488983 
L 266.220606 257.050292 
L 266.545586 267.098189 
L 266.870565 263.594446 
L 267.195545 251.529099 
L 267.520524 251.706934 
L 267.845504 268.660701 
L 268.170483 272.735145 
L 268.495463 256.229478 
L 269.145422 249.859041 
L 269.470401 266.139831 
L 269.795381 255.736423 
L 270.12036 267.681112 
L 270.44534 266.419237 
L 270.770319 251.095509 
L 271.095299 265.511866 
L 271.420278 262.223717 
L 271.745258 251.021404 
L 272.070238 250.010735 
L 272.395217 254.761784 
L 272.720197 245.946958 
L 273.045176 260.899527 
L 273.370156 262.559825 
L 273.695135 260.862906 
L 274.020115 285.741994 
L 274.345094 262.037303 
L 274.670074 253.267172 
L 275.320033 266.47591 
L 275.645012 247.273783 
L 275.969992 240.521823 
L 276.294971 256.920262 
L 276.619951 240.339424 
L 276.94493 261.147005 
L 277.26991 267.663607 
L 277.594889 259.543725 
L 277.919869 295.488 
L 278.244848 258.733377 
L 278.569828 254.414435 
L 278.894808 260.969515 
L 279.219787 257.502048 
L 279.544767 265.122051 
L 279.869746 262.248332 
L 280.194726 249.843869 
L 280.519705 262.146704 
L 280.844685 260.582953 
L 281.169664 263.664089 
L 281.494644 270.286091 
L 281.819623 241.47982 
L 282.144603 263.416021 
L 282.469582 262.634362 
L 282.794562 265.71174 
L 283.444521 258.161912 
L 283.7695 251.837151 
L 284.419459 256.864755 
L 284.744439 258.281246 
L 285.069419 251.77066 
L 285.394398 257.305068 
L 285.719378 242.42659 
L 286.044357 249.971135 
L 286.369337 249.819988 
L 286.694316 264.070127 
L 287.019296 254.830506 
L 287.344275 252.696025 
L 287.669255 278.277887 
L 288.319214 239.718009 
L 288.644193 283.435666 
L 288.969173 258.906764 
L 289.294152 257.112996 
L 289.619132 245.829438 
L 289.944111 248.072687 
L 290.269091 252.840737 
L 290.59407 259.419842 
L 290.91905 257.356745 
L 291.244029 247.025499 
L 291.569009 258.875483 
L 291.893989 244.4557 
L 292.218968 254.849075 
L 292.543948 289.143172 
L 292.868927 262.434373 
L 293.193907 248.735617 
L 293.518886 262.019986 
L 293.843866 268.886659 
L 294.168845 245.44636 
L 294.493825 280.948084 
L 294.818804 252.401144 
L 295.143784 265.934387 
L 295.468763 246.958433 
L 295.793743 261.544348 
L 296.118722 241.752978 
L 296.443702 262.775734 
L 296.768681 262.064149 
L 297.093661 260.183753 
L 297.41864 262.518914 
L 297.74362 257.572094 
L 298.0686 241.754576 
L 298.393579 268.348231 
L 298.718559 246.645904 
L 299.043538 263.250882 
L 299.368518 256.1759 
L 299.693497 258.290041 
L 300.018477 244.77901 
L 300.343456 250.945989 
L 300.668436 266.731233 
L 300.993415 266.911645 
L 301.318395 276.076074 
L 301.643374 247.938627 
L 301.968354 260.96036 
L 302.293333 264.487681 
L 302.618313 256.565081 
L 302.943292 263.581592 
L 303.268272 264.805737 
L 303.593251 265.592723 
L 303.918231 249.958021 
L 304.24321 265.150942 
L 304.56819 270.379342 
L 305.218149 258.547106 
L 305.543129 244.608445 
L 305.868108 249.605921 
L 306.193088 263.950001 
L 306.518067 249.898887 
L 306.843047 257.197206 
L 307.168026 236.776231 
L 307.493006 269.059168 
L 307.817985 245.212341 
L 308.142965 263.520787 
L 308.467944 249.631357 
L 308.792924 249.596118 
L 309.442883 265.227998 
L 309.767862 252.028258 
L 310.417821 254.487489 
L 310.742801 271.954594 
L 311.067781 249.026769 
L 311.39276 246.356926 
L 311.71774 264.645665 
L 312.042719 251.508097 
L 312.367699 242.881326 
L 313.342637 266.506758 
L 313.667617 258.998171 
L 313.992596 259.349178 
L 314.317576 266.168736 
L 314.642555 254.177163 
L 314.967535 266.951447 
L 315.292514 257.480153 
L 315.617494 236.84131 
L 315.942473 253.354636 
L 316.267453 251.440282 
L 316.592432 253.745387 
L 316.917412 251.480559 
L 317.242391 235.251289 
L 317.892351 265.059505 
L 318.21733 261.016601 
L 318.54231 283.669605 
L 318.867289 246.481629 
L 319.192269 255.110315 
L 319.842228 263.856521 
L 320.167207 249.222209 
L 320.492187 255.515676 
L 320.817166 265.374208 
L 321.142146 243.782708 
L 321.467125 291.649619 
L 321.792105 262.382177 
L 322.117084 246.582207 
L 322.442064 247.229432 
L 322.767043 267.326737 
L 323.092023 235.499817 
L 323.417002 265.081774 
L 323.741982 251.751673 
L 324.066962 261.755522 
L 324.391941 251.091507 
L 324.716921 257.322817 
L 325.0419 249.864152 
L 325.36688 250.0513 
L 325.691859 282.659973 
L 326.016839 250.712273 
L 326.341818 268.433794 
L 326.666798 278.591402 
L 326.991777 241.327205 
L 327.316757 258.440771 
L 327.641736 263.57402 
L 327.966716 280.536957 
L 328.291695 261.09953 
L 328.616675 262.67556 
L 328.941654 252.154386 
L 329.266634 257.63356 
L 329.591613 254.131401 
L 329.916593 262.064365 
L 330.241572 249.223591 
L 330.566552 252.18974 
L 330.891532 260.694255 
L 331.541491 243.430075 
L 331.86647 259.810219 
L 332.19145 259.776232 
L 332.516429 258.520547 
L 332.841409 256.646715 
L 333.166388 245.313134 
L 333.491368 261.526239 
L 333.816347 253.729236 
L 334.141327 274.365617 
L 334.791286 259.203026 
L 335.116265 275.424343 
L 335.441245 260.437953 
L 335.766224 255.777822 
L 336.091204 274.444408 
L 336.416183 257.871638 
L 336.741163 264.18091 
L 337.066143 258.965207 
L 337.391122 237.426695 
L 337.716102 260.262623 
L 338.366061 272.730971 
L 338.69104 259.769064 
L 339.01602 251.281535 
L 339.340999 253.854615 
L 339.665979 247.942211 
L 339.990958 284.538404 
L 340.315938 239.592313 
L 340.640917 254.176342 
L 340.965897 247.56243 
L 341.290876 255.713434 
L 341.615856 260.28374 
L 341.940835 255.44684 
L 342.265815 282.746515 
L 342.590794 268.82109 
L 342.915774 246.984804 
L 343.240753 264.569905 
L 343.565733 267.343809 
L 343.890713 267.388477 
L 344.215692 255.770956 
L 344.540672 258.298131 
L 344.865651 243.203456 
L 345.190631 252.136968 
L 345.84059 289.683162 
L 346.165569 241.683436 
L 346.490549 266.548691 
L 346.815528 261.074512 
L 347.140508 247.110645 
L 347.465487 278.899403 
L 347.790467 258.765765 
L 348.115446 255.988967 
L 348.440426 251.088974 
L 348.765405 265.303442 
L 349.090385 241.739188 
L 349.415364 268.31708 
L 349.740344 252.294665 
L 350.065324 249.344998 
L 350.390303 245.136437 
L 350.715283 259.390592 
L 351.040262 258.214957 
L 351.365242 264.588431 
L 351.690221 256.529281 
L 352.015201 267.923033 
L 352.34018 262.711072 
L 352.66516 253.782108 
L 352.990139 267.292894 
L 353.315119 252.915907 
L 353.640098 257.655412 
L 353.965078 277.791295 
L 354.290057 250.190571 
L 354.615037 242.721902 
L 354.940016 239.589088 
L 355.264996 248.96929 
L 355.589975 263.118521 
L 355.914955 252.60764 
L 356.239934 250.646142 
L 356.564914 252.060762 
L 356.889894 249.155949 
L 357.214873 275.791169 
L 357.539853 266.9472 
L 357.864832 253.860676 
L 358.189812 266.33291 
L 358.514791 261.151352 
L 358.839771 251.628482 
L 359.16475 263.555508 
L 359.48973 256.047281 
L 359.814709 241.612383 
L 360.139689 268.33218 
L 360.464668 260.253352 
L 360.789648 263.876357 
L 361.114627 256.499988 
L 361.439607 264.459251 
L 361.764586 248.830883 
L 362.089566 259.762715 
L 362.414545 243.693272 
L 362.739525 255.33823 
L 363.064505 246.128406 
L 363.389484 251.32531 
L 363.714464 247.620701 
L 364.039443 256.085485 
L 364.364423 261.200986 
L 364.689402 269.324654 
L 365.014382 252.123293 
L 365.339361 250.477347 
L 365.664341 262.55529 
L 365.98932 244.080064 
L 366.3143 245.554293 
L 366.639279 258.962602 
L 366.964259 255.818546 
L 367.289238 251.239775 
L 367.614218 260.216717 
L 367.939197 257.754722 
L 368.264177 268.397101 
L 368.589156 248.86379 
L 368.914136 245.535839 
L 369.239115 263.082044 
L 369.564095 254.977651 
L 369.889075 267.968607 
L 370.214054 293.275433 
L 370.539034 253.333778 
L 370.864013 258.285032 
L 371.188993 267.268322 
L 371.513972 242.846288 
L 371.838952 260.484521 
L 372.163931 247.736479 
L 372.488911 246.668864 
L 372.81389 268.778107 
L 373.13887 271.160382 
L 373.463849 261.266958 
L 373.788829 234.343933 
L 374.113808 257.41647 
L 374.438788 264.431728 
L 374.763767 241.351331 
L 375.088747 228.82582 
L 375.413726 254.981926 
L 375.738706 266.473506 
L 376.063686 261.351988 
L 376.388665 262.716413 
L 376.713645 266.053447 
L 377.038624 254.790013 
L 377.363604 248.357275 
L 377.688583 244.140552 
L 378.013563 272.432938 
L 378.338542 245.22927 
L 378.663522 257.715395 
L 378.988501 290.02104 
L 379.313481 255.150433 
L 379.63846 269.537425 
L 379.96344 236.526407 
L 380.288419 270.894465 
L 380.613399 264.058971 
L 380.938378 264.310148 
L 381.263358 254.631352 
L 381.588337 250.705968 
L 381.913317 251.286659 
L 382.238296 281.679714 
L 382.888256 254.957037 
L 383.213235 267.451829 
L 383.538215 256.357823 
L 383.863194 250.217029 
L 384.188174 273.155924 
L 384.513153 283.11838 
L 384.838133 238.485457 
L 385.163112 259.304985 
L 385.488092 295.47295 
L 385.813071 237.645829 
L 386.138051 247.638752 
L 386.46303 272.096255 
L 386.78801 258.912147 
L 387.112989 269.035071 
L 387.437969 264.490618 
L 387.762948 241.591597 
L 388.087928 252.936506 
L 388.412907 273.233397 
L 388.737887 260.546419 
L 389.062867 268.104035 
L 389.387846 290.077771 
L 389.712826 258.658321 
L 390.037805 261.692817 
L 390.362785 242.29656 
L 390.687764 266.832098 
L 391.012744 258.578098 
L 391.337723 246.223096 
L 391.662703 247.983971 
L 391.987682 255.396587 
L 392.312662 245.368886 
L 392.637641 245.109245 
L 392.962621 257.929362 
L 393.2876 246.622699 
L 393.61258 242.166559 
L 393.937559 243.34192 
L 394.262539 250.183964 
L 394.587518 268.326019 
L 394.912498 251.927378 
L 395.237477 258.811296 
L 395.562457 274.642964 
L 395.887437 247.361966 
L 396.212416 271.200314 
L 396.537396 265.372826 
L 396.862375 251.824353 
L 397.187355 264.963405 
L 397.512334 262.046703 
L 397.837314 251.005656 
L 398.162293 282.906767 
L 398.487273 270.096481 
L 398.487273 270.096481 
" clip-path="url(#p65d1c7ee44)" style="fill: none; stroke: #0000ff; stroke-width: 1.5; stroke-linecap: square"/>
   </g>
   <g id="patch_3">
    <path d="M 57.6 307.584 
L 57.6 41.472 
" style="fill: none; stroke: #000000; stroke-width: 0.8; stroke-linejoin: miter; stroke-linecap: square"/>
   </g>
   <g id="patch_4">
    <path d="M 414.72 307.584 
L 414.72 41.472 
" style="fill: none; stroke: #000000; stroke-width: 0.8; stroke-linejoin: miter; stroke-linecap: square"/>
   </g>
   <g id="patch_5">
    <path d="M 57.6 307.584 
L 414.72 307.584 
" style="fill: none; stroke: #000000; stroke-width: 0.8; stroke-linejoin: miter; stroke-linecap: square"/>
   </g>
   <g id="patch_6">
    <path d="M 57.6 41.472 
L 414.72 41.472 
" style="fill: none; stroke: #000000; stroke-width: 0.8; stroke-linejoin: miter; stroke-linecap: square"/>
   </g>
   <g id="legend_1">
    <g id="patch_7">
     <path d="M 311.155937 78.82825 
L 407.72 78.82825 
Q 409.72 78.82825 409.72 76.82825 
L 409.72 48.472 
Q 409.72 46.472 407.72 46.472 
L 311.155937 46.472 
Q 309.155937 46.472 309.155937 48.472 
L 309.155937 76.82825 
Q 309.155937 78.82825 311.155937 78.82825 
z
" style="fill: #ffffff; opacity: 0.8; stroke: #cccccc; stroke-linejoin: miter"/>
    </g>
    <g id="line2d_15">
     <path d="M 313.155937 54.570437 
L 323.155937 54.570437 
L 333.155937 54.570437 
" style="fill: none; stroke-dasharray: 5.55,2.4; stroke-dashoffset: 0; stroke: #ff0000; stroke-width: 1.5"/>
    </g>
    <g id="text_15">
     <!-- Training Loss -->
     <g transform="translate(341.155937 58.070437) scale(0.1 -0.1)">
      <defs>
       <path id="DejaVuSans-54" d="M -19 4666 
L 3928 4666 
L 3928 4134 
L 2272 4134 
L 2272 0 
L 1638 0 
L 1638 4134 
L -19 4134 
L -19 4666 
z
" transform="scale(0.015625)"/>
       <path id="DejaVuSans-72" d="M 2631 2963 
Q 2534 3019 2420 3045 
Q 2306 3072 2169 3072 
Q 1681 3072 1420 2755 
Q 1159 2438 1159 1844 
L 1159 0 
L 581 0 
L 581 3500 
L 1159 3500 
L 1159 2956 
Q 1341 3275 1631 3429 
Q 1922 3584 2338 3584 
Q 2397 3584 2469 3576 
Q 2541 3569 2628 3553 
L 2631 2963 
z
" transform="scale(0.015625)"/>
       <path id="DejaVuSans-61" d="M 2194 1759 
Q 1497 1759 1228 1600 
Q 959 1441 959 1056 
Q 959 750 1161 570 
Q 1363 391 1709 391 
Q 2188 391 2477 730 
Q 2766 1069 2766 1631 
L 2766 1759 
L 2194 1759 
z
M 3341 1997 
L 3341 0 
L 2766 0 
L 2766 531 
Q 2569 213 2275 61 
Q 1981 -91 1556 -91 
Q 1019 -91 701 211 
Q 384 513 384 1019 
Q 384 1609 779 1909 
Q 1175 2209 1959 2209 
L 2766 2209 
L 2766 2266 
Q 2766 2663 2505 2880 
Q 2244 3097 1772 3097 
Q 1472 3097 1187 3025 
Q 903 2953 641 2809 
L 641 3341 
Q 956 3463 1253 3523 
Q 1550 3584 1831 3584 
Q 2591 3584 2966 3190 
Q 3341 2797 3341 1997 
z
" transform="scale(0.015625)"/>
       <path id="DejaVuSans-69" d="M 603 3500 
L 1178 3500 
L 1178 0 
L 603 0 
L 603 3500 
z
M 603 4863 
L 1178 4863 
L 1178 4134 
L 603 4134 
L 603 4863 
z
" transform="scale(0.015625)"/>
       <path id="DejaVuSans-6e" d="M 3513 2113 
L 3513 0 
L 2938 0 
L 2938 2094 
Q 2938 2591 2744 2837 
Q 2550 3084 2163 3084 
Q 1697 3084 1428 2787 
Q 1159 2491 1159 1978 
L 1159 0 
L 581 0 
L 581 3500 
L 1159 3500 
L 1159 2956 
Q 1366 3272 1645 3428 
Q 1925 3584 2291 3584 
Q 2894 3584 3203 3211 
Q 3513 2838 3513 2113 
z
" transform="scale(0.015625)"/>
       <path id="DejaVuSans-67" d="M 2906 1791 
Q 2906 2416 2648 2759 
Q 2391 3103 1925 3103 
Q 1463 3103 1205 2759 
Q 947 2416 947 1791 
Q 947 1169 1205 825 
Q 1463 481 1925 481 
Q 2391 481 2648 825 
Q 2906 1169 2906 1791 
z
M 3481 434 
Q 3481 -459 3084 -895 
Q 2688 -1331 1869 -1331 
Q 1566 -1331 1297 -1286 
Q 1028 -1241 775 -1147 
L 775 -588 
Q 1028 -725 1275 -790 
Q 1522 -856 1778 -856 
Q 2344 -856 2625 -561 
Q 2906 -266 2906 331 
L 2906 616 
Q 2728 306 2450 153 
Q 2172 0 1784 0 
Q 1141 0 747 490 
Q 353 981 353 1791 
Q 353 2603 747 3093 
Q 1141 3584 1784 3584 
Q 2172 3584 2450 3431 
Q 2728 3278 2906 2969 
L 2906 3500 
L 3481 3500 
L 3481 434 
z
" transform="scale(0.015625)"/>
       <path id="DejaVuSans-20" transform="scale(0.015625)"/>
      </defs>
      <use xlink:href="#DejaVuSans-54"/>
      <use xlink:href="#DejaVuSans-72" x="46.333984"/>
      <use xlink:href="#DejaVuSans-61" x="87.447266"/>
      <use xlink:href="#DejaVuSans-69" x="148.726562"/>
      <use xlink:href="#DejaVuSans-6e" x="176.509766"/>
      <use xlink:href="#DejaVuSans-69" x="239.888672"/>
      <use xlink:href="#DejaVuSans-6e" x="267.671875"/>
      <use xlink:href="#DejaVuSans-67" x="331.050781"/>
      <use xlink:href="#DejaVuSans-20" x="394.527344"/>
      <use xlink:href="#DejaVuSans-4c" x="426.314453"/>
      <use xlink:href="#DejaVuSans-6f" x="480.277344"/>
      <use xlink:href="#DejaVuSans-73" x="541.458984"/>
      <use xlink:href="#DejaVuSans-73" x="593.558594"/>
     </g>
    </g>
    <g id="line2d_16">
     <path d="M 313.155937 69.248562 
L 323.155937 69.248562 
L 333.155937 69.248562 
" style="fill: none; stroke: #0000ff; stroke-width: 1.5; stroke-linecap: square"/>
    </g>
    <g id="text_16">
     <!-- Test Loss -->
     <g transform="translate(341.155937 72.748562) scale(0.1 -0.1)">
      <defs>
       <path id="DejaVuSans-65" d="M 3597 1894 
L 3597 1613 
L 953 1613 
Q 991 1019 1311 708 
Q 1631 397 2203 397 
Q 2534 397 2845 478 
Q 3156 559 3463 722 
L 3463 178 
Q 3153 47 2828 -22 
Q 2503 -91 2169 -91 
Q 1331 -91 842 396 
Q 353 884 353 1716 
Q 353 2575 817 3079 
Q 1281 3584 2069 3584 
Q 2775 3584 3186 3129 
Q 3597 2675 3597 1894 
z
M 3022 2063 
Q 3016 2534 2758 2815 
Q 2500 3097 2075 3097 
Q 1594 3097 1305 2825 
Q 1016 2553 972 2059 
L 3022 2063 
z
" transform="scale(0.015625)"/>
       <path id="DejaVuSans-74" d="M 1172 4494 
L 1172 3500 
L 2356 3500 
L 2356 3053 
L 1172 3053 
L 1172 1153 
Q 1172 725 1289 603 
Q 1406 481 1766 481 
L 2356 481 
L 2356 0 
L 1766 0 
Q 1100 0 847 248 
Q 594 497 594 1153 
L 594 3053 
L 172 3053 
L 172 3500 
L 594 3500 
L 594 4494 
L 1172 4494 
z
" transform="scale(0.015625)"/>
      </defs>
      <use xlink:href="#DejaVuSans-54"/>
      <use xlink:href="#DejaVuSans-65" x="44.083984"/>
      <use xlink:href="#DejaVuSans-73" x="105.607422"/>
      <use xlink:href="#DejaVuSans-74" x="157.707031"/>
      <use xlink:href="#DejaVuSans-20" x="196.916016"/>
      <use xlink:href="#DejaVuSans-4c" x="228.703125"/>
      <use xlink:href="#DejaVuSans-6f" x="282.666016"/>
      <use xlink:href="#DejaVuSans-73" x="343.847656"/>
      <use xlink:href="#DejaVuSans-73" x="395.947266"/>
     </g>
    </g>
   </g>
  </g>
 </g>
 <defs>
  <clipPath id="p65d1c7ee44">
   <rect x="57.6" y="41.472" width="357.12" height="266.112"/>
  </clipPath>
 </defs>
</svg>
