<?xml version="1.0" encoding="utf-8" standalone="no"?>
<!DOCTYPE svg PUBLIC "-//W3C//DTD SVG 1.1//EN"
  "http://www.w3.org/Graphics/SVG/1.1/DTD/svg11.dtd">
<svg xmlns:xlink="http://www.w3.org/1999/xlink" width="460.8pt" height="345.6pt" viewBox="0 0 460.8 345.6" xmlns="http://www.w3.org/2000/svg" version="1.1">
 <metadata>
  <rdf:RDF xmlns:dc="http://purl.org/dc/elements/1.1/" xmlns:cc="http://creativecommons.org/ns#" xmlns:rdf="http://www.w3.org/1999/02/22-rdf-syntax-ns#">
   <cc:Work>
    <dc:type rdf:resource="http://purl.org/dc/dcmitype/StillImage"/>
    <dc:date>2024-03-23T20:10:33.031287</dc:date>
    <dc:format>image/svg+xml</dc:format>
    <dc:creator>
     <cc:Agent>
      <dc:title>Matplotlib v3.8.3, https://matplotlib.org/</dc:title>
     </cc:Agent>
    </dc:creator>
   </cc:Work>
  </rdf:RDF>
 </metadata>
 <defs>
  <style type="text/css">*{stroke-linejoin: round; stroke-linecap: butt}</style>
 </defs>
 <g id="figure_1">
  <g id="patch_1">
   <path d="M 0 345.6 
L 460.8 345.6 
L 460.8 0 
L 0 0 
z
" style="fill: #ffffff"/>
  </g>
  <g id="axes_1">
   <g id="patch_2">
    <path d="M 57.6 307.584 
L 414.72 307.584 
L 414.72 41.472 
L 57.6 41.472 
z
" style="fill: #ffffff"/>
   </g>
   <g id="PathCollection_1">
    <defs>
     <path id="C0_0_3ed71a29a5" d="M 0 3 
C 0.795609 3 1.55874 2.683901 2.12132 2.12132 
C 2.683901 1.55874 3 0.795609 3 -0 
C 3 -0.795609 2.683901 -1.55874 2.12132 -2.12132 
C 1.55874 -2.683901 0.795609 -3 0 -3 
C -0.795609 -3 -1.55874 -2.683901 -2.12132 -2.12132 
C -2.683901 -1.55874 -3 -0.795609 -3 0 
C -3 0.795609 -2.683901 1.55874 -2.12132 2.12132 
C -1.55874 2.683901 -0.795609 3 0 3 
z
"/>
    </defs>
    <g clip-path="url(#p4e39c512c8)">
     <use xlink:href="#C0_0_3ed71a29a5" x="377.801881" y="89.47759" style="fill: #440154; stroke: #440154"/>
    </g>
    <g clip-path="url(#p4e39c512c8)">
     <use xlink:href="#C0_0_3ed71a29a5" x="116.203286" y="214.111843" style="fill: #21918c; stroke: #21918c"/>
    </g>
    <g clip-path="url(#p4e39c512c8)">
     <use xlink:href="#C0_0_3ed71a29a5" x="80.317526" y="211.215365" style="fill: #21918c; stroke: #21918c"/>
    </g>
    <g clip-path="url(#p4e39c512c8)">
     <use xlink:href="#C0_0_3ed71a29a5" x="106.550298" y="200.883515" style="fill: #21918c; stroke: #21918c"/>
    </g>
    <g clip-path="url(#p4e39c512c8)">
     <use xlink:href="#C0_0_3ed71a29a5" x="234.468353" y="277.653077" style="fill: #fde725; stroke: #fde725"/>
    </g>
    <g clip-path="url(#p4e39c512c8)">
     <use xlink:href="#C0_0_3ed71a29a5" x="207.416793" y="275.244835" style="fill: #fde725; stroke: #fde725"/>
    </g>
    <g clip-path="url(#p4e39c512c8)">
     <use xlink:href="#C0_0_3ed71a29a5" x="205.508476" y="278.233652" style="fill: #fde725; stroke: #fde725"/>
    </g>
    <g clip-path="url(#p4e39c512c8)">
     <use xlink:href="#C0_0_3ed71a29a5" x="115.367299" y="212.186689" style="fill: #21918c; stroke: #21918c"/>
    </g>
    <g clip-path="url(#p4e39c512c8)">
     <use xlink:href="#C0_0_3ed71a29a5" x="346.99668" y="61.363172" style="fill: #440154; stroke: #440154"/>
    </g>
    <g clip-path="url(#p4e39c512c8)">
     <use xlink:href="#C0_0_3ed71a29a5" x="371.89649" y="71.318275" style="fill: #440154; stroke: #440154"/>
    </g>
    <g clip-path="url(#p4e39c512c8)">
     <use xlink:href="#C0_0_3ed71a29a5" x="102.338688" y="220.281341" style="fill: #21918c; stroke: #21918c"/>
    </g>
    <g clip-path="url(#p4e39c512c8)">
     <use xlink:href="#C0_0_3ed71a29a5" x="104.853787" y="197.885693" style="fill: #21918c; stroke: #21918c"/>
    </g>
    <g clip-path="url(#p4e39c512c8)">
     <use xlink:href="#C0_0_3ed71a29a5" x="193.122058" y="280.661134" style="fill: #fde725; stroke: #fde725"/>
    </g>
    <g clip-path="url(#p4e39c512c8)">
     <use xlink:href="#C0_0_3ed71a29a5" x="352.534973" y="56.894814" style="fill: #440154; stroke: #440154"/>
    </g>
    <g clip-path="url(#p4e39c512c8)">
     <use xlink:href="#C0_0_3ed71a29a5" x="229.178173" y="291.095136" style="fill: #fde725; stroke: #fde725"/>
    </g>
    <g clip-path="url(#p4e39c512c8)">
     <use xlink:href="#C0_0_3ed71a29a5" x="210.307274" y="273.882731" style="fill: #fde725; stroke: #fde725"/>
    </g>
    <g clip-path="url(#p4e39c512c8)">
     <use xlink:href="#C0_0_3ed71a29a5" x="198.495527" y="270.056512" style="fill: #fde725; stroke: #fde725"/>
    </g>
    <g clip-path="url(#p4e39c512c8)">
     <use xlink:href="#C0_0_3ed71a29a5" x="353.474873" y="77.596906" style="fill: #440154; stroke: #440154"/>
    </g>
    <g clip-path="url(#p4e39c512c8)">
     <use xlink:href="#C0_0_3ed71a29a5" x="97.557238" y="206.744299" style="fill: #21918c; stroke: #21918c"/>
    </g>
    <g clip-path="url(#p4e39c512c8)">
     <use xlink:href="#C0_0_3ed71a29a5" x="85.789088" y="205.718148" style="fill: #21918c; stroke: #21918c"/>
    </g>
    <g clip-path="url(#p4e39c512c8)">
     <use xlink:href="#C0_0_3ed71a29a5" x="203.670394" y="273.660809" style="fill: #fde725; stroke: #fde725"/>
    </g>
    <g clip-path="url(#p4e39c512c8)">
     <use xlink:href="#C0_0_3ed71a29a5" x="98.773685" y="206.833893" style="fill: #21918c; stroke: #21918c"/>
    </g>
    <g clip-path="url(#p4e39c512c8)">
     <use xlink:href="#C0_0_3ed71a29a5" x="198.751" y="278.044711" style="fill: #fde725; stroke: #fde725"/>
    </g>
    <g clip-path="url(#p4e39c512c8)">
     <use xlink:href="#C0_0_3ed71a29a5" x="369.240964" y="72.736114" style="fill: #440154; stroke: #440154"/>
    </g>
    <g clip-path="url(#p4e39c512c8)">
     <use xlink:href="#C0_0_3ed71a29a5" x="97.064749" y="212.310687" style="fill: #21918c; stroke: #21918c"/>
    </g>
    <g clip-path="url(#p4e39c512c8)">
     <use xlink:href="#C0_0_3ed71a29a5" x="189.99348" y="295.488" style="fill: #fde725; stroke: #fde725"/>
    </g>
    <g clip-path="url(#p4e39c512c8)">
     <use xlink:href="#C0_0_3ed71a29a5" x="201.768259" y="276.44179" style="fill: #fde725; stroke: #fde725"/>
    </g>
    <g clip-path="url(#p4e39c512c8)">
     <use xlink:href="#C0_0_3ed71a29a5" x="368.945314" y="73.575399" style="fill: #440154; stroke: #440154"/>
    </g>
    <g clip-path="url(#p4e39c512c8)">
     <use xlink:href="#C0_0_3ed71a29a5" x="387.151435" y="87.508278" style="fill: #440154; stroke: #440154"/>
    </g>
    <g clip-path="url(#p4e39c512c8)">
     <use xlink:href="#C0_0_3ed71a29a5" x="203.009411" y="284.960202" style="fill: #fde725; stroke: #fde725"/>
    </g>
    <g clip-path="url(#p4e39c512c8)">
     <use xlink:href="#C0_0_3ed71a29a5" x="360.044543" y="66.375154" style="fill: #440154; stroke: #440154"/>
    </g>
    <g clip-path="url(#p4e39c512c8)">
     <use xlink:href="#C0_0_3ed71a29a5" x="346.340174" y="73.551683" style="fill: #440154; stroke: #440154"/>
    </g>
    <g clip-path="url(#p4e39c512c8)">
     <use xlink:href="#C0_0_3ed71a29a5" x="186.750397" y="283.758418" style="fill: #fde725; stroke: #fde725"/>
    </g>
    <g clip-path="url(#p4e39c512c8)">
     <use xlink:href="#C0_0_3ed71a29a5" x="361.236192" y="77.942993" style="fill: #440154; stroke: #440154"/>
    </g>
    <g clip-path="url(#p4e39c512c8)">
     <use xlink:href="#C0_0_3ed71a29a5" x="128.448267" y="204.34248" style="fill: #21918c; stroke: #21918c"/>
    </g>
    <g clip-path="url(#p4e39c512c8)">
     <use xlink:href="#C0_0_3ed71a29a5" x="191.929309" y="276.454766" style="fill: #fde725; stroke: #fde725"/>
    </g>
    <g clip-path="url(#p4e39c512c8)">
     <use xlink:href="#C0_0_3ed71a29a5" x="121.730555" y="205.589464" style="fill: #21918c; stroke: #21918c"/>
    </g>
    <g clip-path="url(#p4e39c512c8)">
     <use xlink:href="#C0_0_3ed71a29a5" x="81.429953" y="204.528907" style="fill: #21918c; stroke: #21918c"/>
    </g>
    <g clip-path="url(#p4e39c512c8)">
     <use xlink:href="#C0_0_3ed71a29a5" x="100.110202" y="212.026711" style="fill: #21918c; stroke: #21918c"/>
    </g>
    <g clip-path="url(#p4e39c512c8)">
     <use xlink:href="#C0_0_3ed71a29a5" x="192.714706" y="276.595966" style="fill: #fde725; stroke: #fde725"/>
    </g>
    <g clip-path="url(#p4e39c512c8)">
     <use xlink:href="#C0_0_3ed71a29a5" x="199.250299" y="276.221178" style="fill: #fde725; stroke: #fde725"/>
    </g>
    <g clip-path="url(#p4e39c512c8)">
     <use xlink:href="#C0_0_3ed71a29a5" x="108.437619" y="217.805495" style="fill: #21918c; stroke: #21918c"/>
    </g>
    <g clip-path="url(#p4e39c512c8)">
     <use xlink:href="#C0_0_3ed71a29a5" x="359.190139" y="73.834859" style="fill: #440154; stroke: #440154"/>
    </g>
    <g clip-path="url(#p4e39c512c8)">
     <use xlink:href="#C0_0_3ed71a29a5" x="83.671513" y="202.608706" style="fill: #21918c; stroke: #21918c"/>
    </g>
    <g clip-path="url(#p4e39c512c8)">
     <use xlink:href="#C0_0_3ed71a29a5" x="106.052109" y="206.129094" style="fill: #21918c; stroke: #21918c"/>
    </g>
    <g clip-path="url(#p4e39c512c8)">
     <use xlink:href="#C0_0_3ed71a29a5" x="203.14869" y="274.50137" style="fill: #fde725; stroke: #fde725"/>
    </g>
    <g clip-path="url(#p4e39c512c8)">
     <use xlink:href="#C0_0_3ed71a29a5" x="378.368825" y="66.602444" style="fill: #440154; stroke: #440154"/>
    </g>
    <g clip-path="url(#p4e39c512c8)">
     <use xlink:href="#C0_0_3ed71a29a5" x="398.487273" y="82.094304" style="fill: #440154; stroke: #440154"/>
    </g>
    <g clip-path="url(#p4e39c512c8)">
     <use xlink:href="#C0_0_3ed71a29a5" x="346.73515" y="68.789415" style="fill: #440154; stroke: #440154"/>
    </g>
    <g clip-path="url(#p4e39c512c8)">
     <use xlink:href="#C0_0_3ed71a29a5" x="362.31648" y="78.33572" style="fill: #440154; stroke: #440154"/>
    </g>
    <g clip-path="url(#p4e39c512c8)">
     <use xlink:href="#C0_0_3ed71a29a5" x="99.461392" y="208.737733" style="fill: #21918c; stroke: #21918c"/>
    </g>
    <g clip-path="url(#p4e39c512c8)">
     <use xlink:href="#C0_0_3ed71a29a5" x="205.179118" y="288.90128" style="fill: #fde725; stroke: #fde725"/>
    </g>
    <g clip-path="url(#p4e39c512c8)">
     <use xlink:href="#C0_0_3ed71a29a5" x="196.071986" y="270.580017" style="fill: #fde725; stroke: #fde725"/>
    </g>
    <g clip-path="url(#p4e39c512c8)">
     <use xlink:href="#C0_0_3ed71a29a5" x="188.571361" y="268.902537" style="fill: #fde725; stroke: #fde725"/>
    </g>
    <g clip-path="url(#p4e39c512c8)">
     <use xlink:href="#C0_0_3ed71a29a5" x="366.124759" y="65.666656" style="fill: #440154; stroke: #440154"/>
    </g>
    <g clip-path="url(#p4e39c512c8)">
     <use xlink:href="#C0_0_3ed71a29a5" x="202.611973" y="277.049947" style="fill: #fde725; stroke: #fde725"/>
    </g>
    <g clip-path="url(#p4e39c512c8)">
     <use xlink:href="#C0_0_3ed71a29a5" x="93.230354" y="201.405454" style="fill: #21918c; stroke: #21918c"/>
    </g>
    <g clip-path="url(#p4e39c512c8)">
     <use xlink:href="#C0_0_3ed71a29a5" x="122.903174" y="191.052453" style="fill: #21918c; stroke: #21918c"/>
    </g>
    <g clip-path="url(#p4e39c512c8)">
     <use xlink:href="#C0_0_3ed71a29a5" x="364.903454" y="65.947191" style="fill: #440154; stroke: #440154"/>
    </g>
    <g clip-path="url(#p4e39c512c8)">
     <use xlink:href="#C0_0_3ed71a29a5" x="372.278991" y="73.13359" style="fill: #440154; stroke: #440154"/>
    </g>
    <g clip-path="url(#p4e39c512c8)">
     <use xlink:href="#C0_0_3ed71a29a5" x="105.868184" y="203.754782" style="fill: #21918c; stroke: #21918c"/>
    </g>
    <g clip-path="url(#p4e39c512c8)">
     <use xlink:href="#C0_0_3ed71a29a5" x="184.716243" y="268.270449" style="fill: #fde725; stroke: #fde725"/>
    </g>
    <g clip-path="url(#p4e39c512c8)">
     <use xlink:href="#C0_0_3ed71a29a5" x="202.736907" y="265.074664" style="fill: #fde725; stroke: #fde725"/>
    </g>
    <g clip-path="url(#p4e39c512c8)">
     <use xlink:href="#C0_0_3ed71a29a5" x="102.559281" y="213.423686" style="fill: #21918c; stroke: #21918c"/>
    </g>
    <g clip-path="url(#p4e39c512c8)">
     <use xlink:href="#C0_0_3ed71a29a5" x="73.832727" y="197.015403" style="fill: #21918c; stroke: #21918c"/>
    </g>
    <g clip-path="url(#p4e39c512c8)">
     <use xlink:href="#C0_0_3ed71a29a5" x="215.714907" y="277.96857" style="fill: #fde725; stroke: #fde725"/>
    </g>
    <g clip-path="url(#p4e39c512c8)">
     <use xlink:href="#C0_0_3ed71a29a5" x="352.421537" y="60.480936" style="fill: #440154; stroke: #440154"/>
    </g>
    <g clip-path="url(#p4e39c512c8)">
     <use xlink:href="#C0_0_3ed71a29a5" x="174.913208" y="273.066824" style="fill: #fde725; stroke: #fde725"/>
    </g>
    <g clip-path="url(#p4e39c512c8)">
     <use xlink:href="#C0_0_3ed71a29a5" x="361.540281" y="77.863285" style="fill: #440154; stroke: #440154"/>
    </g>
    <g clip-path="url(#p4e39c512c8)">
     <use xlink:href="#C0_0_3ed71a29a5" x="109.58063" y="206.469024" style="fill: #21918c; stroke: #21918c"/>
    </g>
    <g clip-path="url(#p4e39c512c8)">
     <use xlink:href="#C0_0_3ed71a29a5" x="109.267212" y="202.25758" style="fill: #21918c; stroke: #21918c"/>
    </g>
    <g clip-path="url(#p4e39c512c8)">
     <use xlink:href="#C0_0_3ed71a29a5" x="114.5486" y="214.880197" style="fill: #21918c; stroke: #21918c"/>
    </g>
    <g clip-path="url(#p4e39c512c8)">
     <use xlink:href="#C0_0_3ed71a29a5" x="204.290222" y="272.19609" style="fill: #fde725; stroke: #fde725"/>
    </g>
    <g clip-path="url(#p4e39c512c8)">
     <use xlink:href="#C0_0_3ed71a29a5" x="377.387846" y="63.105886" style="fill: #440154; stroke: #440154"/>
    </g>
    <g clip-path="url(#p4e39c512c8)">
     <use xlink:href="#C0_0_3ed71a29a5" x="390.249058" y="64.64821" style="fill: #440154; stroke: #440154"/>
    </g>
    <g clip-path="url(#p4e39c512c8)">
     <use xlink:href="#C0_0_3ed71a29a5" x="107.890607" y="223.596965" style="fill: #21918c; stroke: #21918c"/>
    </g>
    <g clip-path="url(#p4e39c512c8)">
     <use xlink:href="#C0_0_3ed71a29a5" x="208.466994" y="269.502912" style="fill: #fde725; stroke: #fde725"/>
    </g>
    <g clip-path="url(#p4e39c512c8)">
     <use xlink:href="#C0_0_3ed71a29a5" x="195.536864" y="277.470988" style="fill: #fde725; stroke: #fde725"/>
    </g>
    <g clip-path="url(#p4e39c512c8)">
     <use xlink:href="#C0_0_3ed71a29a5" x="355.966221" y="79.454983" style="fill: #440154; stroke: #440154"/>
    </g>
    <g clip-path="url(#p4e39c512c8)">
     <use xlink:href="#C0_0_3ed71a29a5" x="95.939049" y="197.110494" style="fill: #21918c; stroke: #21918c"/>
    </g>
    <g clip-path="url(#p4e39c512c8)">
     <use xlink:href="#C0_0_3ed71a29a5" x="381.973246" y="58.303184" style="fill: #440154; stroke: #440154"/>
    </g>
    <g clip-path="url(#p4e39c512c8)">
     <use xlink:href="#C0_0_3ed71a29a5" x="84.153956" y="200.056837" style="fill: #21918c; stroke: #21918c"/>
    </g>
    <g clip-path="url(#p4e39c512c8)">
     <use xlink:href="#C0_0_3ed71a29a5" x="105.452581" y="199.952223" style="fill: #21918c; stroke: #21918c"/>
    </g>
    <g clip-path="url(#p4e39c512c8)">
     <use xlink:href="#C0_0_3ed71a29a5" x="224.696265" y="266.56079" style="fill: #fde725; stroke: #fde725"/>
    </g>
    <g clip-path="url(#p4e39c512c8)">
     <use xlink:href="#C0_0_3ed71a29a5" x="353.404551" y="73.938458" style="fill: #440154; stroke: #440154"/>
    </g>
    <g clip-path="url(#p4e39c512c8)">
     <use xlink:href="#C0_0_3ed71a29a5" x="382.006778" y="79.674617" style="fill: #440154; stroke: #440154"/>
    </g>
    <g clip-path="url(#p4e39c512c8)">
     <use xlink:href="#C0_0_3ed71a29a5" x="367.233426" y="53.568" style="fill: #440154; stroke: #440154"/>
    </g>
    <g clip-path="url(#p4e39c512c8)">
     <use xlink:href="#C0_0_3ed71a29a5" x="378.357312" y="76.279579" style="fill: #440154; stroke: #440154"/>
    </g>
    <g clip-path="url(#p4e39c512c8)">
     <use xlink:href="#C0_0_3ed71a29a5" x="98.147161" y="200.345389" style="fill: #21918c; stroke: #21918c"/>
    </g>
    <g clip-path="url(#p4e39c512c8)">
     <use xlink:href="#C0_0_3ed71a29a5" x="353.724423" y="70.805082" style="fill: #440154; stroke: #440154"/>
    </g>
    <g clip-path="url(#p4e39c512c8)">
     <use xlink:href="#C0_0_3ed71a29a5" x="213.033692" y="272.610428" style="fill: #fde725; stroke: #fde725"/>
    </g>
    <g clip-path="url(#p4e39c512c8)">
     <use xlink:href="#C0_0_3ed71a29a5" x="365.038111" y="75.89834" style="fill: #440154; stroke: #440154"/>
    </g>
    <g clip-path="url(#p4e39c512c8)">
     <use xlink:href="#C0_0_3ed71a29a5" x="360.968903" y="65.916125" style="fill: #440154; stroke: #440154"/>
    </g>
    <g clip-path="url(#p4e39c512c8)">
     <use xlink:href="#C0_0_3ed71a29a5" x="92.436552" y="204.019816" style="fill: #21918c; stroke: #21918c"/>
    </g>
    <g clip-path="url(#p4e39c512c8)">
     <use xlink:href="#C0_0_3ed71a29a5" x="120.516223" y="203.764172" style="fill: #21918c; stroke: #21918c"/>
    </g>
    <g clip-path="url(#p4e39c512c8)">
     <use xlink:href="#C0_0_3ed71a29a5" x="211.129719" y="257.78347" style="fill: #fde725; stroke: #fde725"/>
    </g>
    <g clip-path="url(#p4e39c512c8)">
     <use xlink:href="#C0_0_3ed71a29a5" x="195.125409" y="284.778095" style="fill: #fde725; stroke: #fde725"/>
    </g>
    <g clip-path="url(#p4e39c512c8)">
     <use xlink:href="#C0_0_3ed71a29a5" x="368.716816" y="63.480832" style="fill: #440154; stroke: #440154"/>
    </g>
    <g clip-path="url(#p4e39c512c8)">
     <use xlink:href="#C0_0_3ed71a29a5" x="207.559232" y="267.104228" style="fill: #fde725; stroke: #fde725"/>
    </g>
    <g clip-path="url(#p4e39c512c8)">
     <use xlink:href="#C0_0_3ed71a29a5" x="391.581053" y="76.911648" style="fill: #440154; stroke: #440154"/>
    </g>
   </g>
   <g id="matplotlib.axis_1">
    <g id="xtick_1">
     <g id="line2d_1">
      <defs>
       <path id="mbb526c5310" d="M 0 0 
L 0 3.5 
" style="stroke: #000000; stroke-width: 0.8"/>
      </defs>
      <g>
       <use xlink:href="#mbb526c5310" x="102.873314" y="307.584" style="stroke: #000000; stroke-width: 0.8"/>
      </g>
     </g>
     <g id="text_1">
      <!-- −10 -->
      <g transform="translate(92.32097 322.182437) scale(0.1 -0.1)">
       <defs>
        <path id="DejaVuSans-2212" d="M 678 2272 
L 4684 2272 
L 4684 1741 
L 678 1741 
L 678 2272 
z
" transform="scale(0.015625)"/>
        <path id="DejaVuSans-31" d="M 794 531 
L 1825 531 
L 1825 4091 
L 703 3866 
L 703 4441 
L 1819 4666 
L 2450 4666 
L 2450 531 
L 3481 531 
L 3481 0 
L 794 0 
L 794 531 
z
" transform="scale(0.015625)"/>
        <path id="DejaVuSans-30" d="M 2034 4250 
Q 1547 4250 1301 3770 
Q 1056 3291 1056 2328 
Q 1056 1369 1301 889 
Q 1547 409 2034 409 
Q 2525 409 2770 889 
Q 3016 1369 3016 2328 
Q 3016 3291 2770 3770 
Q 2525 4250 2034 4250 
z
M 2034 4750 
Q 2819 4750 3233 4129 
Q 3647 3509 3647 2328 
Q 3647 1150 3233 529 
Q 2819 -91 2034 -91 
Q 1250 -91 836 529 
Q 422 1150 422 2328 
Q 422 3509 836 4129 
Q 1250 4750 2034 4750 
z
" transform="scale(0.015625)"/>
       </defs>
       <use xlink:href="#DejaVuSans-2212"/>
       <use xlink:href="#DejaVuSans-31" x="83.789062"/>
       <use xlink:href="#DejaVuSans-30" x="147.412109"/>
      </g>
     </g>
    </g>
    <g id="xtick_2">
     <g id="line2d_2">
      <g>
       <use xlink:href="#mbb526c5310" x="165.548353" y="307.584" style="stroke: #000000; stroke-width: 0.8"/>
      </g>
     </g>
     <g id="text_2">
      <!-- −8 -->
      <g transform="translate(158.177259 322.182437) scale(0.1 -0.1)">
       <defs>
        <path id="DejaVuSans-38" d="M 2034 2216 
Q 1584 2216 1326 1975 
Q 1069 1734 1069 1313 
Q 1069 891 1326 650 
Q 1584 409 2034 409 
Q 2484 409 2743 651 
Q 3003 894 3003 1313 
Q 3003 1734 2745 1975 
Q 2488 2216 2034 2216 
z
M 1403 2484 
Q 997 2584 770 2862 
Q 544 3141 544 3541 
Q 544 4100 942 4425 
Q 1341 4750 2034 4750 
Q 2731 4750 3128 4425 
Q 3525 4100 3525 3541 
Q 3525 3141 3298 2862 
Q 3072 2584 2669 2484 
Q 3125 2378 3379 2068 
Q 3634 1759 3634 1313 
Q 3634 634 3220 271 
Q 2806 -91 2034 -91 
Q 1263 -91 848 271 
Q 434 634 434 1313 
Q 434 1759 690 2068 
Q 947 2378 1403 2484 
z
M 1172 3481 
Q 1172 3119 1398 2916 
Q 1625 2713 2034 2713 
Q 2441 2713 2670 2916 
Q 2900 3119 2900 3481 
Q 2900 3844 2670 4047 
Q 2441 4250 2034 4250 
Q 1625 4250 1398 4047 
Q 1172 3844 1172 3481 
z
" transform="scale(0.015625)"/>
       </defs>
       <use xlink:href="#DejaVuSans-2212"/>
       <use xlink:href="#DejaVuSans-38" x="83.789062"/>
      </g>
     </g>
    </g>
    <g id="xtick_3">
     <g id="line2d_3">
      <g>
       <use xlink:href="#mbb526c5310" x="228.223392" y="307.584" style="stroke: #000000; stroke-width: 0.8"/>
      </g>
     </g>
     <g id="text_3">
      <!-- −6 -->
      <g transform="translate(220.852298 322.182437) scale(0.1 -0.1)">
       <defs>
        <path id="DejaVuSans-36" d="M 2113 2584 
Q 1688 2584 1439 2293 
Q 1191 2003 1191 1497 
Q 1191 994 1439 701 
Q 1688 409 2113 409 
Q 2538 409 2786 701 
Q 3034 994 3034 1497 
Q 3034 2003 2786 2293 
Q 2538 2584 2113 2584 
z
M 3366 4563 
L 3366 3988 
Q 3128 4100 2886 4159 
Q 2644 4219 2406 4219 
Q 1781 4219 1451 3797 
Q 1122 3375 1075 2522 
Q 1259 2794 1537 2939 
Q 1816 3084 2150 3084 
Q 2853 3084 3261 2657 
Q 3669 2231 3669 1497 
Q 3669 778 3244 343 
Q 2819 -91 2113 -91 
Q 1303 -91 875 529 
Q 447 1150 447 2328 
Q 447 3434 972 4092 
Q 1497 4750 2381 4750 
Q 2619 4750 2861 4703 
Q 3103 4656 3366 4563 
z
" transform="scale(0.015625)"/>
       </defs>
       <use xlink:href="#DejaVuSans-2212"/>
       <use xlink:href="#DejaVuSans-36" x="83.789062"/>
      </g>
     </g>
    </g>
    <g id="xtick_4">
     <g id="line2d_4">
      <g>
       <use xlink:href="#mbb526c5310" x="290.89843" y="307.584" style="stroke: #000000; stroke-width: 0.8"/>
      </g>
     </g>
     <g id="text_4">
      <!-- −4 -->
      <g transform="translate(283.527336 322.182437) scale(0.1 -0.1)">
       <defs>
        <path id="DejaVuSans-34" d="M 2419 4116 
L 825 1625 
L 2419 1625 
L 2419 4116 
z
M 2253 4666 
L 3047 4666 
L 3047 1625 
L 3713 1625 
L 3713 1100 
L 3047 1100 
L 3047 0 
L 2419 0 
L 2419 1100 
L 313 1100 
L 313 1709 
L 2253 4666 
z
" transform="scale(0.015625)"/>
       </defs>
       <use xlink:href="#DejaVuSans-2212"/>
       <use xlink:href="#DejaVuSans-34" x="83.789062"/>
      </g>
     </g>
    </g>
    <g id="xtick_5">
     <g id="line2d_5">
      <g>
       <use xlink:href="#mbb526c5310" x="353.573469" y="307.584" style="stroke: #000000; stroke-width: 0.8"/>
      </g>
     </g>
     <g id="text_5">
      <!-- −2 -->
      <g transform="translate(346.202375 322.182437) scale(0.1 -0.1)">
       <defs>
        <path id="DejaVuSans-32" d="M 1228 531 
L 3431 531 
L 3431 0 
L 469 0 
L 469 531 
Q 828 903 1448 1529 
Q 2069 2156 2228 2338 
Q 2531 2678 2651 2914 
Q 2772 3150 2772 3378 
Q 2772 3750 2511 3984 
Q 2250 4219 1831 4219 
Q 1534 4219 1204 4116 
Q 875 4013 500 3803 
L 500 4441 
Q 881 4594 1212 4672 
Q 1544 4750 1819 4750 
Q 2544 4750 2975 4387 
Q 3406 4025 3406 3419 
Q 3406 3131 3298 2873 
Q 3191 2616 2906 2266 
Q 2828 2175 2409 1742 
Q 1991 1309 1228 531 
z
" transform="scale(0.015625)"/>
       </defs>
       <use xlink:href="#DejaVuSans-2212"/>
       <use xlink:href="#DejaVuSans-32" x="83.789062"/>
      </g>
     </g>
    </g>
   </g>
   <g id="matplotlib.axis_2">
    <g id="ytick_1">
     <g id="line2d_6">
      <defs>
       <path id="me2e5520f14" d="M 0 0 
L -3.5 0 
" style="stroke: #000000; stroke-width: 0.8"/>
      </defs>
      <g>
       <use xlink:href="#me2e5520f14" x="57.6" y="305.756454" style="stroke: #000000; stroke-width: 0.8"/>
      </g>
     </g>
     <g id="text_6">
      <!-- −10 -->
      <g transform="translate(29.495313 309.555673) scale(0.1 -0.1)">
       <use xlink:href="#DejaVuSans-2212"/>
       <use xlink:href="#DejaVuSans-31" x="83.789062"/>
       <use xlink:href="#DejaVuSans-30" x="147.412109"/>
      </g>
     </g>
    </g>
    <g id="ytick_2">
     <g id="line2d_7">
      <g>
       <use xlink:href="#me2e5520f14" x="57.6" y="273.124676" style="stroke: #000000; stroke-width: 0.8"/>
      </g>
     </g>
     <g id="text_7">
      <!-- −8 -->
      <g transform="translate(35.857813 276.923895) scale(0.1 -0.1)">
       <use xlink:href="#DejaVuSans-2212"/>
       <use xlink:href="#DejaVuSans-38" x="83.789062"/>
      </g>
     </g>
    </g>
    <g id="ytick_3">
     <g id="line2d_8">
      <g>
       <use xlink:href="#me2e5520f14" x="57.6" y="240.492898" style="stroke: #000000; stroke-width: 0.8"/>
      </g>
     </g>
     <g id="text_8">
      <!-- −6 -->
      <g transform="translate(35.857813 244.292117) scale(0.1 -0.1)">
       <use xlink:href="#DejaVuSans-2212"/>
       <use xlink:href="#DejaVuSans-36" x="83.789062"/>
      </g>
     </g>
    </g>
    <g id="ytick_4">
     <g id="line2d_9">
      <g>
       <use xlink:href="#me2e5520f14" x="57.6" y="207.86112" style="stroke: #000000; stroke-width: 0.8"/>
      </g>
     </g>
     <g id="text_9">
      <!-- −4 -->
      <g transform="translate(35.857813 211.660339) scale(0.1 -0.1)">
       <use xlink:href="#DejaVuSans-2212"/>
       <use xlink:href="#DejaVuSans-34" x="83.789062"/>
      </g>
     </g>
    </g>
    <g id="ytick_5">
     <g id="line2d_10">
      <g>
       <use xlink:href="#me2e5520f14" x="57.6" y="175.229342" style="stroke: #000000; stroke-width: 0.8"/>
      </g>
     </g>
     <g id="text_10">
      <!-- −2 -->
      <g transform="translate(35.857813 179.028561) scale(0.1 -0.1)">
       <use xlink:href="#DejaVuSans-2212"/>
       <use xlink:href="#DejaVuSans-32" x="83.789062"/>
      </g>
     </g>
    </g>
    <g id="ytick_6">
     <g id="line2d_11">
      <g>
       <use xlink:href="#me2e5520f14" x="57.6" y="142.597564" style="stroke: #000000; stroke-width: 0.8"/>
      </g>
     </g>
     <g id="text_11">
      <!-- 0 -->
      <g transform="translate(44.2375 146.396783) scale(0.1 -0.1)">
       <use xlink:href="#DejaVuSans-30"/>
      </g>
     </g>
    </g>
    <g id="ytick_7">
     <g id="line2d_12">
      <g>
       <use xlink:href="#me2e5520f14" x="57.6" y="109.965786" style="stroke: #000000; stroke-width: 0.8"/>
      </g>
     </g>
     <g id="text_12">
      <!-- 2 -->
      <g transform="translate(44.2375 113.765005) scale(0.1 -0.1)">
       <use xlink:href="#DejaVuSans-32"/>
      </g>
     </g>
    </g>
    <g id="ytick_8">
     <g id="line2d_13">
      <g>
       <use xlink:href="#me2e5520f14" x="57.6" y="77.334008" style="stroke: #000000; stroke-width: 0.8"/>
      </g>
     </g>
     <g id="text_13">
      <!-- 4 -->
      <g transform="translate(44.2375 81.133227) scale(0.1 -0.1)">
       <use xlink:href="#DejaVuSans-34"/>
      </g>
     </g>
    </g>
    <g id="ytick_9">
     <g id="line2d_14">
      <g>
       <use xlink:href="#me2e5520f14" x="57.6" y="44.70223" style="stroke: #000000; stroke-width: 0.8"/>
      </g>
     </g>
     <g id="text_14">
      <!-- 6 -->
      <g transform="translate(44.2375 48.501449) scale(0.1 -0.1)">
       <use xlink:href="#DejaVuSans-36"/>
      </g>
     </g>
    </g>
   </g>
   <g id="patch_3">
    <path d="M 57.6 307.584 
L 57.6 41.472 
" style="fill: none; stroke: #000000; stroke-width: 0.8; stroke-linejoin: miter; stroke-linecap: square"/>
   </g>
   <g id="patch_4">
    <path d="M 414.72 307.584 
L 414.72 41.472 
" style="fill: none; stroke: #000000; stroke-width: 0.8; stroke-linejoin: miter; stroke-linecap: square"/>
   </g>
   <g id="patch_5">
    <path d="M 57.6 307.584 
L 414.72 307.584 
" style="fill: none; stroke: #000000; stroke-width: 0.8; stroke-linejoin: miter; stroke-linecap: square"/>
   </g>
   <g id="patch_6">
    <path d="M 57.6 41.472 
L 414.72 41.472 
" style="fill: none; stroke: #000000; stroke-width: 0.8; stroke-linejoin: miter; stroke-linecap: square"/>
   </g>
  </g>
 </g>
 <defs>
  <clipPath id="p4e39c512c8">
   <rect x="57.6" y="41.472" width="357.12" height="266.112"/>
  </clipPath>
 </defs>
</svg>
